<?xml version="1.0" encoding="UTF-8" standalone="no"?>
<!-- Created with Keyshape -->
<svg xmlns="http://www.w3.org/2000/svg" xmlns:xlink="http://www.w3.org/1999/xlink" viewBox="0 0 450 350" text-rendering="geometricPrecision" shape-rendering="geometricPrecision" style="white-space: pre;">
    <g id="fever" opacity="1" transform="translate(229.368,180.632) translate(-125.907,-96.931)">
        <path id="_a0" fill="#000000" filter="blur(0px)" stroke="none" d="M4.208,-10.384C4.224,-10.704,4.304,-10.736,4.544,-10.8L5.472,-11.056L5.504,-12L0.656,-12L0.624,-11.04L1.632,-10.816C1.856,-10.768,1.952,-10.704,1.952,-10.384C1.952,-10.384,2,-5.76,1.968,-1.584C1.968,-1.264,1.856,-1.232,1.616,-1.168L0.656,-0.928L0.624,0L5.472,0L5.504,-0.912L4.496,-1.136C4.272,-1.184,4.192,-1.248,4.192,-1.568C4.16,-3.008,4.16,-8.544,4.208,-10.384Z" transform="translate(17.0732,94.0186) translate(0,0) translate(0,0)"/>
        <path id="_a1" fill="#000000" filter="blur(0px)" stroke="none" d="M0.16,-12.32L0.528,-8.288L1.6,-8.432L2.032,-12.32L1.968,-12.416C1.968,-12.416,0.88,-12.496,0.24,-12.416Z" transform="translate(23.0482,94.0186) translate(0,0) translate(0,0)"/>
        <path id="_a2" fill="#000000" filter="blur(0px)" stroke="none" d="M6.256,-11.296C6.304,-9.648,6.304,-8.128,6.304,-8.128C6.304,-8.128,5.744,-8.464,4.72,-8.464C2.704,-8.464,0.544,-7.04,0.496,-4.128C0.448,-1.376,2.016,0.08,3.792,0.096C4.976,0.096,5.744,-0.384,6.416,-1.024L6.96,0.096C8.128,0.032,9.648,-0.304,9.648,-0.304L9.648,-1.2C9.648,-1.2,9.024,-1.2,8.688,-1.232C8.368,-1.264,8.304,-1.472,8.304,-1.712C8.304,-1.712,8.272,-4.144,8.272,-6.032C8.272,-9.76,8.336,-11.664,8.336,-11.664C8.336,-12.256,8.048,-12.704,7.456,-12.704C6.72,-12.704,5.12,-12.352,5.12,-12.352L5.088,-11.376ZM4.688,-1.264C3.312,-1.264,2.64,-2.544,2.64,-4.208C2.64,-6.272,3.552,-7.216,4.928,-7.216C5.904,-7.216,6.304,-6.8,6.304,-6.8L6.272,-1.984C6.272,-1.984,5.664,-1.264,4.688,-1.264Z" transform="translate(25.5195,94.0186) translate(0,0) translate(0,0)"/>
        <path id="_a3" display="none" fill="#000000" filter="blur(0px)" stroke="none" d="M0.336,-12.32L0.704,-8.288L1.776,-8.432L2.208,-12.32L2.144,-12.416C2.144,-12.416,1.056,-12.496,0.416,-12.416ZM3.072,-12.32L3.44,-8.288L4.512,-8.432L4.944,-12.32L4.88,-12.416C4.88,-12.416,3.792,-12.496,3.152,-12.416Z" transform="translate(11.5134,94.0186) translate(0,0) translate(0,0)"/>
        <path id="_a4" display="none" fill="#000000" filter="blur(0px)" stroke="none" d="M0.336,-12.32L0.704,-8.288L1.776,-8.432L2.208,-12.32L2.144,-12.416C2.144,-12.416,1.056,-12.496,0.416,-12.416ZM3.072,-12.32L3.44,-8.288L4.512,-8.432L4.944,-12.32L4.88,-12.416C4.88,-12.416,3.792,-12.496,3.152,-12.416Z" transform="translate(221.881,94.0186) translate(0,0) translate(0,0)"/>
        <path id="_a5" fill="#000000" filter="blur(0px)" stroke="none" d="M3.536,-7.424L3.536,-11.728C3.52,-12.384,3.28,-12.704,2.704,-12.704C1.984,-12.704,0.4,-12.352,0.4,-12.352L0.368,-11.552L1.456,-11.472C1.456,-11.472,1.504,-5.696,1.472,-1.52C1.472,-1.2,1.36,-1.168,1.12,-1.104L0.432,-0.928L0.4,0L4.56,0L4.592,-0.928L3.84,-1.088C3.616,-1.136,3.52,-1.2,3.52,-1.52C3.488,-4.736,3.536,-6.768,3.536,-6.768C3.536,-6.768,4.592,-7.12,5.696,-7.12C6.72,-7.12,7.008,-6.608,7.072,-5.84C7.136,-5.104,7.152,-3.712,7.056,-1.424C7.04,-1.184,6.928,-1.152,6.704,-1.104L6,-0.928L5.968,0L10.176,0L10.208,-0.928L9.424,-1.088C9.2,-1.136,9.12,-1.2,9.136,-1.52C9.216,-3.952,9.216,-4.976,9.168,-5.632C9.024,-7.408,8.24,-8.704,5.888,-8.432C4.8,-8.304,3.536,-7.424,3.536,-7.424Z" transform="translate(38.0822,94.0186) translate(0,0) translate(0,0)"/>
        <path id="_a6" fill="#000000" stroke="none" d="M3.952,-7.056C4.864,-7.056,5.248,-6.672,5.248,-5.52L5.248,-4.976C4.8,-5.024,4.368,-5.056,3.936,-5.056C2,-5.056,0.24,-4.288,0.352,-2.224C0.416,-0.768,1.488,0.096,3.168,0.096C4.16,0.096,4.848,-0.352,5.472,-0.944C5.792,-0.256,6.24,0.096,7.136,0.096C8,0.096,8.72,-0.336,8.72,-0.336L8.72,-1.104C8.72,-1.104,8.032,-1.072,7.68,-1.104C7.36,-1.136,7.296,-1.344,7.296,-1.584L7.296,-5.424C7.296,-7.2,6.816,-8.464,4.432,-8.464C2.8,-8.464,0.864,-7.776,0.864,-7.776L1.088,-6.688C1.088,-6.688,2.816,-7.056,3.952,-7.056ZM3.84,-1.328C2.72,-1.184,2.368,-1.888,2.32,-2.608C2.256,-3.472,2.96,-4.048,4.192,-4.048C4.528,-4.048,4.896,-4.016,5.248,-3.936L5.248,-2.704C5.248,-2.512,5.248,-1.936,5.264,-1.776C5.264,-1.776,4.704,-1.456,3.84,-1.328Z" transform="translate(48.5794,94.0186) translate(0,0) translate(0,0)"/>
        <path id="_a7" fill="#000000" filter="blur(0px)" stroke="none" d="M3.472,-6.56C3.36,-6.88,3.312,-7.28,3.712,-7.344L4.432,-7.456L4.48,-8.384L0.112,-8.384L0.064,-7.456L0.672,-7.36C1.088,-7.296,1.168,-7.056,1.344,-6.592L3.84,0L5.248,0L7.808,-6.832C7.92,-7.136,8.144,-7.264,8.432,-7.328L9.248,-7.44L9.28,-8.384L5.44,-8.384L5.408,-7.44L6.176,-7.312C6.496,-7.264,6.624,-7.024,6.48,-6.64L5.008,-2.608L4.848,-2.608Z" transform="translate(56.7826,94.103) translate(0,0) translate(0,0)"/>
        <path id="_a8" fill="#000000" filter="blur(0px)" stroke="none" d="M4.496,-8.464C2.496,-8.464,0.336,-6.704,0.512,-3.744C0.704,-1.04,2.624,0.224,4.896,0.096C6.48,0,7.616,-1.024,8.256,-2.128L7.216,-2.784C6.704,-1.904,5.728,-1.328,4.816,-1.296C3.216,-1.232,2.64,-2.608,2.64,-4.128L8.064,-4.016L8.208,-4.192C8.432,-6.08,7.6,-8.464,4.496,-8.464ZM2.704,-5.104C2.752,-6.688,3.632,-7.344,4.64,-7.344C6.192,-7.344,6.112,-5.104,6.112,-5.104Z" transform="translate(65.6687,94.0186) translate(0,0) translate(0,0)"/>
        <path id="_a9" fill="#000000" filter="blur(0px)" stroke="none" d="M3.952,-7.056C4.864,-7.056,5.248,-6.672,5.248,-5.52L5.248,-4.976C4.8,-5.024,4.368,-5.056,3.936,-5.056C2,-5.056,0.24,-4.288,0.352,-2.224C0.416,-0.768,1.488,0.096,3.168,0.096C4.16,0.096,4.848,-0.352,5.472,-0.944C5.792,-0.256,6.24,0.096,7.136,0.096C8,0.096,8.72,-0.336,8.72,-0.336L8.72,-1.104C8.72,-1.104,8.032,-1.072,7.68,-1.104C7.36,-1.136,7.296,-1.344,7.296,-1.584L7.296,-5.424C7.296,-7.2,6.816,-8.464,4.432,-8.464C2.8,-8.464,0.864,-7.776,0.864,-7.776L1.088,-6.688C1.088,-6.688,2.816,-7.056,3.952,-7.056ZM3.84,-1.328C2.72,-1.184,2.368,-1.888,2.32,-2.608C2.256,-3.472,2.96,-4.048,4.192,-4.048C4.528,-4.048,4.896,-4.016,5.248,-3.936L5.248,-2.704C5.248,-2.512,5.248,-1.936,5.264,-1.776C5.264,-1.776,4.704,-1.456,3.84,-1.328Z" transform="translate(77.0673,94.0186) translate(0,0) translate(0,0)"/>
        <path id="_a10" fill="#000000" filter="blur(0px)" stroke="none" d="M6.528,-12.336C6.048,-12.512,5.376,-12.704,4.64,-12.704C2.704,-12.704,1.472,-11.184,1.504,-9.28L1.504,-8.448L0.224,-8.08L0.16,-7.216L1.52,-7.216C1.536,-5.328,1.52,-3.424,1.488,-1.52C1.488,-1.2,1.36,-1.152,1.12,-1.104L0.416,-0.928L0.384,0L4.8,0L4.832,-0.928L3.824,-1.088C3.6,-1.12,3.52,-1.2,3.52,-1.52L3.52,-7.216L5.712,-7.216L5.952,-8.304L3.536,-8.304L3.536,-9.52C3.536,-11.04,4.096,-11.184,4.64,-11.232C5.36,-11.296,6.176,-10.976,6.176,-10.976Z" transform="translate(88.6334,94.0186) translate(0,0) translate(0,0)"/>
        <path id="_a11" fill="#000000" filter="blur(0px)" stroke="none" d="M4.496,-8.464C2.496,-8.464,0.336,-6.704,0.512,-3.744C0.704,-1.04,2.624,0.224,4.896,0.096C6.48,0,7.616,-1.024,8.256,-2.128L7.216,-2.784C6.704,-1.904,5.728,-1.328,4.816,-1.296C3.216,-1.232,2.64,-2.608,2.64,-4.128L8.064,-4.016L8.208,-4.192C8.432,-6.08,7.6,-8.464,4.496,-8.464ZM2.704,-5.104C2.752,-6.688,3.632,-7.344,4.64,-7.344C6.192,-7.344,6.112,-5.104,6.112,-5.104Z" transform="translate(94.2793,94.0186) translate(0,0) translate(0,0)"/>
        <path id="_a12" fill="#000000" filter="blur(0px)" stroke="none" d="M3.472,-6.56C3.36,-6.88,3.312,-7.28,3.712,-7.344L4.432,-7.456L4.48,-8.384L0.112,-8.384L0.064,-7.456L0.672,-7.36C1.088,-7.296,1.168,-7.056,1.344,-6.592L3.84,0L5.248,0L7.808,-6.832C7.92,-7.136,8.144,-7.264,8.432,-7.328L9.248,-7.44L9.28,-8.384L5.44,-8.384L5.408,-7.44L6.176,-7.312C6.496,-7.264,6.624,-7.024,6.48,-6.64L5.008,-2.608L4.848,-2.608Z" transform="translate(103.062,94.0186) translate(0,0) translate(0,0)"/>
        <path id="_a13" fill="#000000" filter="blur(0px)" stroke="none" d="M4.496,-8.464C2.496,-8.464,0.336,-6.704,0.512,-3.744C0.704,-1.04,2.624,0.224,4.896,0.096C6.48,0,7.616,-1.024,8.256,-2.128L7.216,-2.784C6.704,-1.904,5.728,-1.328,4.816,-1.296C3.216,-1.232,2.64,-2.608,2.64,-4.128L8.064,-4.016L8.208,-4.192C8.432,-6.08,7.6,-8.464,4.496,-8.464ZM2.704,-5.104C2.752,-6.688,3.632,-7.344,4.64,-7.344C6.192,-7.344,6.112,-5.104,6.112,-5.104Z" transform="translate(111.908,94.0186) translate(0,0) translate(0,0)"/>
        <path id="_a14" fill="#000000" filter="blur(0px)" stroke="none" d="M3.552,-7.504C3.552,-8.096,3.264,-8.464,2.672,-8.464C1.952,-8.464,0.384,-8.112,0.384,-8.112L0.352,-7.232L1.456,-7.152C1.456,-7.152,1.504,-5.68,1.472,-1.504C1.472,-1.184,1.36,-1.136,1.12,-1.088L0.4,-0.912L0.368,0L4.544,0L4.576,-0.912L3.84,-1.072C3.616,-1.104,3.52,-1.184,3.52,-1.504C3.52,-2.608,3.536,-4.24,3.536,-5.584C3.872,-5.984,4.432,-6.48,5.376,-6.512C6,-6.528,6.592,-6.416,6.912,-6.192C6.912,-6.192,7.184,-7.008,7.36,-7.696C7.552,-8.384,6.88,-8.56,6.224,-8.432C5.296,-8.256,4.272,-7.568,3.552,-6.848Z" transform="translate(120.556,94.0186) translate(0,0) translate(0,0)"/>
        <path id="_a15" fill="#000000" filter="blur(0px)" stroke="none" d="M6.528,-12.336C6.048,-12.512,5.376,-12.704,4.64,-12.704C2.704,-12.704,1.472,-11.184,1.504,-9.28L1.504,-8.448L0.224,-8.08L0.16,-7.216L1.52,-7.216C1.536,-5.328,1.52,-3.424,1.488,-1.52C1.488,-1.2,1.36,-1.152,1.12,-1.104L0.416,-0.928L0.384,0L4.8,0L4.832,-0.928L3.824,-1.088C3.6,-1.12,3.52,-1.2,3.52,-1.52L3.52,-7.216L5.712,-7.216L5.952,-8.304L3.536,-8.304L3.536,-9.52C3.536,-11.04,4.096,-11.184,4.64,-11.232C5.36,-11.296,6.176,-10.976,6.176,-10.976Z" transform="translate(130.828,94.0186) translate(0,0) translate(0,0)"/>
        <path id="_a16" fill="#000000" stroke="none" d="M4.688,0.096C6.848,0.096,8.912,-1.12,8.912,-4.256C8.912,-6.8,7.232,-8.464,4.72,-8.464C2.176,-8.464,0.496,-6.816,0.496,-4.256C0.496,-1.104,2.512,0.096,4.688,0.096ZM4.688,-1.04C3.312,-1.04,2.688,-1.904,2.688,-4.256C2.688,-6.208,3.312,-7.36,4.704,-7.36C6.096,-7.36,6.688,-6.224,6.688,-4.256C6.688,-1.904,6.096,-1.04,4.688,-1.04Z" transform="translate(141.297,88.1453) translate(0,0) translate(-4.74219,5.95201)"/>
        <path id="_a17" fill="#000000" stroke="none" d="M3.552,-7.504C3.552,-8.096,3.264,-8.464,2.672,-8.464C1.952,-8.464,0.384,-8.112,0.384,-8.112L0.352,-7.232L1.456,-7.152C1.456,-7.152,1.504,-5.68,1.472,-1.504C1.472,-1.184,1.36,-1.136,1.12,-1.088L0.4,-0.912L0.368,0L4.544,0L4.576,-0.912L3.84,-1.072C3.616,-1.104,3.52,-1.184,3.52,-1.504C3.52,-2.608,3.536,-4.24,3.536,-5.584C3.872,-5.984,4.432,-6.48,5.376,-6.512C6,-6.528,6.592,-6.416,6.912,-6.192C6.912,-6.192,7.184,-7.008,7.36,-7.696C7.552,-8.384,6.88,-8.56,6.224,-8.432C5.296,-8.256,4.272,-7.568,3.552,-6.848Z" transform="translate(149.67,88.137) translate(0,0) translate(-3.71094,5.95201)"/>
        <path id="_a18" fill="#000000" filter="blur(0px)" stroke="none" d="M3.952,-7.056C4.864,-7.056,5.248,-6.672,5.248,-5.52L5.248,-4.976C4.8,-5.024,4.368,-5.056,3.936,-5.056C2,-5.056,0.24,-4.288,0.352,-2.224C0.416,-0.768,1.488,0.096,3.168,0.096C4.16,0.096,4.848,-0.352,5.472,-0.944C5.792,-0.256,6.24,0.096,7.136,0.096C8,0.096,8.72,-0.336,8.72,-0.336L8.72,-1.104C8.72,-1.104,8.032,-1.072,7.68,-1.104C7.36,-1.136,7.296,-1.344,7.296,-1.584L7.296,-5.424C7.296,-7.2,6.816,-8.464,4.432,-8.464C2.8,-8.464,0.864,-7.776,0.864,-7.776L1.088,-6.688C1.088,-6.688,2.816,-7.056,3.952,-7.056ZM3.84,-1.328C2.72,-1.184,2.368,-1.888,2.32,-2.608C2.256,-3.472,2.96,-4.048,4.192,-4.048C4.528,-4.048,4.896,-4.016,5.248,-3.936L5.248,-2.704C5.248,-2.512,5.248,-1.936,5.264,-1.776C5.264,-1.776,4.704,-1.456,3.84,-1.328Z" transform="translate(156.368,94.0186) translate(0,0) translate(0,0)"/>
        <path id="_a19" fill="#000000" filter="blur(0px)" stroke="none" d="M3.536,-7.424C3.536,-8.128,3.296,-8.464,2.704,-8.464C1.984,-8.464,0.4,-8.112,0.4,-8.112L0.368,-7.216L1.456,-7.136C1.456,-7.136,1.504,-5.696,1.472,-1.52C1.472,-1.2,1.36,-1.152,1.12,-1.104L0.432,-0.928L0.4,0L4.56,0L4.592,-0.928L3.84,-1.088C3.616,-1.12,3.52,-1.2,3.52,-1.52C3.488,-4.736,3.536,-6.768,3.536,-6.768C3.536,-6.768,4.592,-7.12,5.696,-7.12C6.72,-7.12,7.008,-6.608,7.072,-5.84C7.136,-5.104,7.152,-3.712,7.056,-1.424C7.04,-1.184,6.928,-1.152,6.704,-1.104L6,-0.928L5.968,0L10.176,0L10.208,-0.928L9.424,-1.088C9.2,-1.12,9.12,-1.2,9.136,-1.52C9.216,-3.952,9.216,-4.976,9.168,-5.632C9.024,-7.408,8.24,-8.704,5.888,-8.432C4.8,-8.304,3.536,-7.424,3.536,-7.424Z" transform="translate(165.224,94.0186) translate(0,0) translate(0,0)"/>
        <path id="_a20" fill="#000000" filter="blur(0px)" stroke="none" d="M3.536,-7.424L3.536,-11.728C3.52,-12.384,3.28,-12.704,2.704,-12.704C1.984,-12.704,0.4,-12.352,0.4,-12.352L0.368,-11.552L1.456,-11.472C1.456,-11.472,1.504,-5.696,1.472,-1.52C1.472,-1.2,1.36,-1.168,1.12,-1.104L0.432,-0.928L0.4,0L4.56,0L4.592,-0.928L3.84,-1.088C3.616,-1.136,3.52,-1.2,3.52,-1.52C3.488,-4.736,3.536,-6.768,3.536,-6.768C3.536,-6.768,4.592,-7.12,5.696,-7.12C6.72,-7.12,7.008,-6.608,7.072,-5.84C7.136,-5.104,7.152,-3.712,7.056,-1.424C7.04,-1.184,6.928,-1.152,6.704,-1.104L6,-0.928L5.968,0L10.176,0L10.208,-0.928L9.424,-1.088C9.2,-1.136,9.12,-1.2,9.136,-1.52C9.216,-3.952,9.216,-4.976,9.168,-5.632C9.024,-7.408,8.24,-8.704,5.888,-8.432C4.8,-8.304,3.536,-7.424,3.536,-7.424Z" transform="translate(178.453,94.0186) translate(0,0) translate(0,0)"/>
        <path id="_a21" fill="#000000" filter="blur(0px)" stroke="none" d="M4.688,0.096C6.848,0.096,8.912,-1.12,8.912,-4.256C8.912,-6.8,7.232,-8.464,4.72,-8.464C2.176,-8.464,0.496,-6.816,0.496,-4.256C0.496,-1.104,2.512,0.096,4.688,0.096ZM4.688,-1.04C3.312,-1.04,2.688,-1.904,2.688,-4.256C2.688,-6.208,3.312,-7.36,4.704,-7.36C6.096,-7.36,6.688,-6.224,6.688,-4.256C6.688,-1.904,6.096,-1.04,4.688,-1.04Z" transform="translate(189.018,94.1558) translate(0,0) translate(0,0)"/>
        <path id="_a22" fill="#000000" filter="blur(0px)" stroke="none" d="M1.28,-2.64C1.28,-0.688,2.448,0.096,3.76,0.096C4.848,0.096,5.84,-0.432,6.448,-1.024L6.992,0.096C8.16,0.032,9.552,-0.336,9.552,-0.336L9.552,-1.232C9.552,-1.232,9.056,-1.2,8.72,-1.232C8.4,-1.264,8.336,-1.472,8.336,-1.712L8.336,-7.504C8.336,-8.096,8.048,-8.464,7.456,-8.464C6.72,-8.464,4.992,-8.112,4.992,-8.112L4.96,-7.232L6.224,-7.152C6.224,-6.496,6.24,-2.176,6.24,-1.872C6.24,-1.872,5.264,-1.264,4.496,-1.264C3.728,-1.264,3.344,-1.648,3.344,-2.624C3.344,-4.96,3.376,-6.368,3.376,-7.504C3.376,-8.096,3.088,-8.464,2.496,-8.464C1.76,-8.464,0.224,-8.112,0.224,-8.112L0.192,-7.232L1.264,-7.152C1.296,-5.648,1.28,-4.096,1.28,-2.64Z" transform="translate(198.383,94.0186) translate(0,0) translate(0,0)"/>
        <path id="_a23" fill="#000000" filter="blur(0px)" stroke="none" d="M3.552,-7.504C3.552,-8.096,3.264,-8.464,2.672,-8.464C1.952,-8.464,0.384,-8.112,0.384,-8.112L0.352,-7.232L1.456,-7.152C1.456,-7.152,1.504,-5.68,1.472,-1.504C1.472,-1.184,1.36,-1.136,1.12,-1.088L0.4,-0.912L0.368,0L4.544,0L4.576,-0.912L3.84,-1.072C3.616,-1.104,3.52,-1.184,3.52,-1.504C3.52,-2.608,3.536,-4.24,3.536,-5.584C3.872,-5.984,4.432,-6.48,5.376,-6.512C6,-6.528,6.592,-6.416,6.912,-6.192C6.912,-6.192,7.184,-7.008,7.36,-7.696C7.552,-8.384,6.88,-8.56,6.224,-8.432C5.296,-8.256,4.272,-7.568,3.552,-6.848Z" transform="translate(208.393,94.0186) translate(0,0) translate(0,0)"/>
    </g>
    <script xlink:href="../keyshape.js"></script>
    <script><![CDATA[if(KeyshapeJS.version.indexOf('1.')!=0)throw Error('Expected KeyshapeJS v1.*.*');window.ks=document.ks=KeyshapeJS;(function(ks){
ks.animate("#fever",[{p:'opacity',t:[0,2500],v:[1,0],e:[[1,0,0,1,1],[0]]}],
"#_a0",[{p:'mpath',t:[0,2500],v:['0%','100%'],e:[[0],[0]],mp:"M17.0732,94.0186L6.1519,-9.87976"},{p:'rotate',t:[0,2500],v:[0,20],e:[[0],[0]]},{p:'scaleX',t:[0,2500],v:[1,1.4],e:[[0],[0]]},{p:'scaleY',t:[0,2500],v:[1,1.4],e:[[0],[0]]},{p:'filter',t:[0,2500],v:['blur(0px)','blur(1px)'],e:[[0],[0]]}],
"#_a1",[{p:'mpath',t:[0,2500],v:['0%','100%'],e:[[0],[0]],mp:"M23.0482,94.0186L69.4628,143.285"},{p:'rotate',t:[0,2500],v:[0,200],e:[[0],[0]]},{p:'filter',t:[0,2500],v:['blur(0px)','blur(0.5px)'],e:[[0],[0]]}],
"#_a2",[{p:'mpath',t:[0,2500],v:['0%','100%'],e:[[0],[0]],mp:"M25.5195,94.0186L1.06729,114.369"},{p:'filter',t:[0,2500],v:['blur(0px)','blur(0.5px)'],e:[[0],[0]]}],
"#_a3",[{p:'mpath',t:[0,2500],v:['0%','100%'],e:[[0],[0]],mp:"M11.5134,94.0186L42.5525,122.203"},{p:'rotate',t:[0,2500],v:[0,200],e:[[0],[0]]},{p:'filter',t:[0,2500],v:['blur(0px)','blur(0.5px)'],e:[[0],[0]]}],
"#_a4",[{p:'mpath',t:[0,2500],v:['0%','100%'],e:[[0],[0]],mp:"M221.881,94.0186L226.334,222.125"},{p:'rotate',t:[0,2500],v:[0,200],e:[[0],[0]]},{p:'filter',t:[0,2500],v:['blur(0px)','blur(0.5px)'],e:[[0],[0]]}],
"#_a5",[{p:'mpath',t:[0,2500],v:['0%','100%'],e:[[0],[0]],mp:"M38.0822,94.0186L6.89757,179.519"},{p:'rotate',t:[0,2500],v:[0,20],e:[[0],[0]]},{p:'scaleX',t:[0,2500],v:[1,1.3],e:[[0],[0]]},{p:'scaleY',t:[0,2500],v:[1,1.3],e:[[0],[0]]},{p:'filter',t:[0,2500],v:['blur(0px)','blur(1px)'],e:[[0],[0]]}],
"#_a6",[{p:'mpath',t:[0,2500],v:['0%','100%'],e:[[0],[0]],mp:"M48.5794,94.0186L-63.6219,27.3401"},{p:'rotate',t:[0,2500],v:[0,300],e:[[0],[0]]},{p:'scaleX',t:[0,2500],v:[1,4.7],e:[[0],[0]]},{p:'scaleY',t:[0,2500],v:[1,4.7],e:[[0],[0]]}],
"#_a7",[{p:'mpath',t:[0,2500],v:['0%','100%'],e:[[0],[0]],mp:"M56.7826,94.103L-16.9637,39.3342"},{p:'rotate',t:[0,2500],v:[0,500],e:[[0],[0]]},{p:'scaleX',t:[0,2500],v:[1,2.1],e:[[0],[0]]},{p:'scaleY',t:[0,2500],v:[1,2.1],e:[[0],[0]]},{p:'filter',t:[0,2500],v:['blur(0px)','blur(0.5px)'],e:[[0],[0]]}],
"#_a8",[{p:'mpath',t:[0,2500],v:['0%','100%'],e:[[0],[0]],mp:"M65.6687,94.0186L25.8056,114.802"},{p:'rotate',t:[0,2500],v:[0,20],e:[[0],[0]]},{p:'scaleX',t:[0,2500],v:[1,0.4],e:[[0],[0]]},{p:'scaleY',t:[0,2500],v:[1,0.4],e:[[0],[0]]},{p:'filter',t:[0,2500],v:['blur(0px)','blur(2px)'],e:[[0],[0]]}],
"#_a9",[{p:'mpath',t:[0,2500],v:['0%','100%'],e:[[0],[0]],mp:"M77.0673,94.0186L53.8745,44.5539"},{p:'rotate',t:[0,2500],v:[0,300],e:[[0],[0]]},{p:'scaleX',t:[0,2500],v:[1,1.9],e:[[0],[0]]},{p:'scaleY',t:[0,2500],v:[1,1.9],e:[[0],[0]]},{p:'filter',t:[0,2500],v:['blur(0px)','blur(0.5px)'],e:[[0],[0]]}],
"#_a10",[{p:'mpath',t:[0,2500],v:['0%','100%'],e:[[0],[0]],mp:"M88.6334,94.0186L247.43,159.57"},{p:'rotate',t:[0,2500],v:[0,200],e:[[0],[0]]},{p:'scaleX',t:[0,2500],v:[1,2],e:[[0],[0]]},{p:'scaleY',t:[0,2500],v:[1,2],e:[[0],[0]]},{p:'filter',t:[0,2500],v:['blur(0px)','blur(0.5px)'],e:[[0],[0]]}],
"#_a11",[{p:'mpath',t:[0,2500],v:['0%','100%'],e:[[0],[0]],mp:"M94.2793,94.0186L287.24,21.7907"},{p:'rotate',t:[0,2500],v:[0,-50],e:[[0],[0]]},{p:'scaleX',t:[0,2500],v:[1,2],e:[[0],[0]]},{p:'scaleY',t:[0,2500],v:[1,2],e:[[0],[0]]},{p:'filter',t:[0,2500],v:['blur(0px)','blur(0.5px)'],e:[[0],[0]]}],
"#_a12",[{p:'mpath',t:[0,2500],v:['0%','100%'],e:[[0],[0]],mp:"M103.062,94.0186L78.5556,-45.1165"},{p:'rotate',t:[0,2500],v:[0,-200],e:[[0],[0]]},{p:'scaleX',t:[0,2500],v:[1,1.2],e:[[0],[0]]},{p:'scaleY',t:[0,2500],v:[1,1.2],e:[[0],[0]]},{p:'filter',t:[0,2500],v:['blur(0px)','blur(2px)'],e:[[0],[0]]}],
"#_a13",[{p:'mpath',t:[0,2500],v:['0%','100%'],e:[[0],[0]],mp:"M111.908,94.0186L134.18,25.6059"},{p:'rotate',t:[0,2500],v:[0,40],e:[[0],[0]]},{p:'scaleX',t:[0,2500],v:[1,1.7],e:[[0],[0]]},{p:'scaleY',t:[0,2500],v:[1,1.7],e:[[0],[0]]},{p:'filter',t:[0,2500],v:['blur(0px)','blur(0.5px)'],e:[[0],[0]]}],
"#_a14",[{p:'mpath',t:[0,2500],v:['0%','100%'],e:[[0],[0]],mp:"M120.556,94.0186L173.25,150.308"},{p:'scaleX',t:[0,2500],v:[1,1.7],e:[[0],[0]]},{p:'scaleY',t:[0,2500],v:[1,1.7],e:[[0],[0]]},{p:'filter',t:[0,2500],v:['blur(0px)','blur(0.5px)'],e:[[0],[0]]}],
"#_a15",[{p:'mpath',t:[0,2500],v:['0%','100%'],e:[[0],[0]],mp:"M130.828,94.0186L148.175,204.842"},{p:'rotate',t:[0,2500],v:[0,20],e:[[0],[0]]},{p:'scaleX',t:[0,2500],v:[1,0.4],e:[[0],[0]]},{p:'scaleY',t:[0,2500],v:[1,0.4],e:[[0],[0]]},{p:'filter',t:[0,2500],v:['blur(0px)','blur(2px)'],e:[[0],[0]]}],
"#_a16",[{p:'mpath',t:[0,2500],v:['0%','100%'],e:[[0],[0]],mp:"M141.297,88.1453L191.619,-44.0261"},{p:'rotate',t:[0,2500],v:[0,450],e:[[0],[0]]},{p:'scaleX',t:[0,2500],v:[1,6.4],e:[[1,0,0,1,1],[0]]},{p:'scaleY',t:[0,2500],v:[1,6.4],e:[[1,0,0,1,1],[0]]}],
"#_a17",[{p:'mpath',t:[0,2500],v:['0%','100%'],e:[[0],[0]],mp:"M149.67,88.137L102.116,215.954"},{p:'rotate',t:[0,2500],v:[0,300],e:[[0],[0]]},{p:'scaleX',t:[0,2500],v:[1,5.2],e:[[0],[0]]},{p:'scaleY',t:[0,2500],v:[1,5.2],e:[[0],[0]]}],
"#_a18",[{p:'mpath',t:[0,2500],v:['0%','100%'],e:[[0],[0]],mp:"M156.368,94.0186L-83.1177,165.505"},{p:'rotate',t:[0,2500],v:[0,170],e:[[0],[0]]},{p:'filter',t:[0,2500],v:['blur(0px)','blur(0.5px)'],e:[[0],[0]]}],
"#_a19",[{p:'mpath',t:[0,2500],v:['0%','100%'],e:[[0],[0]],mp:"M165.224,94.0186L194.107,116.967"},{p:'rotate',t:[0,2500],v:[0,20],e:[[0],[0]]},{p:'scaleX',t:[0,2500],v:[1,0.4],e:[[0],[0]]},{p:'scaleY',t:[0,2500],v:[1,0.4],e:[[0],[0]]},{p:'filter',t:[0,2500],v:['blur(0px)','blur(2px)'],e:[[0],[0]]}],
"#_a20",[{p:'mpath',t:[0,2500],v:['0%','100%'],e:[[0],[0]],mp:"M178.453,94.0186L315.603,144.473"},{p:'filter',t:[0,2500],v:['blur(0px)','blur(0.5px)'],e:[[0],[0]]}],
"#_a21",[{p:'mpath',t:[0,2500],v:['0%','100%'],e:[[0],[0]],mp:"M189.018,94.1558L152.398,77.1319"},{p:'filter',t:[0,2500],v:['blur(0px)','blur(0.5px)'],e:[[0],[0]]}],
"#_a22",[{p:'mpath',t:[0,2500],v:['0%','100%'],e:[[0],[0]],mp:"M198.383,94.0186L294.725,67.6695"},{p:'rotate',t:[0,2500],v:[0,-300],e:[[0],[0]]},{p:'scaleX',t:[0,2500],v:[1,1.9],e:[[0],[0]]},{p:'scaleY',t:[0,2500],v:[1,1.9],e:[[0],[0]]},{p:'filter',t:[0,2500],v:['blur(0px)','blur(0.5px)'],e:[[0],[0]]}],
"#_a23",[{p:'mpath',t:[0,2500],v:['0%','100%'],e:[[0],[0]],mp:"M208.393,94.0186L221.899,102.678"},{p:'rotate',t:[0,2500],v:[0,20],e:[[0],[0]]},{p:'scaleX',t:[0,2500],v:[1,0.4],e:[[0],[0]]},{p:'scaleY',t:[0,2500],v:[1,0.4],e:[[0],[0]]},{p:'filter',t:[0,2500],v:['blur(0px)','blur(2px)'],e:[[0],[0]]}],
{autoremove:false}).range(0,2500).loop(true);
if(document.location.search.substr(1).split('&').indexOf('global=paused')>=0)ks.globalPause()})(KeyshapeJS);
]]></script>
    <script xlink:href="../keyshape-progress-controller.js"></script>
</svg>
