<?xml version="1.0" encoding="utf-8"?>
<!-- Generator: Adobe Illustrator 25.4.1, SVG Export Plug-In . SVG Version: 6.00 Build 0)  -->
<svg
  version="1.1"
  id="Layer_1"
  xmlns="http://www.w3.org/2000/svg"
  xmlns:xlink="http://www.w3.org/1999/xlink"
  x="0px"
  y="0px"
  viewBox="0 0 611.5 404.9"
  style="enable-background: new 0 0 611.5 404.9"
  xml:space="preserve"
>
  <path
    d="M166.7,157.4c0,35.1,0,69.9,0,104.9c-7.2,0-14.1,0-21.6,0c-0.2-8.8-0.1-17.5-0.1-26.3c0-8.7,0-17.4,0-26.1
	c0-8.8,0-17.6-0.3-26.5c-9,26.2-17.4,52.6-26,79c-5.6,0-11,0-16.7,0c-8.2-26.4-16.4-52.7-24.7-79.1c-0.2,0-0.5,0.1-0.7,0.1
	c0,26.2,0,52.4,0,78.5c-2.6,0.8-17.2,0.9-21.7,0.3c0-34.8,0-69.6,0-104.4c2.4-0.7,27.9-0.9,33-0.3c7.5,22.5,15,45,22.6,67.6
	c0.2,0,0.5,0,0.7,0c7.6-22.6,15.1-45.1,22.7-67.8C144.8,157.4,155.6,157.4,166.7,157.4z"
  />
  <path
    d="M479.8,210.4c-0.3,10.3-2.2,20.2-6.8,29.3c-6.2,12.2-15.8,20.5-28.6,24.7c-13.4,4.4-26.8,4.2-39.9-1
	c-15.4-6.1-25.3-17.8-29.6-34c-4.2-15.4-3.7-30.9,3-45.6c7.4-16.4,20.3-25.8,37.5-28.9c11.1-2,22.1-1.2,32.7,3.3
	c16.2,6.9,25.8,19.5,29.8,36.8C478.9,200,479.2,205.3,479.8,210.4z M395,211.5c-0.1,3.7,0.6,8.3,2.1,12.7
	c4.2,12.8,14.8,20.9,27.8,21.2c13.7,0.3,24.5-7,29.3-19.9c2.7-7.3,3.2-14.9,1.9-22.6c-2.5-14.8-12.1-25.3-26.7-26.9
	c-13.3-1.4-25.5,4.9-31.1,17.9C396,199.3,395.1,204.8,395,211.5z"
  />
  <path
    d="M542.5,218.5c8.4,14.8,16.7,29.5,25.3,44.6c-1.2,0.1-2,0.2-2.7,0.2c-7,0-14.1-0.1-21.1,0.1c-2.2,0-3.2-0.8-4.1-2.7
	c-5.9-12.2-12-24.4-18-36.6c-0.6-1.1-1.2-2.2-1.8-3.5c-3.6,0-7.1,0-11,0c0,14.2,0,28.2,0,42.5c-7.5,0-14.7,0-22.1,0
	c0-35.6,0-71,0-106.7c0.9-0.1,1.8-0.3,2.6-0.3c12.7,0,25.4-0.1,38.1,0c6.2,0.1,12.4,0.9,18.3,3.3c10.4,4.1,16.1,11.8,17.7,22.8
	c0.8,5.4,0.7,10.8-0.7,16.1c-2.6,9.6-8.3,16.3-18.1,19.1c-0.5,0.2-1.1,0.3-1.6,0.5C543.1,217.9,543,218,542.5,218.5z M509.2,200.1
	c7,0,13.7,0.1,20.3-0.1c1.7,0,3.4-0.7,5-1.2c2.4-0.8,4.2-2.5,5.3-4.7c3.4-6.9,0.1-14.7-7.2-16.9c-0.9-0.3-1.8-0.5-2.7-0.6
	c-6-0.2-12-0.4-17.9-0.5c-0.9,0-1.8,0.1-2.8,0.2C509.2,184.3,509.2,192.1,509.2,200.1z"
  />
  <path
    d="M247.6,178.4c-15.1,0-30,0-45.1,0c0,6.6,0,12.9,0,19.6c3.6,0.2,7.2,0.1,10.7,0.1c3.5,0,7,0,10.5,0c3.6,0,7.2,0,10.9,0
	c3.5,0,7,0,10.6,0c0,7.2,0,14.1,0,21.2c-14.3,0-28.4,0-42.9,0c-0.1,7.3-0.1,14.2,0,21.5c16.1,0,31.8,0,47.8,0c0,7.2,0,14.1,0,21.1
	c-23.2,0-46.3,0-69.6,0c0-34.9,0-69.7,0-104.8c22.4,0,44.6,0,67.1,0C247.6,164.2,247.6,171.2,247.6,178.4z"
  />
  <path
    d="M135,132.4c5.7-6.4,10.8-12.2,16.2-18.3c0.9,1.1,1.6,2,2.4,2.7c7,6.6,15.1,8.8,24.4,6c1.8-0.5,3.6-1.5,5-2.7
	c4.7-3.8,4.8-10.8-0.1-14.4c-2.9-2.2-6.4-3.7-9.9-5.1c-4-1.6-8.2-2.6-12.2-4.2c-4-1.7-8.1-3.5-11.8-5.9
	c-6.8-4.5-10.2-11.2-10.7-19.4c-0.9-17.1,9.3-29,22.9-33.5c13.5-4.4,26.8-3.6,39.5,2.7c2.8,1.4,5.2,3.5,8.1,5.4
	c-5.4,6-10.4,11.7-15.5,17.4c-5.1-5.2-11.2-7.1-18-6.7c-3.6,0.2-6.9,1.2-9.8,3.3c-5.2,3.9-5.2,11.4,0.3,14.9c3.1,2,6.7,3.3,10.1,4.6
	c3.6,1.4,7.4,2.2,11,3.6c3,1.1,5.9,2.3,8.6,3.9c7.9,4.5,12.5,11.3,13.2,20.5c1.5,18.2-8,31.5-24.2,36.1c-14.1,3.9-27.8,3-40.7-4.4
	C141,137.1,138.2,134.7,135,132.4z"
  />
  <path
    d="M317.3,201.3c14.1,0,28.3,0,42.7,0c0,7.3,0,14.1,0,21.4c-3.5,0.4-7,0.1-10.5,0.2c-3.6,0-7.1,0-10.7,0s-7.1,0-10.7,0
	c-3.6,0-7.1,0-11.2,0c-0.3,4.6-0.1,9.1-0.1,13.6c0,4.4,0,8.9,0,13.3c0,4.5,0,9.1,0,14c-7.6,0.5-15,0.1-22.3,0.3
	c-0.8-2.7-1.1-100.3-0.4-105.3c2.5-0.7,65.1-0.9,69.4-0.2c0,6.8,0,13.7,0,21c-3.9,0.4-7.8,0.1-11.6,0.2c-3.8,0-7.6,0-11.4,0
	c-3.9,0-7.8,0-11.8,0c-3.8,0-7.6,0-11.3,0C316.7,182.5,316.5,197.3,317.3,201.3z"
  />
  <path
    d="M124.3,142.9c-6.9,0-13.7,0-20.6,0C103,140.3,102.8,42,103.5,38c6.9,0,13.9,0,20.9,0C125.2,40.9,125.2,140.4,124.3,142.9z"
  />
  <g>
    <path
      d="M349.7,141.7c-7.6,0-14.5,0-21.5,0c-0.7-2.6-1-99.4-0.3-104.8c7,0,14.1,0,21.6,0c0,12.8,0,25.7,0,38.7
		c14.3,0,28.1,0,42.4,0c0-13,0-25.8,0-38.8c7.4,0,14.4,0,21.4,0c0.8,2.4,1,101,0.2,104.8c-6.9,0-13.9,0-21.2,0
		c-0.5-3.6-0.2-7.3-0.2-11c-0.1-3.8,0-7.7,0-11.5c0-3.7,0-7.5,0-11.2c0-3.7,0-7.4,0-11.3c-14.2,0-28.1,0-42.3,0
		C349.7,111.5,349.7,126.4,349.7,141.7z"
    />
    <path
      d="M530.2,44.5c-5.3,6.1-10,11.6-15.1,17.5c-2.9-3.3-6.4-5.2-10.4-6.2c-5.1-1.2-10.1-1-14.8,1.6c-4.2,2.2-5.8,5.5-5.2,10.1
		c0.3,2.8,1.7,5,4.1,6.3c2.9,1.6,5.8,3,8.9,4.1c3.9,1.5,7.9,2.6,11.9,4c4.2,1.4,8.1,3.5,11.5,6.3c8.1,6.8,9.9,15.9,8.9,25.8
		c-1.6,16-12.6,27.3-30.7,29.7c-9.7,1.3-19.2,0.3-28.2-3.9c-4.6-2.1-8.6-5-12.5-8.9c5.1-5.9,10.1-11.8,15.2-17.8
		c1,1,1.9,1.8,2.8,2.7c6.4,6.1,13.9,8.3,22.5,6.1c1.9-0.5,3.8-1.5,5.4-2.7c5-3.8,5.3-11.1,0.2-14.9c-2.6-2-5.8-3.5-8.9-4.8
		c-3.7-1.6-7.7-2.6-11.5-4.1c-2.7-1-5.5-2.1-8.1-3.5c-12-6.6-15.7-16-14.2-28.6c1.6-13.7,9.5-22.8,22.4-27.2
		c12.9-4.4,25.7-3.4,37.8,2.8C524.9,40.5,527.3,42.5,530.2,44.5z"
    />
    <path
      d="M290.3,142.1c-7.6,0-14.6,0-22,0c0-28.2,0-56.2,0-84.5c-9.5,0-18.6,0-27.6,0c-0.8-2.8-0.9-16.5-0.2-20.3
		c25.8,0,51.7,0,77.5,0c0.7,2.3,0.9,15.1,0.2,20.2c-9.1,0-18.3,0-27.9,0C290.3,85.9,290.3,113.9,290.3,142.1z"
    />
    <path
      d="M427.6,36.9c7.2,0,14.2,0,21.4,0c0,35,0,69.7,0,105c-7.1,0.1-14.1,0.1-21.4,0C427.6,106.9,427.6,72.1,427.6,36.9z"
    />
  </g>
  <path
    d="M346.2,363.1c16.2,0,31.9,0,47.8,0c0,7.2,0,14,0,21.1c-23.1,0-46.2,0-69.2,0c-0.7-2.3-0.9-100.5-0.2-104.8
	c22.2,0,44.4,0,66.9,0c0,6.9,0,13.8,0,21.1c-4.9,0.2-9.8,0.1-14.8,0.1c-5.1,0-10.2,0-15.3,0c-5,0-9.9,0-15.1,0c0,6.6,0,12.9,0,19.5
	c14.2,0,28.3,0,42.7,0c0,7.2,0,14.1,0,21.4c-7.1,0.1-14.2,0-21.2,0.1c-7,0-14,0-21.4,0C345.9,348.7,346.2,355.6,346.2,363.1z"
  />
  <path
    d="M272,385c-7.5,0-14.5,0-21.8,0c0-35,0-69.8,0-104.8c22.1,0,44.1,0,66.3,0c0,7,0,13.9,0,21.2c-14.7,0.1-29.4,0-44.3,0.1
	c0,7.1,0,13.9,0,21.3c4.5,0,9,0,13.4,0c4.5,0,9.1,0,13.6,0c4.5,0,9,0,13.4,0c0.8,2.7,0.9,17.4,0.2,21.4c-13.5,0-27,0-40.9,0
	C272,358,272,371.4,272,385z"
  />
  <path
    d="M143.3,280.2c7.2,0,14.1,0,21.5,0c0,27.8,0,55.5,0,83.6c13.7,0,27,0,40.4,0c0,7.3,0,14.2,0,21.3c-20.6,0-41.2,0-61.7,0
	C142.8,382.8,142.5,285.1,143.3,280.2z"
  />
  <path d="M214.4,385c0-35.1,0-69.8,0-104.7c7.2,0,14.2,0,21.5,0c0,34.9,0,69.7,0,104.7C228.8,385,221.7,385,214.4,385z" />
  <g>
    <path
      d="M434,309.8c-6.9-0.5-13.5-0.9-20.6-1.4c0.3-2.2,0.5-4.1,0.9-5.9c3.1-14.5,14.1-24,28.8-24.9c5-0.3,10-0.1,14.9,1.4
		c12.5,3.8,20,14.7,19.5,27.7c-0.3,8-3.5,14.5-9,20c-2.2,2.2-4.5,4.5-7,6.4c-4.1,3.3-6.5,7.3-6,12.7c0,0.4-0.1,0.9-0.1,1.3
		c0,0.1-0.1,0.2-0.5,0.7c-2.9,0-6.1,0-9.4,0c-3.3,0-6.5,0-10.1,0c-0.5-7.4-0.8-14.5,5.4-20c3.6-3.2,7-6.6,10.3-10
		c1.7-1.7,3.2-3.6,4.5-5.6c2.2-3.4,2.1-7.1,0.2-10.5c-1.9-3.4-5.1-4.5-8.9-4.4c-6.2,0.2-10.5,3.5-12.2,9.4
		C434.6,307.4,434.4,308.4,434,309.8z"
    />
    <path
      d="M457.9,372.6c-0.1,10-9.9,16.1-18.3,11.4c-5.3-3-7.8-9.7-5.8-15.9c1.9-5.9,7.1-9.3,13.3-8.6
		C453.4,360.2,457.9,365.7,457.9,372.6z"
    />
  </g>
</svg>
