<?xml version="1.0" encoding="UTF-8" standalone="no"?>
<!-- Created with Keyshape -->
<svg xmlns="http://www.w3.org/2000/svg" xmlns:xlink="http://www.w3.org/1999/xlink" viewBox="0 0 548 1300" text-rendering="geometricPrecision" shape-rendering="geometricPrecision" style="white-space: pre;">
    <defs>
        <linearGradient id="Gradient-0" x1="-36.3794" y1="-4250.44" x2="-36.3794" y2="-4132.99" gradientUnits="userSpaceOnUse">
            <stop offset="0" stop-color="#ffffff"/>
            <stop offset="1" stop-color="#ffffff"/>
        </linearGradient>
    </defs>
    <!-- <rect width="551.507" height="1309.75" fill="#000000" stroke="none" transform="translate(264.361,509.839) translate(-266.99,-508.365)"/> -->
    <path id="_a0" class="cls-1" d="M-36.25,-4238.27L-35.9594,-4247.21C-35.9594,-4247.21,-21.281,-4250.44,-14.5288,-4250.44C-9.09569,-4250.44,-6.44621,-4246.33,-6.44621,-4240.89C-6.44621,-4240.89,-7.03871,-4223.43,-7.03871,-4189.22C-7.03871,-4171.89,-6.74805,-4149.58,-6.74805,-4149.58C-6.74805,-4147.35,-6.15555,-4145.47,-3.2266,-4145.18C-0.297638,-4144.89,5.58264,-4144.89,5.58264,-4144.89L5.58264,-4136.66C-2.54753,-4134.89,-10.7861,-4133.67,-19.0787,-4132.99L-24.0647,-4143.26C-30.2356,-4137.4,-37.2785,-4132.99,-48.1447,-4132.99C-64.444,-4133.14,-78.8317,-4146.5,-78.3286,-4171.75C-77.8927,-4198.47,-58.0719,-4211.54,-39.5703,-4211.54C-30.1797,-4211.54,-25.0373,-4208.45,-25.0373,-4208.45C-25.0373,-4208.45,-25.0373,-4222.4,-25.4844,-4237.52ZM-25.395,-4152.09L-25.0932,-4196.28C-25.0932,-4196.28,-28.7711,-4200.1,-37.7257,-4200.1C-50.347,-4200.1,-58.7203,-4191.44,-58.7203,-4172.5C-58.7203,-4157.23,-52.5493,-4145.48,-39.928,-4145.48C-34.3972,-4145.63,-29.1632,-4148.01,-25.4174,-4152.09Z" fill="url(#Gradient-0)" filter="blur(0px)" transform="translate(363.301,43.6136) translate(0,0) skewX(-43) scale(0.15,0.15) translate(2220.15,-1987.86)"/>
    <path id="D" class="cls-1" d="M-36.25,-4238.27L-35.9594,-4247.21C-35.9594,-4247.21,-21.281,-4250.44,-14.5288,-4250.44C-9.09569,-4250.44,-6.44621,-4246.33,-6.44621,-4240.89C-6.44621,-4240.89,-7.03871,-4223.43,-7.03871,-4189.22C-7.03871,-4171.89,-6.74805,-4149.58,-6.74805,-4149.58C-6.74805,-4147.35,-6.15555,-4145.47,-3.2266,-4145.18C-0.297638,-4144.89,5.58264,-4144.89,5.58264,-4144.89L5.58264,-4136.66C-2.54753,-4134.89,-10.7861,-4133.67,-19.0787,-4132.99L-24.0647,-4143.26C-30.2356,-4137.4,-37.2785,-4132.99,-48.1447,-4132.99C-64.444,-4133.14,-78.8317,-4146.5,-78.3286,-4171.75C-77.8927,-4198.47,-58.0719,-4211.54,-39.5703,-4211.54C-30.1797,-4211.54,-25.0373,-4208.45,-25.0373,-4208.45C-25.0373,-4208.45,-25.0373,-4222.4,-25.4844,-4237.52ZM-25.395,-4152.09L-25.0932,-4196.28C-25.0932,-4196.28,-28.7711,-4200.1,-37.7257,-4200.1C-50.347,-4200.1,-58.7203,-4191.44,-58.7203,-4172.5C-58.7203,-4157.23,-52.5493,-4145.48,-39.928,-4145.48C-34.3972,-4145.63,-29.1632,-4148.01,-25.4174,-4152.09Z" fill="#ffffff" filter="blur(0px) drop-shadow(0px 0px 0px rgba(0,0,0,0.50))" opacity="0" transform="translate(363.019,44.0299) translate(0,0) scale(0.15,0.15) translate(40.8057,4197.91)"/>
    <path id="N" class="cls-1" d="M-2304.88,1985.14L-2306.9,1985.02L-2306.86,1984.14C-2305.92,1983.89,-2304.96,1983.73,-2303.99,1983.65C-2303.19,1983.65,-2303.02,1984.07,-2303.02,1984.89L-2303.02,1985.45C-2301.93,1984.42,-2300.53,1983.8,-2299.04,1983.68C-2296.22,1983.43,-2295.07,1985.14,-2294.98,1987.61C-2294.98,1988.49,-2294.91,1990.16,-2295.02,1993.71C-2295.02,1994.16,-2294.94,1994.27,-2294.63,1994.31L-2293.27,1994.53L-2293.27,1995.42L-2298.59,1995.42L-2298.55,1994.53L-2297.28,1994.29C-2296.99,1994.25,-2296.83,1994.18,-2296.81,1993.84C-2296.67,1990.67,-2296.74,1988.89,-2296.81,1987.87C-2296.91,1985.92,-2297.74,1985.01,-2299.47,1985.14C-2300.77,1985.26,-2302.01,1985.78,-2303.02,1986.63C-2303.02,1986.63,-2303.08,1989.29,-2303.02,1993.73C-2303.02,1994.18,-2302.91,1994.28,-2302.6,1994.33L-2301.24,1994.55L-2301.29,1995.44L-2306.61,1995.44L-2306.61,1994.55L-2305.34,1994.31C-2305.01,1994.24,-2304.88,1994.18,-2304.88,1993.73C-2304.82,1988.8,-2304.88,1985.14,-2304.88,1985.14Z" fill="#ffffff" opacity="1" filter="blur(0px) drop-shadow(0px 0px 0px rgba(0,0,0,0.50))" transform="translate(350.89,48.4177) translate(0,0) translate(2299.22,-1990.3)"/>
    <path id="I" class="cls-1" d="M-2311.06,1990.65C-2311.06,1991.67,-2311.06,1993.89,-2311.06,1995.39C-2311.06,1995.7,-2310.93,1995.82,-2310.66,1995.83L-2309.31,1996.06L-2309.31,1996.94L-2314.62,1996.94L-2314.58,1996.06L-2313.31,1995.82C-2312.98,1995.75,-2312.83,1995.68,-2312.83,1995.23C-2312.83,1993.76,-2312.83,1992.16,-2312.83,1990.61C-2312.83,1988.72,-2312.91,1986.67,-2312.91,1986.67L-2314.93,1986.56L-2314.93,1985.67C-2313.99,1985.42,-2313.04,1985.26,-2312.07,1985.19C-2311.28,1985.19,-2311.1,1985.6,-2311.1,1986.42C-2311.1,1987.25,-2311.06,1989.48,-2311.06,1990.65ZM-2312.13,1980.8C-2311.82,1980.78,-2311.51,1980.89,-2311.29,1981.1C-2311.06,1981.3,-2310.92,1981.6,-2310.91,1981.9C-2310.9,1982.22,-2311.04,1982.52,-2311.27,1982.74C-2311.5,1982.95,-2311.81,1983.06,-2312.13,1983.04C-2312.44,1983.05,-2312.74,1982.94,-2312.97,1982.73C-2313.19,1982.51,-2313.32,1982.22,-2313.32,1981.9C-2313.32,1981.6,-2313.19,1981.3,-2312.96,1981.1C-2312.73,1980.89,-2312.43,1980.78,-2312.13,1980.8Z" fill="#ffffff" opacity="1" filter="blur(0px) drop-shadow(0px 0px 0px rgba(0,0,0,0.50))" transform="translate(339.479,44.5008) translate(0,0) translate(2311.76,-1987.81)"/>
    <path id="M" class="cls-1" d="M-2337.21,1990.33L-2339.28,1990.21L-2339.23,1989.33C-2338.27,1989.1,-2337.29,1988.94,-2336.3,1988.85C-2335.49,1988.85,-2335.3,1989.28,-2335.3,1990.08L-2335.3,1990.63C-2334.57,1989.52,-2333.31,1988.89,-2331.96,1988.89C-2329.81,1988.71,-2328.6,1989.54,-2328.1,1990.98C-2327.33,1989.71,-2325.93,1988.91,-2324.4,1988.89C-2321.51,1988.68,-2320.33,1990.2,-2320.24,1992.59C-2320.2,1993.46,-2320.17,1995.3,-2320.3,1998.98C-2320.28,1999.15,-2320.09,1999.32,-2319.88,1999.3L-2318.49,1999.49L-2318.53,2000.39L-2324.03,2000.39L-2323.94,1999.49L-2322.65,1999.26C-2322.35,1999.24,-2322.19,1999.15,-2322.16,1998.82C-2322.06,1995.59,-2322.16,1993.51,-2322.16,1992.85C-2322.16,1990.94,-2323.07,1990.25,-2324.89,1990.33C-2326.23,1990.49,-2327.37,1991.33,-2327.84,1992.53L-2327.84,1992.53C-2327.79,1993.45,-2327.77,1995.26,-2327.91,1998.93C-2327.88,1999.12,-2327.69,1999.26,-2327.47,1999.25L-2326.09,1999.47L-2326.14,2000.35L-2331.58,2000.35L-2331.49,1999.47L-2330.21,1999.24C-2329.91,1999.19,-2329.77,1999.12,-2329.72,1998.82C-2329.62,1995.64,-2329.66,1993.76,-2329.72,1992.83C-2329.79,1990.87,-2330.63,1990.14,-2332.45,1990.29C-2333.6,1990.29,-2334.67,1990.83,-2335.32,1991.75C-2335.32,1991.75,-2335.4,1994.34,-2335.32,1998.67C-2335.32,1999.12,-2335.21,1999.22,-2334.89,1999.26L-2333.51,1999.49L-2333.51,2000.35L-2339.03,2000.35L-2338.94,1999.49L-2337.64,1999.25C-2337.29,1999.19,-2337.16,1999.12,-2337.16,1998.67C-2337.14,1993.89,-2337.21,1990.33,-2337.21,1990.33Z" fill="#ffffff" opacity="1" filter="blur(0px) drop-shadow(0px 0px 0px rgba(0,0,0,0.50))" transform="translate(324.804,47.6785) translate(0,0) translate(2328.89,-1994.62)"/>
    <g id="GIRL" opacity="0" transform="translate(247.18,-251.594) translate(0,0) scale(0.75,0.75) translate(-125.427,-110.181)">
        <path d="M85.14,99.32C85.0026,98.7184,84.7661,98.1439,84.44,97.62C79,87.62,80.17,75.4,77,64.47C74.87,57.09,70.73,50.05,71,42.37C69.8097,45.9272,69.7191,49.7605,70.74,53.37C71.6,56.99,73.07,60.43,74.22,63.96C76.4169,70.2175,77.1256,76.9009,76.29,83.48C72.23,75.95,73.29,66.76,71.42,58.42C69.42,49.88,64.22,41.99,64.42,33.22C62.42,38.63,64.02,44.65,65.99,50.07C67.96,55.49,70.35,61,69.99,66.74C68.5,61.98,65.45,57.89,62.92,53.58C60.39,49.27,58.23,44.34,59,39.4C57.6466,40.2183,56.694,41.562,56.37,43.11C55.5677,39.8182,54.9798,36.4779,54.61,33.11C53.2809,37.3152,53.3511,41.838,54.81,46C52.4716,42.6504,51.0481,38.7485,50.68,34.68C49.5579,36.9525,49.3157,39.5597,50,42C48.1159,39.3784,47.0039,36.2814,46.79,33.06C45.5316,36.0826,45.6373,39.5009,47.08,42.44L38.83,30.49L41.65,44.41C40.2,44.58,39.38,42.87,38.76,41.56C37.5946,39.1412,35.6797,37.1632,33.3,35.92C34.9611,38.6598,36.132,41.6681,36.76,44.81L34,42.92C35,44.82,34.65,47.16,33.92,49.19C33.19,51.22,32.14,53.19,31.85,55.3C31.66,56.65,31.79,58.04,31.48,59.36C31.2743,60.7417,30.2557,61.863,28.9,62.2C28.4312,62.1902,27.9652,62.2752,27.53,62.45C27.179,62.7374,26.9444,63.1425,26.87,63.59C24.59,71.59,25.53,79.15,28.35,86.83C29.81,90.83,31.32,94.78,32.88,98.68C33.45,100.12,36.49,110.18,37.73,110.4L35.39,110L36.48,119.36C36.492,119.774,36.6127,120.177,36.83,120.53C37.2497,120.961,37.8033,121.236,38.4,121.31C41.8616,122.179,45.0084,124.005,47.48,126.58C49.6,128.81,51.48,131.72,54.48,132.41C57.28,133.07,60.22,131.51,63.06,131.99C65.12,132.33,66.92,133.72,68.99,133.99C73.19,134.53,76.69,129.99,76.55,125.77C76.3816,122.399,74.7121,119.28,72,117.27C69.2758,115.304,65.8963,114.469,62.57,114.94C68.8,109.1,78.28,107.61,84.23,101.49C84.6813,101.095,85.0079,100.577,85.17,100C85.2002,99.7733,85.19,99.5431,85.14,99.32Z" fill="#5d5d5d" transform="translate(29.8033,51.7719) translate(-55.3895,-82.2619)"/>
        <path class="cls-6" d="M97.19,148.43C97.0171,147.263,96.7462,146.112,96.38,144.99C96.0404,143.795,95.2227,142.793,94.12,142.22C93.2,141.77,92.25,141.49,91.3,141.11C90.72,140.88,90.1,140.84,89.53,140.59C88.96,140.34,88.47,140.06,87.91,139.83C86.5875,139.246,85.3332,138.518,84.17,137.66C83.36,137.09,82.78,136.33,82,135.74L81.66,135.91C80.622,135.077,79.466,134.403,78.23,133.91C77,133.31,75.78,132.73,74.52,132.19C73.26,131.65,71.74,131.11,70.4,130.44C69.48,129.98,68.53,129.58,67.63,129.11C67.1,128.84,66.51,128.8,65.99,128.52C65.47,128.24,65.06,128.19,64.6,127.97C64.1555,127.69,63.6451,127.531,63.12,127.51C62.87,127.81,63.32,128.63,63.38,128.95C63.774,130.739,63.8552,132.583,63.62,134.4C63.38,135.8,62.83,137.12,62.62,138.52C62.54,139.07,62.48,141.78,61.62,141.76C61.88,141.76,62.06,141.76,62.1,141.85C62.49,142.44,65.3,140.99,65.99,141.19C66.41,141.31,65.61,143.19,65.99,143.5C66.37,143.81,67.29,144.07,67.57,144.4C68.1,145.02,69.04,143.89,69.36,144.63C69.8687,145.811,70.4917,146.94,71.22,148C71.9276,148.979,72.569,150.005,73.14,151.07C73.61,152.02,73.97,152.93,74.53,153.83C75.8058,155.672,77.4049,157.268,79.25,158.54C80.5725,159.721,82.1609,160.565,83.88,161C84.6518,161.07,85.4296,161.03,86.19,160.88C87.2003,160.754,88.2021,160.567,89.19,160.32C90.9127,159.906,92.5326,159.143,93.95,158.08C95.4769,157.094,96.6257,155.621,97.21,153.9C97.5979,152.097,97.5911,150.231,97.19,148.43Z" fill="#999" transform="translate(53.9718,113.782) translate(-79.558,-144.272)"/>
        <path class="cls-7" d="M90.68,141.34C91.87,139.47,93.68,138.34,95.26,136.81C99.26,132.997,103.26,129.207,107.26,125.44C109.64,123.21,112.14,121.13,114.65,119.07C118.474,115.939,121.873,112.322,124.76,108.31C128.08,103.67,131.63,99.19,134.98,94.56C137.099,91.7179,139.027,88.738,140.75,85.64C141.612,83.7317,142.065,81.664,142.08,79.57C142.214,76.4154,142.776,73.2935,143.75,70.29C144.031,69.2062,144.205,68.0976,144.27,66.98C144.27,66.66,144.27,66.34,144.32,65.98C145.32,64.14,146.39,62.31,147.42,60.48L150.81,56.57C151.446,56.257,151.916,55.6848,152.1,55L153.32,55.28L153.38,55.61C153.551,57.0587,152.997,58.4986,151.9,59.46C150.9,60.32,150.96,61.81,150.34,62.93C150.275,63.1215,150.313,63.3328,150.44,63.49C150.55,63.57,150.83,63.49,150.99,63.42C152.7,62.42,154.44,61.54,156.1,60.5C157.37,59.7,158.46,60.03,158.61,61.4L158.34,61.74C157.658,62.9434,156.671,63.9468,155.48,64.65C153.97,65.58,152.93,66.99,151.62,68.12C151.181,68.4412,150.903,68.9377,150.86,69.48C150.86,71.48,150.23,73.4,149.92,75.35C149.82,75.97,149.53,76.8,150.3,77.25C151.07,77.7,151.63,77.2,152.22,76.71C153.785,75.3937,155.639,74.4652,157.63,74C158.27,73.86,158.95,73.81,159.34,74.39C159.73,74.97,159.22,75.53,158.83,75.93C157.119,77.5057,155.496,79.1749,153.97,80.93C149.996,85.814,146.672,91.1921,144.08,96.93C141.779,101.956,139.195,106.847,136.34,111.58C134.59,114.67,132.85,117.78,131.25,120.96C129.352,124.377,127.045,127.551,124.38,130.41C118.861,136.949,112.759,142.974,106.15,148.41L102.65,151.27C102.391,151.454,102.184,151.702,102.05,151.99C101.5,151.51,100.8,151.19,100.28,150.67C99.76,150.15,99.02,149.3,98.36,148.67C97.14,147.47,95.94,146.26,94.74,145.03C93.54,143.8,91.63,143,90.68,141.34Z" fill="#b3b3b3" transform="translate(99.4938,73.005) translate(-125.08,-103.495)"/>
        <path class="cls-7" d="M92.72,119.45C92.72,119.45,92.72,119.45,92.72,119.39C92.72,119.01,92.72,118.63,92.79,118.24C93.0234,114.467,92.1063,110.711,90.16,107.47C89.4976,106.855,89.0315,106.059,88.82,105.18C88.5271,103.991,88.3332,102.781,88.24,101.56C88.0857,100.663,87.676,99.8298,87.06,99.16C86.3671,98.543,85.722,97.8744,85.13,97.16C84.723,96.7504,84.3454,96.3127,84,95.85C83.7203,95.4142,83.384,95.0174,83,94.67C82.31,93.91,81.61,93.16,80.91,92.42C80.72,92.29,80.53,92.15,80.36,92.01L80.01,91.5C79.8656,91.3159,79.705,91.1453,79.53,90.99C79.1049,90.5537,78.6395,90.1586,78.14,89.81C76.55,88.81,72.45,87.01,70.5,87.21C64.95,87.77,61.5,90.29,58.84,95.91C58.0381,97.3556,57.317,98.8445,56.68,100.37C56.46,101,56.16,101.58,55.95,102.22C55.74,102.86,55.68,103.51,55.45,104.13C55.1704,104.792,55.021,105.502,55.01,106.22C55.01,107.69,54.84,109.13,54.86,110.61C54.8888,111.848,54.9923,113.084,55.17,114.31C55.28,115.17,55.7,115.95,55.84,116.81C55.846,117.171,55.7297,117.523,55.51,117.81C57.517,119.964,59.1223,122.46,60.25,125.18C60.75,126.27,63.16,127.7,64.06,128.6C65.1842,129.874,66.3973,131.067,67.69,132.17L68.28,132.58C72.85,135.58,87.07,139.28,90.35,133.18C91.35,131.38,92.28,129.52,92.13,127.53C92.0973,127.161,92.1277,126.789,92.22,126.43C92.0887,124.676,92.1457,122.912,92.39,121.17C92.51,120.63,92.61,120,92.72,119.45Z" fill="#b3b3b3" transform="translate(48.2558,81.342) translate(-73.842,-111.832)"/>
        <path class="cls-8" d="M89.06,122.36L87.88,123.69C88.1412,123.145,88.55,122.684,89.06,122.36Z" fill="#adadad" transform="translate(62.8838,92.535) translate(-88.47,-123.025)"/>
        <path class="cls-9" d="M68.56,113.14C68.56,113.08,68.56,113.06,68.63,113.02C68.6422,112.975,68.659,112.932,68.68,112.89C68.79,112.66,68.9,112.43,69,112.19L69.18,111.74C69.2466,111.579,69.3234,111.422,69.41,111.27C69.6052,111.021,69.7635,110.744,69.88,110.45C69.9403,110.303,70.0211,110.165,70.12,110.04C70.21,109.92,70.29,109.79,70.38,109.66C70.6432,109.194,71.0658,108.839,71.57,108.66C71.68,108.616,71.7938,108.583,71.91,108.56L72.19,108.49C72.4317,108.427,72.6802,108.393,72.93,108.39L73.25,108.39C73.3887,108.399,73.5261,108.422,73.66,108.46L74.02,108.53C74.0832,108.525,74.1468,108.525,74.21,108.53L74.41,108.65C74.4931,108.687,74.5733,108.731,74.65,108.78L74.82,108.88L75.12,109.05L75.42,109.25C75.42,109.25,75.54,109.25,75.59,109.32L75.69,109.39C75.77,109.45,75.86,109.49,75.91,109.59L75.91,109.59C74.8505,110.771,73.6162,111.783,72.25,112.59L71.88,112.71C71.7431,112.766,71.6029,112.812,71.46,112.85C71.3278,112.874,71.1974,112.907,71.07,112.95C70.9065,112.995,70.7391,113.025,70.57,113.04L70.23,113.04C70.1,113.04,69.97,113.11,69.84,113.13L69.53,113.13C69.4468,113.124,69.3632,113.124,69.28,113.13C69.0183,113.153,68.7547,113.116,68.51,113.02Z" fill="#c6c6c6" transform="translate(46.6238,80.275) translate(-72.21,-110.765)"/>
        <path class="cls-10" d="M72.51,108.57L72.31,108.57C72.2303,108.56,72.1497,108.56,72.07,108.57C71.924,108.604,71.7804,108.648,71.64,108.7C71.4913,108.782,71.3617,108.894,71.26,109.03C71.2144,109.125,71.1841,109.226,71.17,109.33C71.1559,109.426,71.1559,109.524,71.17,109.62C71.2246,109.804,71.3055,109.979,71.41,110.14C71.4539,110.226,71.5076,110.306,71.57,110.38C71.6024,110.418,71.6324,110.458,71.66,110.5C71.6958,110.527,71.7292,110.557,71.76,110.59C72.22,111.19,72.76,111.91,73.64,111.64L73.73,111.59L73.83,111.59L73.91,111.59C73.9565,111.585,74.0035,111.585,74.05,111.59C74.1945,111.553,74.326,111.477,74.43,111.37C74.43,111.31,74.5,111.24,74.55,111.17C74.6217,111.067,74.6821,110.956,74.73,110.84C74.7552,110.725,74.7552,110.605,74.73,110.49C74.7206,110.365,74.7005,110.241,74.67,110.12C74.6118,109.914,74.5278,109.715,74.42,109.53L74.32,109.33C74.3027,109.287,74.2791,109.246,74.25,109.21C74.2021,109.145,74.1485,109.085,74.09,109.03C74.0102,108.953,73.9191,108.889,73.82,108.84C73.7253,108.78,73.6248,108.73,73.52,108.69C73.39,108.69,73.27,108.69,73.14,108.69C73.0372,108.675,72.9328,108.675,72.83,108.69C72.602,108.698,72.3748,108.721,72.15,108.76C72.07,108.76,71.99,108.76,71.91,108.76L71.76,108.76C71.664,108.797,71.5704,108.841,71.48,108.89" fill="#8d8d8d" transform="translate(47.368,79.641) translate(-72.9542,-110.131)"/>
        <path class="cls-11" d="M73.67,108.87C73.37,108.63,72.73,108.49,72.49,108.87C72.4047,109.12,72.4047,109.39,72.49,109.64C72.5231,109.91,72.6879,110.146,72.93,110.27C73.2268,110.399,73.5592,110.42,73.87,110.33C73.9847,110.279,74.0591,110.166,74.06,110.04C74.1332,109.609,73.9869,109.171,73.67,108.87Z" fill="#333" transform="translate(47.6661,79.02) translate(-73.2523,-109.51)"/>
        <path d="M68.54,112.77C68.54,112.21,68.61,111.66,68.64,111.11C68.7361,110.149,69.2293,109.273,70.0003,108.691C70.7713,108.11,71.75,107.878,72.7,108.05C73.3888,108.151,74.0612,108.343,74.7,108.62C74.8391,108.661,74.9594,108.749,75.04,108.87C74.9474,108.832,74.8496,108.809,74.75,108.8C74.3854,108.584,73.9618,108.49,73.54,108.53C73.0144,108.563,72.4926,108.639,71.98,108.76C71.1481,109.004,70.4991,109.657,70.26,110.49C70.0743,110.857,69.9268,111.243,69.82,111.64C69.6508,112.172,69.3313,112.645,68.9,113L68.9,113C68.7676,113.103,68.6585,113.232,68.58,113.38C68.594,113.176,68.5805,112.971,68.54,112.77Z" transform="translate(46.2038,80.197) translate(-71.79,-110.687)"/>
        <path d="M75,108.88C74.9193,108.881,74.8397,108.861,74.77,108.82C74.6964,108.788,74.6192,108.764,74.54,108.75C74.395,108.717,74.2481,108.694,74.1,108.68C73.968,108.66,73.8376,108.629,73.71,108.59C73.5635,108.58,73.4165,108.58,73.27,108.59C73.1089,108.6,72.9486,108.62,72.79,108.65C72.6124,108.66,72.4354,108.68,72.26,108.71C71.8891,108.763,71.5416,108.923,71.26,109.17C71,109.44,70.79,109.76,70.55,110.04C70.4755,110.122,70.4117,110.212,70.36,110.31C70.2942,110.39,70.2372,110.477,70.19,110.57C70.1676,110.675,70.1233,110.774,70.06,110.86C69.9783,110.973,69.908,111.093,69.85,111.22C69.74,111.45,69.58,111.64,69.45,111.86C69.32,112.08,69.29,112.2,69.18,112.36C69.096,112.498,68.9914,112.623,68.87,112.73C68.74,112.83,68.67,112.99,68.53,113.07C68.79,112.91,68.84,112.51,69,112.27C69.1284,112.065,69.2357,111.847,69.32,111.62C69.38,111.47,69.48,111.33,69.55,111.18C69.7521,110.772,69.9861,110.381,70.25,110.01C70.4,109.81,70.56,109.62,70.7,109.42C70.8123,109.28,70.9518,109.165,71.11,109.08C71.4079,108.889,71.7187,108.718,72.04,108.57C72.1876,108.535,72.3383,108.515,72.49,108.51L73.23,108.43C73.4154,108.42,73.6012,108.44,73.78,108.49C73.9831,108.522,74.1836,108.569,74.38,108.63C74.5314,108.72,74.6884,108.8,74.85,108.87C74.92,108.87,75,108.87,75.08,108.94C75.16,109.01,75.25,109.07,75.33,108.94" transform="translate(46.3438,80.259) translate(-71.93,-110.749)"/>
        <path d="M72.36,108.49L72.87,108.42L72.98,108.42L73.38,108.42L74.5,108.57L74.62,108.57C74.77,108.71,74.92,108.85,75.07,108.97L74.9,108.97C74.6708,108.895,74.437,108.835,74.2,108.79C73.87,108.72,73.53,108.66,73.2,108.62L72.52,108.55C72.4,108.55,72.27,108.55,72.15,108.55Z" transform="translate(48.0238,78.205) translate(-73.61,-108.695)"/>
        <path d="M70,110.88C70.0203,110.949,70.0203,111.021,70,111.09C70,111.2,69.93,111.31,69.89,111.41C69.85,111.51,69.76,111.79,69.68,111.97L69.54,112.24C69.54,112.32,69.46,112.41,69.41,112.49C69.3246,112.645,69.2167,112.786,69.09,112.91C69.03,112.98,68.96,113.04,68.89,113.11L68.7,113.27C68.6141,113.338,68.5201,113.395,68.42,113.44L68.32,113.44L68.26,113.44C68.26,113.44,68.26,113.32,68.26,113.29L68.26,113.21C68.2641,113.187,68.2641,113.163,68.26,113.14C68.2557,113.117,68.2557,113.093,68.26,113.07C68.26,113.07,68.26,113.07,68.26,113.07L68.26,113.07L68.32,113.07C68.32,113.07,68.32,113.07,68.39,113.07C68.46,113.07,68.39,113.07,68.39,113.07C68.4319,113.025,68.4789,112.985,68.53,112.95C68.602,112.875,68.6688,112.794,68.73,112.71C68.8154,112.613,68.8923,112.51,68.96,112.4C69.09,112.17,69.18,111.92,69.3,111.68L69.51,111.26C69.51,111.16,69.6,111.06,69.64,110.96C69.6539,110.911,69.674,110.864,69.7,110.82C69.7209,110.788,69.7443,110.758,69.77,110.73L69.83,110.66L69.9,110.57L70.05,110.41L70.16,110.25L70.07,110.48C70.01,110.61,69.95,110.74,69.9,110.87L69.77,111.23C69.767,111.283,69.767,111.337,69.77,111.39C69.7661,111.463,69.7661,111.537,69.77,111.61" transform="translate(43.6222,81.355) translate(-69.2084,-111.845)"/>
        <path class="cls-6" d="M82.82,100.14C82.835,100.353,82.835,100.567,82.82,100.78C82.82,101.1,82.82,101.42,82.76,101.78C82.68,102.37,82.76,102.98,82.69,103.58C82.6801,103.71,82.6801,103.84,82.69,103.97C82.69,104.15,82.69,104.33,82.69,104.51C82.69,104.69,82.77,105.14,82.8,105.45L82.89,106.29C82.89,106.38,82.89,106.86,83,106.87C83.11,106.88,83.08,106.57,83.13,106.44C83.18,106.31,83.2,106.3,83.23,106.22C83.2472,106.14,83.2741,106.063,83.31,105.99C83.4263,105.809,83.5331,105.622,83.63,105.43C83.7891,105.152,83.9662,104.885,84.16,104.63C84.42,104.28,84.7,103.96,84.94,103.63C85.0598,103.462,85.2048,103.314,85.37,103.19C85.4919,103.077,85.6346,102.989,85.79,102.93C85.9211,102.875,86.0689,102.875,86.2,102.93C86.3457,102.952,86.4873,102.996,86.62,103.06C86.7597,103.131,86.8906,103.218,87.01,103.32C87.1077,103.391,87.2012,103.468,87.29,103.55C87.3411,103.624,87.3979,103.695,87.46,103.76C87.7212,103.974,87.9592,104.216,88.17,104.48C88.24,104.6,88.33,104.7,88.4,104.82C88.47,104.94,88.56,105.07,88.65,105.1C88.6576,104.945,88.6407,104.79,88.6,104.64C88.5723,104.449,88.5254,104.261,88.46,104.08C88.46,103.98,88.46,103.87,88.46,103.77C88.419,103.64,88.3922,103.506,88.38,103.37C88.38,103.16,88.29,102.96,88.27,102.75C88.2552,102.607,88.2552,102.463,88.27,102.32C88.2802,102.14,88.2802,101.96,88.27,101.78L88.21,101.24C88.21,101.13,88.21,101.01,88.21,100.9C88.21,100.79,88.13,100.71,88.1,100.61C87.9777,100.222,87.7491,99.8751,87.44,99.61C87.27,99.45,87.08,99.52,86.87,99.54C86.48,99.54,86.1,99.63,85.72,99.71C85.5246,99.7468,85.3336,99.8037,85.15,99.88C84.8259,99.9779,84.514,100.112,84.22,100.28C84,100.42,83.76,100.55,83.54,100.7C83.4747,100.765,83.4146,100.836,83.36,100.91C83.2766,100.965,83.2134,101.046,83.18,101.14" fill="#999" transform="translate(60.081,72.699) translate(-85.6672,-103.189)"/>
        <path class="cls-9" d="M85,106.06C84.7392,106.094,84.4839,106.162,84.24,106.26C84.0789,106.295,83.9149,106.315,83.75,106.32L83.41,106.32C83.312,106.303,83.2152,106.279,83.12,106.25L83.12,106.12L83.42,105.76C83.53,105.63,83.65,105.52,83.77,105.4C83.89,105.28,84.11,104.97,84.29,104.76C84.35,104.688,84.4035,104.611,84.45,104.53C84.5251,104.43,84.6088,104.336,84.7,104.25C84.7918,104.13,84.892,104.016,85,103.91C85.1546,103.775,85.3261,103.661,85.51,103.57C85.9646,103.284,86.4708,103.091,87,103C87.1029,102.96,87.2171,102.96,87.32,103C87.39,103,87.41,103.09,87.46,103.14C87.51,103.19,87.72,103.42,87.86,103.55C87.9489,103.657,88.0291,103.77,88.1,103.89L88.32,104.22C88.3723,104.277,88.4161,104.341,88.45,104.41C88.45,104.48,88.53,104.55,88.56,104.62C88.59,104.69,88.56,104.71,88.56,104.76L88.56,104.76C87.4915,105.466,86.2721,105.911,85,106.06Z" fill="#c6c6c6" transform="translate(60.2605,74.155) translate(-85.8467,-104.645)"/>
        <path class="cls-10" d="M84.86,104C84.9803,104.286,85.142,104.552,85.34,104.79C85.5961,105.092,85.9043,105.346,86.25,105.54C86.3259,105.579,86.3993,105.622,86.47,105.67C86.5832,105.747,86.7137,105.795,86.85,105.81C87.1048,105.861,87.3688,105.837,87.61,105.74C87.7343,105.696,87.8521,105.636,87.96,105.56C88.08,105.44,88.01,105.23,87.96,105.1C87.91,104.97,87.9,104.74,87.86,104.56C87.8186,104.391,87.7512,104.229,87.66,104.08C87.5676,103.708,87.2867,103.412,86.92,103.3C86.7001,103.217,86.4631,103.19,86.23,103.22C86.0103,103.249,85.7991,103.324,85.61,103.44C85.4101,103.52,85.2244,103.631,85.06,103.77C84.9228,103.881,84.8075,104.017,84.72,104.17" fill="#8d8d8d" transform="translate(60.7869,74.032) translate(-86.3731,-104.522)"/>
        <path class="cls-11" d="M86.27,103.55C86.13,103.55,86.02,103.99,86.01,104.11C86.0512,104.327,86.1476,104.531,86.29,104.7C86.3973,104.821,86.5306,104.917,86.68,104.98C86.8375,105.085,87.0425,105.085,87.2,104.98C87.6,104.77,87.38,104.35,87.2,104.08C87.02,103.81,87.05,103.86,86.93,103.71C86.8728,103.633,86.7921,103.577,86.7,103.55C86.6077,103.53,86.5123,103.53,86.42,103.55Z" fill="#333" transform="translate(61.1312,73.807) translate(-86.7174,-104.297)"/>
        <path d="M85.31,103.82L85.31,103.87L85.23,103.96L85.23,103.96C85.1577,104.053,85.0909,104.149,85.03,104.25L84.72,104.61C84.161,104.947,83.7018,105.427,83.39,106C83.3008,106.012,83.2172,106.05,83.15,106.11C83.155,106.037,83.155,105.963,83.15,105.89C83.1402,105.8,83.1402,105.71,83.15,105.62C83.1549,105.543,83.1549,105.467,83.15,105.39C83.15,105.19,83.24,104.99,83.28,104.78C83.32,104.57,83.28,104.4,83.36,104.22C83.44,104.04,83.47,103.89,83.53,103.72C83.5931,103.536,83.6916,103.366,83.82,103.22L84.13,102.87C84.2189,102.753,84.3409,102.666,84.48,102.62L84.63,102.62L84.79,102.56L85.19,102.43C85.3356,102.405,85.4844,102.405,85.63,102.43C85.7266,102.424,85.8234,102.424,85.92,102.43C85.9804,102.443,86.038,102.467,86.09,102.5L86.44,102.67L86.61,102.78L86.8,102.85C86.851,102.89,86.9044,102.927,86.96,102.96C87.0214,102.98,87.0789,103.01,87.13,103.05C87.2238,103.142,87.3279,103.222,87.44,103.29C87.53,103.29,87.72,103.41,87.75,103.51C87.78,103.61,87.45,103.43,87.4,103.41C87.35,103.39,87.19,103.3,87.07,103.27C86.9287,103.221,86.7792,103.201,86.63,103.21C86.5637,103.2,86.4963,103.2,86.43,103.21L86.27,103.21C86.1869,103.231,86.1065,103.261,86.03,103.3L85.74,103.45C85.6253,103.506,85.5205,103.58,85.43,103.67Z" transform="translate(59.8611,73.771) translate(-85.4473,-104.261)"/>
        <path class="cls-12" d="M87,102.8L87,102.8Z" fill="gray" transform="translate(61.4138,72.31) translate(-87,-102.8)"/>
        <path d="M87,103.42C86.6652,103.383,86.3265,103.407,86,103.49C85.8805,103.49,85.7657,103.537,85.68,103.62L85.68,103.62C85.449,103.729,85.2645,103.917,85.16,104.15L84.72,104.64L84.84,104.43C84.94,104.27,85.06,104.12,85.17,103.97C85.2932,103.799,85.4304,103.638,85.58,103.49C85.7178,103.378,85.865,103.277,86.02,103.19C86.3205,102.99,86.6623,102.86,87.02,102.81C87.27,102.81,87.44,102.99,87.62,103.14L87.62,103.14C87.7468,103.232,87.8671,103.332,87.98,103.44C88.0447,103.514,88.0894,103.604,88.11,103.7C88.11,103.58,87.51,103.48,87.39,103.45Z" transform="translate(60.8288,73.235) translate(-86.415,-103.725)"/>
        <path class="cls-13" d="M77.39,91.47C75.5275,89.7507,73.4339,88.3001,71.17,87.16C72.17,87.22,73.17,87.3,74.17,87.38C75.3631,87.4237,76.5399,87.6706,77.65,88.11C79.38,88.92,80.46,90.43,81.65,91.84L86.18,97.07C86.69,97.65,87.42,98.77,87.04,99.16C86.9,99.3,86.68,99.88,86.52,99.99C86.36,100.1,85.61,99.37,85.62,99.56C85.46,99.83,85.36,101.5,85.13,101.71C84.9,101.92,83.21,101.39,83.13,101.49C82.92,101.32,83.03,100.31,82.82,100.14C82.61,99.97,82.41,98.93,82.31,98.8C81.4,95.64,79.8,93.76,77.39,91.47Z" fill="#9a9a9a" transform="translate(53.5716,63.9698) translate(-79.1578,-94.4598)"/>
        <path d="M64.29,109.36C64.29,109.29,64.29,109.22,64.29,109.16C64.29,109.1,64.23,108.92,64.29,108.78C64.5488,108.047,64.884,107.343,65.29,106.68C65.4634,106.387,65.679,106.12,65.93,105.89C66.21,105.63,66.53,105.4,66.78,105.12C67.1258,104.767,67.5079,104.452,67.92,104.18C68.33,103.88,68.74,103.52,69.18,103.26C69.5177,103.059,69.9073,102.961,70.3,102.98L70.53,102.98C70.53,102.98,70.53,102.98,70.53,103.05C70.6671,103.527,70.8514,103.989,71.08,104.43L70.95,104.53C70.7237,104.715,70.45,104.833,70.16,104.87L69.16,105C68.8555,105.054,68.5595,105.148,68.28,105.28C67.9207,105.446,67.5845,105.657,67.28,105.91C67.1416,106.002,67.0112,106.106,66.89,106.22C66.77,106.34,66.68,106.47,66.57,106.59C66.2944,106.825,66.061,107.106,65.88,107.42C65.6993,107.745,65.5358,108.078,65.39,108.42C65.2555,108.786,65.0916,109.14,64.9,109.48C64.9,109.57,64.73,109.88,64.61,109.9C64.49,109.92,64.44,109.77,64.4,109.72C64.3158,109.62,64.2761,109.49,64.29,109.36Z" transform="translate(42.0855,75.95) translate(-67.6717,-106.44)"/>
        <path d="M71.45,104.33C71.45,104.14,71.34,103.95,71.29,103.75C71.24,103.55,71.29,103.61,71.23,103.54C71.1143,103.392,70.9718,103.266,70.81,103.17C70.6762,103.055,70.536,102.949,70.39,102.85C70.33,102.85,70.12,102.72,70.06,102.79C70,102.86,70.16,102.99,70.21,103.05C70.2547,103.127,70.2547,103.223,70.21,103.3C70.15,103.3,70.07,103.3,70.02,103.24C69.9459,103.191,69.8586,103.167,69.77,103.17C69.6903,103.16,69.6097,103.16,69.53,103.17C69.5082,103.198,69.481,103.222,69.45,103.24L69.31,103.3C69.2554,103.34,69.1946,103.37,69.13,103.39C69.13,103.39,68.95,103.39,68.97,103.49C68.99,103.59,69.29,103.49,69.31,103.64C69.33,103.79,69.1,103.64,69.01,103.64C68.92,103.64,68.78,103.64,68.66,103.7C68.4731,103.731,68.2891,103.778,68.11,103.84C67.97,103.84,67.74,103.96,67.67,104.08C67.6,104.2,67.8,104.2,67.92,104.24C68.04,104.28,68.04,104.29,68.02,104.35C68,104.41,67.84,104.41,67.79,104.43C67.6197,104.459,67.4546,104.513,67.3,104.59C67.1487,104.669,67.0076,104.767,66.88,104.88C66.8,104.96,66.48,105.24,66.54,105.34L66.74,105.34L66.91,105.34C66.98,105.34,67.13,105.34,67.18,105.34C67.23,105.34,66.79,105.48,66.65,105.52C66.403,105.569,66.1662,105.661,65.95,105.79C65.83,105.88,65.79,106.01,65.95,106.02L66.26,106.02C66.4657,105.979,66.6644,105.908,66.85,105.81L68.51,105.13L69.61,104.64C69.7,104.64,69.98,104.53,69.98,104.42" transform="translate(43.061,73.905) translate(-68.6472,-104.395)"/>
        <path d="M66.68,105.38L66.34,105.47C66.2405,105.494,66.1434,105.528,66.05,105.57L65.83,105.7C65.77,105.7,65.67,105.81,65.68,105.88C65.69,105.95,66.05,105.72,66.1,105.88C66.15,106.04,65.96,105.98,65.92,106.02C65.8324,106.081,65.7488,106.148,65.67,106.22C65.54,106.31,65.4,106.38,65.28,106.48C65.1582,106.57,65.0475,106.674,64.95,106.79L64.79,106.99C64.79,106.99,64.71,107.09,64.79,107.1C64.87,107.11,64.95,107.04,65,107.02C65.0731,106.984,65.1504,106.957,65.23,106.94C65.2347,106.96,65.2347,106.98,65.23,107C65.1759,107.043,65.1287,107.093,65.09,107.15C65,107.27,64.92,107.4,64.84,107.52C64.7726,107.619,64.7124,107.722,64.66,107.83C64.6166,107.879,64.5857,107.937,64.57,108C64.64,108,64.74,107.88,64.78,107.84C64.8601,107.781,64.9308,107.71,64.99,107.63L64.85,107.84C64.7701,107.949,64.703,108.066,64.65,108.19C64.65,108.27,64.56,108.35,64.53,108.43C64.5,108.51,64.46,108.55,64.53,108.58C64.6,108.61,64.66,108.46,64.72,108.42C64.7007,108.469,64.6773,108.515,64.65,108.56L64.56,108.79C64.5212,108.87,64.491,108.954,64.47,109.04C64.47,109.04,64.41,109.16,64.47,109.2C64.53,109.24,64.56,109.13,64.6,109.09C64.64,109.05,64.6,109.09,64.68,109.02L64.68,109.02C64.6997,109.209,64.6997,109.401,64.68,109.59C64.68,109.65,64.68,109.82,64.68,109.87C64.7352,109.776,64.7661,109.669,64.77,109.56C64.7831,109.478,64.8138,109.399,64.86,109.33" transform="translate(39.9755,77.135) translate(-65.5617,-107.625)"/>
        <path d="M85.48,98C85.131,97.8952,84.759,97.8952,84.41,98C84.1642,98.1652,83.981,98.4082,83.89,98.69C83.81,98.83,83.51,99.26,83.6,99.45C83.69,99.64,84.44,99.74,84.68,99.71C84.92,99.68,85.04,99.71,85.21,99.71C85.4352,99.6522,85.6678,99.6286,85.9,99.64C86.2411,99.6982,86.576,99.7886,86.9,99.91C87.2424,100.07,87.5359,100.319,87.75,100.63C87.9,100.9,87.83,101.35,88.12,101.54C88.44,101.54,88.48,100.54,88.45,100.28C88.39,99.88,88.32,99.28,87.86,99.08C87.395,98.8643,86.9091,98.6967,86.41,98.58C86.1509,98.4896,85.8872,98.4128,85.62,98.35C85.3485,98.2841,85.0674,98.2672,84.79,98.3" transform="translate(60.4346,69.2407) translate(-86.0208,-99.7307)"/>
        <path d="M85,98.43C85.0665,98.3219,85.1594,98.2324,85.27,98.17L85.67,98.02C85.84,97.95,86.22,97.7,86.38,97.92C86.38,97.92,86.25,97.99,86.2,98.02L86.03,98.15C85.9118,98.2278,85.8154,98.3345,85.75,98.46C85.84,98.46,85.92,98.38,86.01,98.36L86.4,98.27C86.51,98.27,86.78,98.27,86.86,98.35C86.94,98.43,86.72,98.42,86.66,98.47C86.6,98.52,86.5,98.57,86.48,98.62C86.46,98.67,86.66,98.62,86.74,98.62L87.13,98.62C87.21,98.62,87.56,98.62,87.55,98.78C87.4042,98.8167,87.2633,98.8704,87.13,98.94C87.0732,98.9835,87.0256,99.0379,86.99,99.1" transform="translate(60.6889,67.9757) translate(-86.2751,-98.4657)"/>
        <path class="cls-14" d="M89.73,120.16C89.6714,120.142,89.6086,120.142,89.55,120.16C89.32,120.28,89.2,120.53,88.99,120.69C88.5533,120.968,88.0682,121.161,87.56,121.26C87.0612,121.335,86.599,121.566,86.24,121.92C86.12,122.1,86.13,122.5,86,122.72C85.74,123.17,85.35,123.26,85,123.55C84.554,123.913,84.1807,124.358,83.9,124.86C85.4,124.69,84.71,124.43,85.23,124.35C85.37,124.16,85.51,123.97,85.63,123.84C86.1457,123.279,86.7963,122.859,87.52,122.62C88.1313,122.45,88.7295,122.236,89.31,121.98C89.82,121.71,90.09,121.83,90.2,121.07C90.25,120.88,90.25,120.68,90.2,120.49C90.116,120.302,89.9354,120.175,89.73,120.16Z" fill="#747474" transform="translate(61.4826,92.013) translate(-87.0688,-122.503)"/>
        <path class="cls-14" d="M86,124.5C86.4202,124.535,86.8338,124.626,87.23,124.77C87.58,124.85,87.92,125.01,88.23,125.12C88.54,125.23,88.79,125.3,89.06,125.41C89.2992,125.534,89.5297,125.675,89.75,125.83C89.89,125.905,90.0048,126.02,90.08,126.16C90.19,126.38,89.96,126.34,89.8,126.37C89.64,126.4,89.32,126.57,89.07,126.62C88.8316,126.66,88.5884,126.66,88.35,126.62C87.8352,126.565,87.3395,126.394,86.9,126.12L86.28,125.77C86.1,125.67,85.9,125.61,85.72,125.51L84.83,124.98C84.6926,124.894,84.5651,124.794,84.45,124.68C84.3302,124.599,84.2253,124.497,84.14,124.38C84.29,124.32,84.48,124.44,84.62,124.48C84.7562,124.495,84.8938,124.495,85.03,124.48C85.2209,124.47,85.4112,124.45,85.6,124.42C85.705,124.41,85.8088,124.39,85.91,124.36C86.0753,124.33,86.2447,124.33,86.41,124.36C86.51,124.36,86.54,124.36,86.64,124.36C86.74,124.36,86.77,124.5,86.94,124.47" fill="#747474" transform="translate(61.5382,95.004) translate(-87.1244,-125.494)"/>
        <path class="cls-14" d="M81.5,104.45C82.07,106.88,83.6,108.68,85.29,110.45C86.2388,111.333,87.0903,112.316,87.83,113.38C88.57,114.6,86.42,115.77,85.54,116.15C85.23,116.29,85.54,116.75,85.82,116.62C86.82,116.17,88.2,115.36,88.49,114.18C88.5847,113.684,88.4317,113.173,88.08,112.81C87.66,112.24,87.2,111.7,86.73,111.18C84.8,109.08,82.73,107.18,82.02,104.32C81.94,103.98,81.42,104.12,81.5,104.46Z" fill="#747474" transform="translate(59.4184,79.894) translate(-85.0046,-110.384)"/>
        <path class="cls-7" d="M57.08,116.8C57.02,116.06,56.59,115.8,56.36,115.33C55.9686,114.582,55.3179,114.003,54.53,113.7C53.7697,113.404,52.9778,113.196,52.17,113.08C51.4854,112.994,50.8124,113.309,50.44,113.89C50.0008,114.466,49.7557,115.166,49.74,115.89C49.8671,116.566,50.0858,117.223,50.39,117.84C50.6958,118.91,51.333,119.855,52.21,120.54C53.4652,121.339,54.7602,122.073,56.09,122.74C57.29,123.33,57.46,125.29,58.51,126.12C59.56,126.95,62.59,127.12,61.87,124.86C61.4429,123.615,60.5094,122.609,59.3,122.09" fill="#b3b3b3" transform="translate(30.2735,89.386) translate(-55.8597,-119.876)"/>
        <path class="cls-13" d="M89.78,106.79C89.7459,106.729,89.7159,106.665,89.69,106.6C89.4313,106.324,89.2216,106.006,89.07,105.66C88.9162,105.48,88.7852,105.282,88.68,105.07C88.11,105.7,89.34,107.59,89.68,107.97C90.02,108.35,90.68,108.97,91.16,109.45C90.76,108.59,90.31,107.71,89.78,106.79Z" fill="#9a9a9a" transform="translate(64.2595,76.77) translate(-89.8457,-107.26)"/>
        <path d="M62.68,95.33C62.3167,94.115,62.0624,92.8701,61.92,91.61C61.8287,90.7619,61.5812,89.938,61.19,89.18C60.776,88.5781,60.3073,88.0158,59.79,87.5C58.5974,86.0258,57.4826,84.4904,56.45,82.9C55.83,82.02,55.18,81.14,54.53,80.28C54.31,79.99,53.61,78.88,53.26,78.89C53.26,79.56,53.72,80.2,53.69,80.8C53.5626,81.0814,53.419,81.3552,53.26,81.62C52.817,82.7182,52.4821,83.8569,52.26,85.02C51.73,87.26,51.14,89.47,50.65,91.72C50.21,93.72,49.94,95.72,49.51,97.72C49.18,99.27,48.71,100.78,48.27,102.29C48.01,103.19,47.69,104.09,47.48,105.01C47.3913,105.336,47.3442,105.672,47.34,106.01C47.41,107.14,48.16,109.1,49.12,109.7C50.24,110.41,51.57,110.63,52.72,111.27C53.3909,111.783,53.9635,112.413,54.41,113.13C54.65,113.43,54.81,113.79,55.03,114.13C55.25,114.47,55.52,114.66,55.76,114.94C56.21,115.47,56.53,115.79,56.87,114.94C57.1446,113.886,57.1991,112.786,57.03,111.71C56.8135,110.052,56.7733,108.376,56.91,106.71C57.1936,105.5,57.6733,104.345,58.33,103.29C59.0411,102.136,59.8366,101.036,60.71,100C61.2274,99.4196,61.6615,98.77,62,98.07C62.2856,97.211,62.4702,96.3217,62.55,95.42C62.6655,94.9165,62.6655,94.3935,62.55,93.89" fill="#5d5d5d" transform="translate(29.4238,66.6871) translate(-55.01,-97.1771)"/>
        <path class="cls-7" d="M276.25,142.12C275.6,139.7,275.231,137.214,275.15,134.71C275.117,131.716,274.755,128.735,274.07,125.82C272.773,121.161,272.121,116.346,272.13,111.51C272.042,110.855,271.864,110.216,271.6,109.61L271.33,109.28C270.487,108.754,269.798,108.016,269.33,107.14C268.864,106.729,268.559,106.165,268.47,105.55C267.54,105.15,266.97,104.08,265.75,104.21L264.62,104.21C263.82,104.39,264.27,104.86,264.35,105.21C264.769,107.148,264.96,109.128,264.92,111.11C264.767,115.244,263.998,119.332,262.64,123.24C261.81,125.665,260.642,127.961,259.17,130.06C257.68,132.15,255.38,133.23,253.32,134.62C252.958,134.892,252.536,135.073,252.09,135.15C246.64,135.92,241.16,135.54,235.71,135.33C229.98,135.11,224.26,134.77,218.55,134.11C213.99,133.59,209.42,133.03,204.88,132.33C201.196,131.673,197.47,131.275,193.73,131.14C191.47,131.14,189.21,130.83,186.96,130.59C184.96,130.38,182.79,130.4,181.17,131.78C178.12,134.37,174.86,136.78,172.54,140.09C170.22,143.4,167.54,146.44,165.54,149.93C164.553,151.916,163.371,153.799,162.01,155.55C162.037,155.982,161.929,156.412,161.7,156.78C161.715,156.933,161.715,157.087,161.7,157.24C161.7,157.5,161.7,157.76,161.7,158.02C162.38,160.47,162.65,163.02,163.3,165.47C163.3,165.57,163.3,165.66,163.36,165.74C164.21,168.93,164.67,172.21,165.25,175.46C165.896,179.177,167.222,182.743,169.16,185.98C170.06,187.47,171.1,188.87,172.16,190.28C172.75,191.07,173.11,191.49,173.85,190.28C174.85,188.63,175.95,186.98,176.96,185.28C176.943,185.15,176.975,185.018,177.05,184.91L177.42,184.37C178,182.37,179.42,180.61,180.42,178.76C179.659,178.51,178.86,178.394,178.06,178.42C176.001,178.404,174.336,176.739,174.32,174.68C174.316,173.832,174.614,173.009,175.16,172.36C173.795,171.209,173.454,169.244,174.35,167.7C175.28,166.11,177.86,165.12,179.47,166.35C181.56,167.96,183.27,170.26,185.47,171.71C188.72,173.87,192.92,174.44,196.63,175.42C203.46,177.21,214.19,177.05,221.22,177.53C227.52,177.96,229.02,177.59,236.08,180.36C237.65,180.46,239.23,180.65,240.8,180.72C241.42,180.72,242.04,180.72,242.65,180.72C242.95,180.72,243.25,180.72,243.55,180.72C243.67,180.727,243.79,180.727,243.91,180.72C244.16,180.681,244.407,180.628,244.65,180.56L245.04,180.44L245.46,180.25L245.55,180.25C245.77,180.01,246.14,179.41,245.72,180.15L246.05,179.57C245.75,180.05,246.35,178.1,246.28,178.77C246.48,177.02,246.17,176.44,245.19,174.98C243.937,173.328,242.88,171.536,242.04,169.64C241.2,167.46,240.88,165.35,239.71,163.27C238.644,161.27,237.076,159.581,235.16,158.37L235.03,158.29C234.34,158.39,233.65,158.46,232.95,158.52L232.79,158.6C231.915,159.27,231.122,160.042,230.43,160.9C230.43,161.3,230.43,161.71,230.34,162.11C230.19,163.94,231.23,165.71,231.73,167.41C232,168.31,232.42,171.19,233.3,172.16C232.84,171.98,232.54,171.95,232.08,171.75C231.45,171.48,230.26,171.19,229.63,170.93C227.85,170.23,226.9,169.19,225.13,168.48C221.59,167.06,217.34,165.91,213.79,164.48C206.69,161.65,200.13,157.62,192.94,155.04C191.14,154.373,189.337,153.737,187.53,153.13C184.76,152.13,183.53,147.76,186.64,146.29C190.29,144.59,194.12,144.84,198,145.51C199.84,145.83,201.66,146.26,203.49,146.68C204.3,146.87,205.11,147.05,205.93,147.21C206.3,147.29,206.68,147.35,207.05,147.42L207.21,147.42L207.44,147.42C208.89,147.502,210.189,148.342,210.86,149.63C214,150.18,216.21,150.48,219.63,150.78C223.362,151.137,227.115,151.224,230.86,151.04C231.72,150.99,232.59,150.93,233.46,150.84L234.18,150.76L234.4,150.76L235.32,150.61C236.942,150.339,238.54,149.941,240.1,149.42C240.46,149.3,240.82,149.16,241.18,149.02L241.69,148.78C242.277,148.476,242.848,148.143,243.4,147.78C243.49,147.73,243.9,147.44,244.08,147.32C244.26,147.2,244.54,146.94,244.6,146.87C245.088,146.424,245.54,145.939,245.95,145.42C247.22,143.83,249.95,144.11,251.25,145.42C252.076,146.228,252.451,147.392,252.25,148.53L253.08,148.4C256.799,147.85,260.575,147.79,264.31,148.22C266.475,148.493,268.658,148.607,270.84,148.56C274.12,148.57,277.25,145.85,276.25,142.12Z" fill="#b3b3b3" transform="translate(193.484,117.129) translate(-219.07,-147.619)"/>
        <path class="cls-15" d="M228.49,169.55C226.28,168.79,224.08,168.08,223.65,167.9C212.65,163.19,202.26,156.83,190.65,153.71C190.25,153.61,189.91,153.57,189.51,153.44C189.327,153.391,189.146,153.33,188.97,153.26C188.8,153.146,188.623,153.042,188.44,152.95C188.1,152.85,188.12,152.95,188.05,153.27C187.98,153.59,187.97,153.77,187.9,154.01C187.54,155.22,187.08,156.39,186.67,157.59C186.48,158.15,186.12,158.65,185.94,159.21C185.82,159.58,185.78,159.98,185.66,160.36C185.522,160.737,185.405,161.121,185.31,161.51C185.18,162.12,184.93,162.65,184.79,163.26C184.65,163.87,184.52,164.26,184.39,164.67C184.22,165.28,184,165.89,183.87,166.5C183.818,166.788,183.744,167.073,183.65,167.35C183.54,167.68,183.52,168.03,183.42,168.35C183.221,169.001,182.974,169.636,182.68,170.25C182.55,170.53,182.49,170.84,182.35,171.11C182.21,171.38,182.04,171.53,182.07,171.84C182.303,172.033,182.566,172.185,182.85,172.29C183.22,172.46,183.57,172.66,183.93,172.82C187.695,174.458,191.584,175.796,195.56,176.82C197.2,177.28,198.87,177.69,200.56,177.99C202.758,178.364,204.974,178.615,207.2,178.74C208.35,178.81,209.5,178.84,210.64,178.92C218.12,179.43,219.24,177.63,232.77,179.33C232.77,179.33,233.19,178.52,233.23,178.52C233.35,178.15,233.47,177.78,233.62,177.43C233.908,176.803,234.048,176.119,234.03,175.43C233.979,174.185,233.822,172.948,233.56,171.73C233.5,171.34,231,170.41,228.49,169.55Z" fill="#4d4d4d" transform="translate(182.463,135.631) translate(-208.049,-166.121)"/>
        <path class="cls-16" d="M114.31,193.36L113.07,181.6C112.826,177.886,112.131,174.216,111,170.67C110.551,169.734,110.321,168.708,110.33,167.67C110.432,167.051,110.628,166.45,110.91,165.89C111.55,164.578,111.911,163.148,111.97,161.69C111.97,158.59,110.13,156.08,107.97,153.88C104.97,150.83,101.44,147.78,98.34,144.88C97.17,143.78,94.06,142.88,92.8,141.88C93.8,148.65,91.1,154.25,83.8,154.29C80.0949,154.291,76.56,152.735,74.06,150C71.24,147,67.06,142.43,64.35,139.29C63.47,139.29,63.87,140.75,62.99,140.81C62.79,140.81,58.68,141.99,58.7,142.03C59.04,142.55,61.59,142.34,61.94,142.85C63.03,143.96,64.49,145.48,65.52,146.64C66.55,147.8,67.38,147.64,68.19,149.01C69.63,151.35,65.19,146.35,64.42,149.27C63.65,152.19,64.94,148.68,62.42,150.61C57.14,154.67,52.84,153.44,55.97,163.55C59.53,172.34,66.42,179.18,72.25,186.73C76.25,191.91,79.12,198.3,84.32,202.46C84.9601,203.03,85.7131,203.46,86.53,203.72C87.5268,203.906,88.553,203.862,89.53,203.59C97.871,201.901,105.922,199.007,113.43,195C113.769,194.861,114.053,194.615,114.24,194.3C114.353,194,114.377,193.674,114.31,193.36Z" fill="#fff" transform="translate(59.0428,141.072) translate(-84.629,-171.562)"/>
        <path class="cls-12" d="M114.47,193.36C113.99,188.82,113.54,184.28,113.02,179.75C112.772,176.959,112.249,174.199,111.46,171.51C110.98,169.99,110.2,168.58,110.65,166.94C111.02,165.58,111.76,164.39,112.02,162.94C112.89,158.09,108.88,154.34,105.71,151.32C103.38,149.12,101.01,146.96,98.64,144.81C97,143.31,94.64,142.93,92.91,141.63C92.8618,141.602,92.8026,141.601,92.7536,141.628C92.7046,141.654,92.6729,141.704,92.67,141.76C93.1,144.98,92.89,148.65,90.67,151.23C88.18,154.13,83.83,154.51,80.34,153.57C76.13,152.43,73.45,149.11,70.62,146.03C69.22,144.5,67.82,142.96,66.45,141.4C65.8904,140.704,65.2963,140.037,64.67,139.4C64.39,139.15,64.28,138.96,63.89,139.25C63.5,139.54,63.62,140.25,62.89,140.63C62.4837,140.776,62.0655,140.887,61.64,140.96C60.5881,141.124,59.5625,141.427,58.59,141.86C58.5551,141.892,58.5352,141.938,58.5352,141.985C58.5352,142.032,58.5551,142.078,58.59,142.11C58.9335,142.368,59.3507,142.508,59.78,142.51C60.2872,142.538,60.7918,142.601,61.29,142.7C61.824,142.926,62.2869,143.292,62.63,143.76C63.49,144.64,64.33,145.54,65.16,146.45C65.99,147.36,66.89,147.71,67.64,148.45C67.57,148.39,68.34,149.4,68.32,149.45C68.3,149.5,68.01,149.24,67.94,149.19C67.4888,148.866,67.0023,148.594,66.49,148.38C65.81,148.09,64.98,147.93,64.49,148.62C64.1884,149.092,64.0287,149.64,64.03,150.2C64.15,150.49,64.39,150.28,64.14,149.99C63.5,149.22,62.14,150.59,61.66,150.93C59.66,152.29,56.83,153.16,55.49,155.23C53.77,157.88,55.19,162.18,56.33,164.75C58.6004,169.458,61.4673,173.854,64.86,177.83C68.26,182.05,71.86,186.11,74.86,190.65C77.55,194.74,80.09,199.1,83.86,202.27C84.6925,203.079,85.7296,203.646,86.86,203.91C88.2123,203.979,89.5663,203.81,90.86,203.41C93.9777,202.725,97.0557,201.871,100.08,200.85C102.971,199.881,105.808,198.759,108.58,197.49C110.1,196.8,111.58,196.06,113.08,195.28C113.99,194.79,114.53,194.44,114.44,193.34C114.44,193.14,114.11,193.14,114.12,193.34C114.26,195.04,110.33,196.34,109.05,196.93C107.13,197.82,105.18,198.65,103.21,199.4C99.6593,200.75,96.025,201.869,92.33,202.75C90.22,203.25,87.66,204.2,85.61,203.13C84.0595,202.181,82.6829,200.974,81.54,199.56C79.2989,196.865,77.2663,194.004,75.46,191C71.6,185.08,66.73,180,62.51,174.3C60.3218,171.464,58.4349,168.407,56.88,165.18C55.74,162.74,54.5,159.25,55.27,156.51C55.83,154.51,57.8,153.61,59.47,152.66C60.58,152.04,61.6,151.33,62.65,150.66C62.87,150.5,63.26,150.16,63.55,150.17C63.84,150.18,63.83,150.35,63.98,150.41C64.13,150.47,63.98,150.57,64.12,150.6C64.2025,150.619,64.2858,150.571,64.31,150.49C64.51,149.9,64.42,148.95,65.03,148.6C65.64,148.25,66.57,148.8,67.11,149.11C67.37,149.26,68.42,150.18,68.63,149.62C68.73,149.35,68.21,148.74,68.08,148.62C67.7807,148.253,67.4224,147.939,67.02,147.69C66.3233,147.21,65.6856,146.649,65.12,146.02C64.21,145.02,63.27,144.02,62.31,143.02C61.8469,142.578,61.23,142.334,60.59,142.34C60.0521,142.326,59.518,142.246,59,142.1C58.84,142.01,58.8,142.18,59,142.1C59.1513,142.037,59.3088,141.99,59.47,141.96C60.3,141.71,61.13,141.47,61.97,141.24C62.4498,141.178,62.918,141.047,63.36,140.85C63.55,140.72,63.59,140.56,63.71,140.38C63.83,140.2,63.77,140.07,63.85,139.97C64.48,139.27,64.76,139.97,65.13,140.45C66.99,142.59,68.9,144.69,70.82,146.77C72.4574,148.783,74.3232,150.598,76.38,152.18C80.11,154.68,85.91,155.5,89.7,152.66C91.0565,151.601,92.0577,150.153,92.57,148.51C92.8625,147.608,93.0471,146.675,93.12,145.73C93.12,145.2,93.18,144.68,93.12,144.15C93.06,143.62,92.8,142.56,92.98,142.15C92.98,142.15,93.64,142.53,93.98,142.68C94.61,142.99,95.25,143.26,95.88,143.56C97.1178,144.125,98.2507,144.896,99.23,145.84C101.7,148.13,104.23,150.35,106.63,152.7C108.76,154.79,111.02,157.1,111.63,160.13C111.94,161.922,111.689,163.766,110.91,165.41C110.315,166.506,110.09,167.766,110.27,169C110.66,170.79,111.46,172.48,111.85,174.29C112.261,176.326,112.568,178.382,112.77,180.45C112.91,181.73,113.04,183.01,113.17,184.29L114.17,193.37C114.17,193.56,114.49,193.56,114.47,193.36Z" fill="gray" transform="translate(58.9942,141.024) translate(-84.5804,-171.514)"/>
        <path class="cls-15" d="M28.61,65.14C28.6262,66.2932,28.703,67.4448,28.84,68.59C29.1156,70.2444,29.5032,71.8781,30,73.48C31.121,78.3268,33.0405,82.9533,35.68,87.17C38.46,91.36,41,96,45.21,98.88C47.1383,100.289,49.1861,101.527,51.33,102.58C52.33,103.05,53.33,103.52,54.33,104.02C54.7,104.21,55.48,104.9,55.96,104.65C55.96,104.06,54.8,103.25,54.41,102.91C53.2249,101.912,51.9828,100.984,50.69,100.13C49.6597,99.2748,48.7061,98.3312,47.84,97.31C46.67,96.14,45.42,95.05,44.31,93.82C42.4773,91.6719,40.7679,89.4217,39.19,87.08C38.36,85.92,37.47,84.8,36.7,83.6C35.93,82.4,35.11,80.83,34.31,79.46C33.4741,77.9542,32.7714,76.3782,32.21,74.75C31.89,73.82,31.3,73,31,72C30.64,70.71,30.34,69.32,30,68C29.9651,67.5841,29.9651,67.1659,30,66.75C30,66.25,29.77,65.75,29.75,65.3C29.8212,64.3773,29.5703,63.4584,29.04,62.7" fill="#4d4d4d" transform="translate(16.6988,53.212) translate(-42.285,-83.702)"/>
        <path class="cls-15" d="M81.24,90.58L82.01,90.83C81.82,90.48,81.62,90.14,81.43,89.83C81.3974,90.0868,81.3336,90.3387,81.24,90.58Z" fill="#4d4d4d" transform="translate(56.0388,59.84) translate(-81.625,-90.33)"/>
        <path class="cls-17" d="M30.72,76.7C32.2099,78.7284,33.0059,81.1832,32.99,83.7C32.7854,88.2362,32.3213,92.7569,31.6,97.24C31.01,100.84,30.6,115.24,30.36,118.83C30.09,122.24,29.11,125.6,29.36,129.04C29.3749,129.323,29.3749,129.607,29.36,129.89C34.62,129.89,39.87,129.89,45.1,130.08C44.97,120.23,45.34,110.25,44.24,100.45C44.01,98.39,43.33,96.45,43.32,94.36C42.4245,91.7092,41.7292,88.9949,41.24,86.24C40.8408,83.959,40.6567,81.6455,40.69,79.33C40.797,77.2923,40.5014,75.2534,39.82,73.33C38.58,70.55,36.73,67.33,35.93,64.47C35.8105,63.4654,36.0062,62.4485,36.49,61.56C37.0217,60.5652,37.2015,59.4198,37,58.31C36.92,57.76,36.91,57.01,36.12,56.99C35.33,56.97,35.12,57.43,34.92,57.99C34.34,59.56,33.63,61.09,32.92,62.85C32.594,61.059,32.9507,59.2109,33.92,57.67C34.7021,56.4212,35.0793,54.9613,35,53.49C34.987,52.9365,34.6445,52.4444,34.13,52.24C32.33,51.53,30.3,56.51,29.95,57.76C29.7777,58.1597,29.6437,58.5749,29.55,59C29.22,57.47,28.98,53.32,28.78,52.14C28.61,51.14,28.9,49.92,27.4,49.71C26.49,49.59,25.62,50.71,25.59,52.01C25.5385,56.6022,26.0115,61.1852,27,65.67C27.77,69.45,28.41,73.29,30.72,76.7Z" fill="#ccc" transform="translate(9.75689,59.4006) translate(-35.3431,-89.8906)"/>
        <path class="cls-17" d="M64.46,150.1C64.3188,149.353,64.0836,148.628,63.76,147.94C63.2846,147.133,62.6914,146.402,62,145.77C58.38,142.08,55.6,137.48,51.84,133.98C48.6535,130.954,45.9549,127.452,43.84,123.6C39.1,125.53,34.43,127.66,29.77,129.8C30.2662,130.816,30.8343,131.795,31.47,132.73C32.92,134.98,34.18,137.38,35.75,139.54C38.08,142.75,42.18,148.42,43.63,152.13C44.63,152.22,43.05,150.8,43.63,152.13C45.1066,155.676,47.4027,158.822,50.33,161.31C53.13,163.62,56.33,165.39,59.22,167.68C61.7649,164.878,63.8416,161.683,65.37,158.22C65.5541,157.774,65.7962,157.353,66.09,156.97Z" fill="#ccc" transform="translate(22.3438,115.15) translate(-47.93,-145.64)"/>
        <path class="cls-18" d="M254.47,140.05C254.47,139.27,253.97,136.05,253.07,135C252.929,134.815,252.712,134.705,252.48,134.7C252.311,134.729,252.153,134.802,252.02,134.91C250.02,136.26,248.02,135.16,245.84,135.16C241.598,135.042,237.371,134.617,233.19,133.89C227.29,133.01,221.51,131.56,215.69,130.29C212.95,129.69,210.29,129.29,207.56,128.89C203.65,128.32,199.82,127.13,195.8,127.09C191.78,127.05,187.94,126.48,183.99,126.44C180.35,126.44,178.75,126.86,176.09,129.44C169.44,135.99,162.39,142.26,155.89,148.92C142.45,162.71,132.2,179.2,120.59,194.36C119.99,195.259,119.522,196.239,119.2,197.27C117.96,195.69,116.12,193.34,114.42,192.49C114.14,192.69,113.85,192.88,113.57,193.06C112.548,193.818,111.428,194.433,110.24,194.89L110.09,194.89C109.342,195.509,108.554,196.077,107.73,196.59C104.977,198.331,102.052,199.782,99,200.92C95.22,204.43,90.12,205.97,84.88,206.63C84.5388,210.804,84.788,215.005,85.62,219.11C85.73,219.64,85.85,220.17,86,220.69C86.7077,223.371,87.6514,225.985,88.82,228.5C95.16,242.28,106.97,250.59,121.66,250.85C122.367,250.868,123.073,250.795,123.76,250.63C124.28,250.63,124.76,250.54,125.31,250.46C132.818,249.365,139.765,245.855,145.1,240.46C152.02,233.38,155.59,222.63,161.19,214.41C172.49,197.82,183.19,177.93,188.65,158.56C189,157.31,189.57,156,189.86,154.75C190.15,153.5,189.64,152.62,190.94,152.15C190.5,152.31,190.67,152.47,191.02,152.58C191.938,152.792,192.878,152.889,193.82,152.87C194.24,152.87,195.27,153.05,195.62,152.76C195.673,152.755,195.727,152.755,195.78,152.76C195.99,152.76,196.21,152.76,196.42,152.76C196.63,152.76,196.84,152.83,197.05,152.85C197.435,152.892,197.823,152.908,198.21,152.9C198.93,152.9,199.65,152.81,200.38,152.8L201.25,152.8C202.9,152.89,204.4,153.45,206.06,153.5C207.46,153.5,208.88,153.5,210.28,153.5L218.93,153.5C222.61,153.5,226.02,153.2,229.65,152.86C233.444,152.504,237.205,151.859,240.9,150.93C243.9,150.17,246.05,150.12,249.06,149.54C251.72,149.04,254.62,148.91,254.43,148.41C253.6,146.24,254.47,142.31,254.47,140.05Z" fill="#666" transform="translate(144.015,158.156) translate(-169.601,-188.646)"/>
        <path class="cls-19" d="M111.86,208.19C109.06,212.35,105.18,219.72,98.4,218.34" fill="#a7a7a7" transform="translate(79.5438,182.86) translate(-105.13,-213.35)"/>
        <path class="cls-20" d="M113.5,191.55C109.2,193.66,104.5,196.22,100.21,198.33C95.61,200.57,90.69,201.56,84.9,202.55C84.48,202.62,83.9,202.22,83.9,202.84C83.9,203.19,83.9,203.59,83.9,203.95C83.8597,204.332,83.8597,204.718,83.9,205.1C83.9621,205.879,84.1408,206.644,84.43,207.37C85.2155,207.544,86.0363,207.46,86.77,207.13C88.635,206.553,90.5556,206.174,92.5,206C99.7786,204.698,106.698,201.866,112.8,197.69C114.371,196.812,115.87,195.809,117.28,194.69C116.792,193.908,116.244,193.166,115.64,192.47C115.14,192.052,114.699,191.567,114.33,191.03Z" fill="#1a1a1a" transform="translate(74.9888,168.754) translate(-100.575,-199.244)"/>
        <path class="cls-16" d="M108.51,199.54C108.31,199.12,108.1,198.71,107.9,198.29C107.796,198.051,107.679,197.817,107.55,197.59C107.438,197.366,107.297,197.157,107.13,196.97C106.708,196.48,106.146,196.131,105.52,195.97C105.52,195.97,105.52,195.97,105.52,195.92L105.15,195.53C105.839,195.108,106.725,195.193,107.32,195.74C107.9,196.31,108.03,197.28,108.51,197.93C108.963,198.487,109.362,199.086,109.7,199.72C109.9,200.13,110.11,200.36,109.7,200.64C109.456,200.812,109.181,200.935,108.89,201C108.76,200.8,108.94,200.49,108.89,200.25C108.787,200.002,108.659,199.764,108.51,199.54Z" fill="#fff" transform="translate(81.9568,167.642) translate(-107.543,-198.132)"/>
        <path class="cls-16" d="M89.42,205.87C89.28,205.49,89.13,205.12,88.99,204.75C88.8924,204.544,88.8121,204.33,88.75,204.11C88.6762,203.901,88.6324,203.682,88.62,203.46C88.6019,202.859,88.781,202.269,89.13,201.78L89.13,201.3C88.3445,201.503,87.7525,202.15,87.62,202.95C87.62,203.67,88.2,204.31,88.3,205.01C88.3551,205.636,88.4827,206.253,88.68,206.85C88.82,207.22,88.84,207.5,89.35,207.37C89.6535,207.29,89.9434,207.165,90.21,207C90.21,206.79,89.81,206.75,89.68,206.58C89.5606,206.357,89.4731,206.118,89.42,205.87Z" fill="#fff" transform="translate(63.3288,173.861) translate(-88.915,-204.351)"/>
        <path class="cls-16" d="M114.8,196.32C114.6,195.9,114.4,195.49,114.19,195.07C114.086,194.831,113.969,194.597,113.84,194.37C113.728,194.146,113.587,193.937,113.42,193.75C112.998,193.26,112.436,192.911,111.81,192.75C111.81,192.75,111.81,192.75,111.81,192.7L111.44,192.31C112.129,191.888,113.015,191.973,113.61,192.52C114.19,193.09,114.32,194.06,114.8,194.71C115.253,195.267,115.652,195.866,115.99,196.5C116.2,196.91,116.4,197.14,115.99,197.42C115.749,197.59,115.477,197.712,115.19,197.78C115.05,197.58,115.19,197.27,115.19,197.03C115.083,196.781,114.953,196.543,114.8,196.32Z" fill="#fff" transform="translate(88.2478,164.422) translate(-113.834,-194.912)"/>
        <path class="cls-16" d="M100.25,204.53C100.172,204.577,100.104,204.638,100.05,204.71C99.6822,204.591,99.3216,204.451,98.97,204.29C98.84,204.05,98.73,203.76,98.61,203.52C98.49,203.28,98.23,202.88,98.04,202.52C97.85,202.16,97.75,201.93,97.61,201.64C97.35,201.11,97.08,200.57,96.83,200.04C96.66,199.68,96.66,199.4,96.93,199.21C97.0337,199.133,97.1693,199.114,97.29,199.16C97.54,199.24,97.55,199.42,97.76,199.58L97.76,199.69L99.05,202.33C99.1523,202.531,99.2728,202.721,99.41,202.9C99.52,203.06,99.57,203.25,99.67,203.41C99.77,203.57,100.29,204.04,100.41,204.36C100.43,204.5,100.34,204.49,100.25,204.53Z" fill="#fff" transform="translate(72.9766,171.433) translate(-98.5628,-201.923)"/>
        <path class="cls-18" d="M254.36,139.86C254.31,139.14,253.75,136.16,253.06,135.25C252.93,135.07,252.78,134.97,252.64,134.99C252.525,135.031,252.425,135.104,252.35,135.2C251.06,136.51,249.64,135.56,248.16,135.63C245.248,135.662,242.341,135.404,239.48,134.86C237.19,134.51,234.92,134,232.65,133.44L227.52,132.73C225.94,132.503,224.36,132.243,222.78,131.95C223.406,134.009,223.792,136.133,223.93,138.28C226.349,139.131,228.605,140.389,230.6,142C231.588,141.664,232.677,141.812,233.54,142.4C235.91,144.065,237.519,146.605,238.01,149.46C238.155,150.482,238.494,151.466,239.01,152.36C241.365,151.914,243.672,151.245,245.9,150.36C247.9,149.56,249.34,149.44,251.35,148.81C253.12,148.26,254.84,148.07,254.92,147.59C255.28,145.16,254.51,142,254.36,139.86Z" fill="#666" transform="translate(213.311,111.665) translate(-238.897,-142.155)"/>
        <path class="cls-18" d="M244,135.53C244.507,135.234,244.977,134.878,245.4,134.47C245.51,134.38,245.66,134.25,245.79,134.27C245.953,134.33,246.108,134.41,246.25,134.51C246.61,134.68,246.92,135.14,247.25,135.27C247.58,135.4,247.51,135.48,247.37,134.96C247.3,134.721,247.321,134.464,247.43,134.24C247.59,133.92,247.64,133.88,247.81,133.8C247.991,133.72,248.197,133.721,248.377,133.803C248.557,133.885,248.692,134.041,248.75,134.23C248.91,134.67,248.75,134.94,248.89,135.39C249.03,135.84,249.28,136.09,249.47,135.84C249.66,135.59,249.68,134.84,250.02,134.64C250.275,134.447,250.581,134.332,250.9,134.31C251.049,134.325,251.192,134.373,251.32,134.45C251.46,134.54,251.63,134.76,251.78,134.73C252.12,134.67,251.2,134.04,252.03,133.58C252.16,133.51,252.34,133.66,252.47,133.72C252.715,133.825,252.919,134.008,253.05,134.24C253.357,134.807,253.547,135.429,253.61,136.07C253.732,136.656,253.805,137.252,253.83,137.85C253.83,138.3,253.44,138.32,253.2,138.35C252.641,138.395,252.079,138.395,251.52,138.35C250.01,138.28,248.52,138.29,247.03,138.35C246.064,138.49,245.079,138.314,244.22,137.85C243.973,137.722,243.802,137.485,243.76,137.21C243.737,136.877,243.737,136.543,243.76,136.21" fill="#666" transform="translate(223.2,105.489) translate(-248.786,-135.979)"/>
        <path class="cls-18" d="M254.33,147.17C254.07,146.77,253.96,146.17,253.51,145.86C253.06,145.55,252.38,145.8,251.88,145.94C250.71,146.24,249.59,146.61,248.47,146.94C245.477,147.94,242.46,148.893,239.42,149.8L238.17,150.19C238.302,151,238.609,151.771,239.07,152.45L239.23,152.67L240.51,152.67L240.77,152.67C241.173,152.295,241.612,151.96,242.08,151.67C242.51,151.46,242.83,150.79,242.92,151.23C243.049,151.507,243.193,151.777,243.35,152.04C243.519,152.447,243.91,152.716,244.35,152.73C244.875,152.669,245.289,152.255,245.35,151.73C245.375,151.35,245.375,150.97,245.35,150.59C245.35,150.27,245.64,149.88,246.21,149.92C246.94,149.98,247.34,150.45,248.16,150.37C248.838,150.328,249.508,150.21,250.16,150.02C250.418,149.933,250.664,149.812,250.89,149.66C251.12,149.51,251.3,149.26,251.62,149.19C252.34,149.01,252.27,149.82,252.94,149.78C253.56,149.58,254.111,149.209,254.53,148.71C254.738,148.197,254.662,147.613,254.33,147.17Z" fill="#666" transform="translate(220.822,118.731) translate(-246.408,-149.221)"/>
        <path class="cls-6" d="M241.11,152.76C241.28,152.643,241.429,152.498,241.55,152.33C241.82,151.96,241.93,151.75,242.42,151.61C242.489,151.595,242.561,151.595,242.63,151.61C242.82,151.61,242.9,151.87,243.02,152.01C243.108,152.127,243.259,152.178,243.4,152.14C243.75,152.02,243.4,150.75,243.4,150.45C243.4,150.15,243.4,149.86,243.4,149.58C243.4,149.3,243.54,148.98,243.55,148.58C243.57,147.994,243.53,147.408,243.43,146.83C243.388,146.532,243.324,146.238,243.24,145.95C243.1,145.59,243.01,145.71,242.81,145.84C242.61,145.97,242.38,146.02,242.38,146.38C242.42,146.629,242.473,146.876,242.54,147.12C242.638,147.833,242.604,148.559,242.44,149.26C242.186,149.888,241.899,150.502,241.58,151.1C241.4,151.53,241.17,151.88,240.98,152.28C240.91,152.41,240.86,152.57,240.8,152.71C240.904,152.719,241.008,152.736,241.11,152.76Z" fill="#999" transform="translate(216.592,118.746) translate(-242.178,-149.236)"/>
        <path class="cls-6" d="M252.34,150.19C252.26,150.14,252.19,150.05,252.1,150C252.01,149.95,251.85,150,251.74,150.06L251.56,150.06C251.275,149.94,250.969,149.879,250.66,149.88L250.37,149.88C250.427,149.853,250.478,149.816,250.52,149.77C250.65,149.64,250.77,149.47,250.9,149.33C251.037,149.178,251.146,149.001,251.22,148.81C251.282,148.636,251.319,148.454,251.33,148.27C251.415,147.817,251.415,147.353,251.33,146.9C251.25,146.54,251.18,146.17,251.1,145.8C251.02,145.43,250.96,145.18,250.92,144.87C250.88,144.56,250.85,144.16,250.82,143.8C250.79,143.591,250.79,143.379,250.82,143.17C250.83,143.067,250.865,142.968,250.92,142.88C251,142.76,251.03,142.76,251.12,142.88C251.275,143.077,251.406,143.292,251.51,143.52C251.616,143.721,251.694,143.937,251.74,144.16C251.787,144.347,251.814,144.538,251.82,144.73C251.82,144.98,251.75,145.21,251.77,145.47C251.808,145.835,251.899,146.192,252.04,146.53C252.1,146.69,252.17,146.84,252.22,147C252.272,147.149,252.309,147.303,252.33,147.46C252.377,147.657,252.404,147.858,252.41,148.06C252.41,148.2,252.41,148.34,252.41,148.49C252.415,148.845,252.465,149.198,252.56,149.54C252.56,149.62,252.56,149.69,252.66,149.72C252.76,149.75,252.76,149.72,252.82,149.72C252.88,149.72,252.91,149.82,253.01,149.81C253.07,149.819,253.13,149.819,253.19,149.81C253.29,149.76,253.35,149.65,253.46,149.61C253.57,149.57,253.56,149.61,253.61,149.61C253.65,149.713,253.65,149.827,253.61,149.93C253.552,150.038,253.47,150.13,253.37,150.2C253.262,150.297,253.131,150.366,252.99,150.4C252.836,150.437,252.673,150.4,252.55,150.3Z" fill="#999" transform="translate(226.419,116.112) translate(-252.005,-146.602)"/>
        <path class="cls-12" d="M64.88,170.66C64.9739,170.66,65.05,170.584,65.05,170.49C65.05,170.396,64.9739,170.32,64.88,170.32C64.7861,170.32,64.71,170.396,64.71,170.49C64.71,170.584,64.7861,170.66,64.88,170.66Z" fill="gray" transform="translate(39.2938,140) translate(-64.88,-170.49)"/>
        <path class="cls-16" d="M74.57,154C72.84,151.4,67.57,146.54,64.89,144.75C63.51,143.83,62.06,143.06,60.74,142.06C60.09,141.57,59.28,141.18,58.74,140.64C58.2,140.1,57.58,138.64,56.64,138.28C55.9074,137.913,55.0213,138.063,54.45,138.65L55.8,139.76C56.14,141.61,53.38,143.76,52.1,144.93C49.6555,147.185,46.9051,149.084,43.93,150.57C43.28,150.89,41.73,151.06,41.85,151.85C42.1564,152.758,42.6164,153.607,43.21,154.36C43.9672,155.622,44.7987,156.837,45.7,158C46.7,159.22,47.7,160.37,48.76,161.54C49.2603,161.79,49.711,162.129,50.09,162.54C52.5508,165.273,55.6396,167.367,59.09,168.64" fill="#fff" transform="translate(32.6205,122.87) translate(-58.2067,-153.36)"/>
        <path class="cls-12" d="M74.71,153.94C72.18,150.488,69.0908,147.483,65.57,145.05C64.57,144.29,63.39,143.66,62.3,142.96C60.8668,142.213,59.5607,141.245,58.43,140.09C57.9,139.39,57.51,138.5,56.65,138.15C55.8565,137.781,54.9176,137.94,54.29,138.55C54.2346,138.617,54.2346,138.713,54.29,138.78C54.98,139.35,55.79,139.65,55.54,140.64C55.19,142.05,53.81,143.19,52.77,144.12C50.07,146.52,47.07,149.19,43.65,150.52C43.06,150.75,41.89,150.86,41.65,151.61C41.41,152.36,42.52,153.69,42.94,154.34C43.8333,155.772,44.8083,157.15,45.86,158.47C46.45,159.19,47.07,159.89,47.69,160.59C48.3523,161.261,49.0571,161.889,49.8,162.47C51.158,163.821,52.6046,165.081,54.13,166.24C55.6564,167.297,57.3179,168.145,59.07,168.76C59.26,168.83,59.35,168.52,59.15,168.45C56.4267,167.474,53.9273,165.961,51.8,164C49.6343,162.144,47.6273,160.11,45.8,157.92C44.89,156.77,44.08,155.57,43.29,154.34C42.69,153.41,41.17,151.78,42.84,151.15C45.0477,150.274,47.1213,149.093,49,147.64C50.8317,146.31,52.5539,144.835,54.15,143.23C54.82,142.54,56.47,140.79,55.84,139.66C55.63,139.29,54.71,139.06,54.61,138.66C54.61,138.5,54.94,138.4,55.19,138.35C55.8211,138.194,56.4887,138.354,56.98,138.78C57.4361,139.242,57.8326,139.759,58.16,140.32C58.8782,141.082,59.7117,141.727,60.63,142.23C61.8,143.05,63,143.78,64.21,144.55C66.1807,145.859,68.0253,147.349,69.72,149C71.4758,150.533,73.0555,152.257,74.43,154.14C74.55,154.31,74.83,154.14,74.71,153.98Z" fill="gray" transform="translate(32.5916,122.872) translate(-58.1778,-153.362)"/>
        <path class="cls-16" d="M107.64,145.79C106.98,145.335,106.394,144.782,105.9,144.15C104.243,142.483,102.677,140.727,101.21,138.89C100.5,137.97,99.79,136.99,99.02,136.16C98.3672,135.315,97.6075,134.559,96.76,133.91L96.76,133.15C95.76,132.92,94.96,134.47,94.37,135.15C93.8026,135.867,93.1772,136.536,92.5,137.15C91.07,138.3,89.37,138.77,88.01,139.99C88.0723,140.173,88.1829,140.335,88.33,140.46C91.05,141.02,93.77,143.27,96.1,144.68C99.1321,146.506,102.054,148.51,104.85,150.68C104.95,150.76,105.02,150.85,105.11,150.93C105.24,150.82,105.35,150.72,105.48,150.59C106.143,150.02,106.864,149.521,107.63,149.1C108.2,148.76,109.49,147.89,109.37,147.1C109.25,146.31,108.19,146.09,107.64,145.79Z" fill="#fff" transform="translate(73.1077,111.538) translate(-98.6939,-142.028)"/>
        <path class="cls-12" d="M107.72,145.64C106.488,144.677,105.377,143.569,104.41,142.34C103.21,141.06,102.073,139.727,101,138.34C100.17,137.25,99.28,136.22,98.39,135.19C98.01,134.76,97.47,134.39,97.12,133.95C96.94,133.72,97,133.89,96.93,133.62C96.91,133.464,96.91,133.306,96.93,133.15C96.925,133.058,96.8518,132.985,96.76,132.98C96.1381,132.964,95.552,133.27,95.21,133.79C94.6,134.48,94.08,135.25,93.46,135.94C91.89,137.7,89.65,138.34,87.89,139.84C87.8449,139.903,87.8449,139.987,87.89,140.05C88.15,140.61,88.4,140.59,88.96,140.76C89.848,141.04,90.7004,141.423,91.5,141.9C92.97,142.72,94.33,143.73,95.75,144.62C97.17,145.51,98.84,146.53,100.34,147.54C101.984,148.566,103.542,149.723,105,151C105.066,151.066,105.174,151.066,105.24,151C106.042,150.308,106.902,149.686,107.81,149.14C108.422,148.808,108.949,148.339,109.35,147.77C110.11,146.44,108.63,146.07,107.73,145.65C107.54,145.57,107.37,145.86,107.56,145.95C107.75,146.04,107.98,146.11,108.2,146.19C108.41,146.233,108.61,146.314,108.79,146.43C109.137,146.892,109.137,147.528,108.79,147.99C108.182,148.544,107.511,149.024,106.79,149.42C106.48,149.62,105.46,150.59,105.16,150.56C104.86,150.53,104.42,150.02,104.25,149.89C103.78,149.53,103.31,149.18,102.83,148.89C99.61,146.56,96.21,144.45,92.83,142.33C92.0423,141.829,91.2202,141.385,90.37,141C90.03,140.85,89.7,140.71,89.37,140.59C89.1486,140.544,88.9313,140.481,88.72,140.4C88.37,140.01,88.85,139.58,89.12,139.4C90.57,138.46,92.12,137.86,93.38,136.59C93.8893,136.056,94.37,135.495,94.82,134.91C95.04,134.62,96.38,132.91,96.61,133.39C96.71,133.61,96.61,133.87,96.69,134.09C96.77,134.31,97.49,134.72,97.69,134.98C97.89,135.24,98.34,135.72,98.69,136.09C100.23,137.82,101.56,139.72,103.11,141.45C103.86,142.28,104.62,143.09,105.39,143.89C106.022,144.676,106.751,145.378,107.56,145.98C107.654,146.024,107.766,145.984,107.81,145.89C107.854,145.796,107.814,145.684,107.72,145.64Z" fill="gray" transform="translate(73.1219,111.524) translate(-98.7081,-142.014)"/>
        <path class="cls-12" d="M162,167.89C154.619,176.978,147.758,186.477,141.45,196.34C138.303,201.273,135.303,206.273,132.45,211.34C129.45,216.67,121.23,234.5,112.97,224.88C112.447,224.07,112.046,223.187,111.78,222.26C111.25,222.87,110.71,223.49,110.16,224.09C110.785,225.04,111.491,225.933,112.27,226.76C116.1,230.46,121.35,230.22,125.27,226.76C129.33,223.11,131.7,217.45,134.37,212.76C137.397,207.473,140.477,202.21,143.61,196.97C146.743,191.73,149.953,186.547,153.24,181.42C156.47,176.42,160.53,171.76,164.35,167.13C163.82,167.7,162.41,167.34,162,167.89Z" fill="gray" transform="translate(111.669,167.798) translate(-137.255,-198.288)"/>
        <path class="cls-18" d="M193.89,150.59L188.35,150.59L187.5,155.96L188.35,155.96" fill="#666" transform="translate(165.109,122.785) translate(-190.695,-153.275)"/>
        <path class="cls-18" d="M201.58,144.29C201.18,144.02,200.86,143.53,200.32,143.39C199.78,143.25,199.26,143.77,198.84,144.08C197.84,144.81,196.98,145.57,196.08,146.35C193.7,148.41,191.26,150.43,188.81,152.43L187.81,153.26C188.233,153.964,188.806,154.565,189.49,155.02L189.73,155.15L190.91,154.67L191.16,154.59C191.391,154.089,191.673,153.614,192,153.17C192.31,152.82,192.35,152.08,192.6,152.45C192.69,152.58,193.19,152.92,193.31,153.04C193.615,153.342,194.065,153.443,194.47,153.3C194.927,153.042,195.147,152.504,195,152C194.882,151.64,194.738,151.289,194.57,150.95C194.495,150.754,194.512,150.534,194.617,150.352C194.722,150.17,194.903,150.044,195.11,150.01C195.81,149.78,196.35,150.06,197.11,149.68C197.73,149.38,198.313,149.011,198.85,148.58C199.056,148.405,199.238,148.203,199.39,147.98C199.55,147.75,199.62,147.45,199.89,147.25C200.49,146.82,200.73,147.59,201.34,147.3C201.63,147.17,201.77,146.87,201.92,146.66C202.179,146.405,202.345,146.071,202.39,145.71C202.407,145.122,202.095,144.574,201.58,144.29Z" fill="#666" transform="translate(169.514,118.768) translate(-195.1,-149.258)"/>
        <path class="cls-6" d="M191.47,154.49C191.588,154.317,191.673,154.124,191.72,153.92C191.747,153.529,191.935,153.167,192.24,152.92C192.295,152.865,192.364,152.826,192.44,152.81C192.62,152.81,192.78,152.94,192.95,153.03C193.073,153.106,193.227,153.106,193.35,153.03C193.63,152.78,192.79,151.75,192.68,151.47C192.57,151.19,192.41,150.94,192.32,150.68C192.23,150.42,192.22,150.08,192.09,149.74C191.887,149.19,191.625,148.664,191.31,148.17C191.164,147.91,190.997,147.662,190.81,147.43C190.54,147.16,190.5,147.29,190.37,147.49C190.24,147.69,190.04,147.82,190.17,148.16C190.3,148.5,190.49,148.58,190.61,148.78C190.964,149.4,191.208,150.077,191.33,150.78C191.331,151.448,191.297,152.115,191.23,152.78C191.23,153.24,191.15,153.65,191.12,154.1C191.12,154.24,191.12,154.4,191.12,154.56Z" fill="#999" transform="translate(166.181,120.428) translate(-191.767,-150.918)"/>
        <path class="cls-6" d="M192.49,148.29C192.49,148.49,192.49,148.71,192.49,148.91C192.762,150.225,193.356,151.452,194.22,152.48C194.294,152.591,194.385,152.688,194.49,152.77C194.605,152.846,194.729,152.906,194.86,152.95C195.564,153.192,196.291,153.359,197.03,153.45C197.76,153.53,198.69,153.45,198.92,152.71C198.986,152.588,198.986,152.442,198.92,152.32C198.795,152.222,198.638,152.175,198.48,152.19C194.86,152.08,194.35,147.62,192.48,145.43C192.344,145.248,192.15,145.117,191.93,145.06C191.55,145.06,191.25,145.42,191.25,145.8C191.292,146.165,191.434,146.511,191.66,146.8" fill="#999" transform="translate(169.524,118.777) translate(-195.11,-149.267)"/>
    </g>
    <path id="_a1" d="M-32.6024,-20.6171C-33.4885,-13.4278,0.998939,12.0553,76.3385,15.647C113.683,17.4273,131.388,11.8898,132.753,12.0946C132.814,11.63,169.3,7.7109,172.337,-2.56671C172.525,-3.20199,192.125,-0.322154,192.125,-0.322154C192.125,-0.322154,180.805,13.2407,169.521,18.1038C158.237,22.9669,126.983,36.0639,56.2924,35.8089C-71.1381,35.3492,-111.637,-5.76901,-105.811,-18.6398C-105.811,-18.6398,-32.6024,-20.6171,-32.6024,-20.6171Z" stroke="none" fill="#ffffff" opacity="0" stroke-width="1" fill-rule="nonzero" stroke-linecap="butt" stroke-linejoin="miter" stroke-dasharray="" stroke-dashoffset="0" transform="translate(192.664,777.709) translate(0,0) translate(0,0)"/>
    <path id="_a2" fill="#ffffff" opacity="1" stroke="none" d="M7.6293,-5.9388L7.6587,-10.8486C7.6587,-11.3925,7.5411,-11.6718,7.0119,-11.6718C6.3651,-11.6718,5.1156,-11.3484,5.1156,-11.3484L5.0862,-10.7898L6.4239,-10.7163C6.4239,-10.7163,6.4533,-9.408,6.468,-7.2471C6.027,-7.497,5.3508,-7.7763,4.4247,-7.7763C2.6313,-7.7763,0.6615,-6.2622,0.6615,-3.6603C0.6615,-1.1319,2.1903,0.0882,4.0425,0.0882C4.9539,0.0882,5.8653,-0.3087,6.468,-0.9408L6.9531,0.0882C8.0703,0.0882,8.9817,-0.3087,8.9817,-0.3087L8.9817,-0.8673C8.9817,-0.8673,8.2761,-0.8379,7.9674,-0.8673C7.6881,-0.8967,7.6293,-1.0878,7.6293,-1.3083ZM4.4541,-0.8232C2.6607,-0.8232,1.9551,-2.5431,1.9551,-4.1013C1.9551,-6.0417,2.9253,-7.0119,4.3806,-7.0119C5.5419,-7.0119,6.1887,-6.2622,6.468,-5.8506C6.468,-4.6746,6.4386,-2.646,6.4386,-1.5729C5.8653,-1.1025,5.1744,-0.8232,4.4541,-0.8232Z" transform="translate(357.132,53.5929) translate(0,0) scale(1.5,1.5) translate(0,0)"/>
    <script xlink:href="../keyshape.js"></script>
    <script><![CDATA[if(KeyshapeJS.version.indexOf('1.')!=0)throw Error('Expected KeyshapeJS v1.*.*');window.ks=document.ks=KeyshapeJS;(function(ks){
ks.animate("#_a0",[{p:'mpath',t:[0,2640],v:['0%','100%'],e:[[0],[0]],mp:"M363.301,43.6136L206.045,333.456"},{p:'skewX',t:[0,2640],v:[-43,-43],e:[[0],[0]]},{p:'skewY',t:[0,2640],v:[0,0],e:[[0],[0]]},{p:'scaleX',t:[0,2640],v:[0.15,2.15],e:[[0],[0]]},{p:'scaleY',t:[0,2640],v:[0.15,2.15],e:[[0],[0]]},{p:'fill',t:[0,2640],v:['url(#Gradient-0)','url(#Gradient-0)'],e:[[3,1],[3,1]]},{p:'d',t:[0,2640],v:["path('M-36.25,-4238.27L-35.9594,-4247.21C-35.9594,-4247.21,-21.281,-4250.44,-14.5288,-4250.44C-9.09569,-4250.44,-6.44621,-4246.33,-6.44621,-4240.89C-6.44621,-4240.89,-7.03871,-4223.43,-7.03871,-4189.22C-7.03871,-4171.89,-6.74805,-4149.58,-6.74805,-4149.58C-6.74805,-4147.35,-6.15555,-4145.47,-3.2266,-4145.18C-0.297638,-4144.89,5.58264,-4144.89,5.58264,-4144.89L5.58264,-4136.66C-2.54753,-4134.89,-10.7861,-4133.67,-19.0787,-4132.99L-24.0647,-4143.26C-30.2356,-4137.4,-37.2785,-4132.99,-48.1447,-4132.99C-64.444,-4133.14,-78.8317,-4146.5,-78.3286,-4171.75C-77.8927,-4198.47,-58.0719,-4211.54,-39.5703,-4211.54C-30.1797,-4211.54,-25.0373,-4208.45,-25.0373,-4208.45C-25.0373,-4208.45,-25.0373,-4222.4,-25.4844,-4237.52ZM-25.395,-4152.09L-25.0932,-4196.28C-25.0932,-4196.28,-28.7711,-4200.1,-37.7257,-4200.1C-50.347,-4200.1,-58.7203,-4191.44,-58.7203,-4172.5C-58.7203,-4157.23,-52.5493,-4145.48,-39.928,-4145.48C-34.3972,-4145.63,-29.1632,-4148.01,-25.4174,-4152.09Z')","path('M-36.25,-4245.01L-35.9594,-4249C-35.9594,-4249,-21.281,-4250.44,-14.5288,-4250.44C-9.09569,-4250.44,-6.44621,-4248.61,-6.44621,-4246.18C-6.44621,-4246.18,-7.03871,-4238.4,-7.03871,-4223.15C-7.03871,-4215.42,-6.74805,-4205.48,-6.74805,-4205.48C-6.74805,-4204.48,-6.15555,-4203.64,-3.2266,-4203.52C-0.297638,-4203.39,5.58264,-4203.39,5.58264,-4203.39L5.58264,-4199.72C-2.54753,-4198.93,-10.7861,-4198.38,-19.0787,-4198.08L-24.0647,-4202.66C-30.2356,-4200.05,-37.2785,-4198.08,-48.1447,-4198.08C-64.444,-4198.15,-78.8317,-4204.1,-78.3286,-4215.36C-77.8927,-4227.27,-58.0719,-4233.1,-39.5703,-4233.1C-30.1797,-4233.1,-25.0373,-4231.72,-25.0373,-4231.72C-25.0373,-4231.72,-25.0373,-4237.94,-25.4844,-4244.68ZM-25.395,-4206.6L-25.0932,-4226.3C-25.0932,-4226.3,-28.7711,-4228,-37.7257,-4228C-50.347,-4228,-58.7203,-4224.14,-58.7203,-4215.69C-58.7203,-4208.89,-52.5493,-4203.65,-39.928,-4203.65C-34.3972,-4203.72,-29.1632,-4204.78,-25.4174,-4206.6Z')"],e:[[0],[0]]}],
"#D",[{p:'mpath',t:[0,1700],v:['0%','100%'],e:[[1,0,0,0.370939,1],[0]],mp:"M363.019,44.0299C303.361,134.672,243.904,578.246,322.777,808.911"},{p:'skewX',t:[0,2200],v:[0,70],e:[[1,0,0,0.58,1],[0]]},{p:'skewY',t:[0,2200],v:[0,-7],e:[[1,0,0,0.58,1],[0]]},{p:'scaleX',t:[0,2200],v:[0.15,6.55],e:[[1,0,0,0.58,1],[0]]},{p:'scaleY',t:[0,2200],v:[0.15,6.55],e:[[1,0,0,0.58,1],[0]]},{p:'opacity',t:[0,100,7500,8200],v:[0,1,1,0],e:[[0],[0],[0],[0]]},{p:'fill',t:[0,6600],v:['#ffffff','#ffffff'],e:[[1,0,0,1,1],[0]]},{p:'d',t:[0,2200,6900],v:["path('M-36.25,-4238.27L-35.9594,-4247.21C-35.9594,-4247.21,-21.281,-4250.44,-14.5288,-4250.44C-9.09569,-4250.44,-6.44621,-4246.33,-6.44621,-4240.89C-6.44621,-4240.89,-7.03871,-4223.43,-7.03871,-4189.22C-7.03871,-4171.89,-6.74805,-4149.58,-6.74805,-4149.58C-6.74805,-4147.35,-6.15555,-4145.47,-3.2266,-4145.18C-0.297638,-4144.89,5.58264,-4144.89,5.58264,-4144.89L5.58264,-4136.66C-2.54753,-4134.89,-10.7861,-4133.67,-19.0787,-4132.99L-24.0647,-4143.26C-30.2356,-4137.4,-37.2785,-4132.99,-48.1447,-4132.99C-64.444,-4133.14,-78.8317,-4146.5,-78.3286,-4171.75C-77.8927,-4198.47,-58.0719,-4211.54,-39.5703,-4211.54C-30.1797,-4211.54,-25.0373,-4208.45,-25.0373,-4208.45C-25.0373,-4208.45,-25.0373,-4222.4,-25.4844,-4237.52ZM-25.395,-4152.09L-25.0932,-4196.28C-25.0932,-4196.28,-28.7711,-4200.1,-37.7257,-4200.1C-50.347,-4200.1,-58.7203,-4191.44,-58.7203,-4172.5C-58.7203,-4157.23,-52.5493,-4145.48,-39.928,-4145.48C-34.3972,-4145.63,-29.1632,-4148.01,-25.4174,-4152.09Z')","path('M-29.6205,-4212.56L-29.3759,-4213.42C-29.3759,-4213.42,-17.0237,-4214.28,-11.3416,-4214.28C-6.7695,-4214.28,-4.53991,-4213.42,-4.53991,-4212.56C-4.53991,-4212.56,-5.03851,-4210.86,-5.03851,-4205.75C-5.03851,-4203.19,-4.79391,-4200.63,-4.79391,-4200.63C-4.79391,-4199.78,-4.29531,-4199.78,-1.83053,-4199.78C0.634254,-4199.78,5.58264,-4199.78,5.58264,-4199.78L5.58264,-4198.93C-1.25908,-4198.08,-8.19202,-4198.08,-15.1704,-4198.08L-19.3663,-4199.78C-24.5592,-4198.93,-30.486,-4198.08,-39.6301,-4198.08C-53.3463,-4198.08,-65.4539,-4199.78,-65.0305,-4203.19C-64.6637,-4207.46,-47.9841,-4209.16,-32.4146,-4209.16C-24.5122,-4209.16,-20.1847,-4208.31,-20.1847,-4208.31C-20.1847,-4208.31,-20.1847,-4210.01,-20.561,-4212.56ZM-20.4857,-4200.63L-20.2318,-4206.6C-20.2318,-4206.6,-23.3268,-4207.46,-30.8623,-4207.46C-41.4834,-4207.46,-48.5297,-4205.75,-48.5297,-4203.19C-48.5297,-4201.49,-43.3367,-4199.78,-32.7156,-4199.78C-28.0613,-4199.78,-23.6568,-4199.78,-20.5046,-4200.63Z')","path('M-29.6205,-4212.56L-29.3759,-4213.42C-29.3759,-4213.42,-17.0237,-4214.28,-11.3416,-4214.28C-6.7695,-4214.28,-4.53991,-4213.42,-4.53991,-4212.56C-4.53991,-4212.56,-5.03851,-4210.86,-5.03851,-4205.75C-5.03851,-4203.19,-4.79391,-4200.63,-4.79391,-4200.63C-4.79391,-4199.78,-4.29531,-4199.78,-1.83053,-4199.78C0.634254,-4199.78,5.58264,-4199.78,5.58264,-4199.78L5.58264,-4198.93C-1.25908,-4198.08,-8.19202,-4198.08,-15.1704,-4198.08L-19.3663,-4199.78C-24.5592,-4198.93,-30.486,-4198.08,-39.6301,-4198.08C-53.3463,-4198.08,-65.4539,-4199.78,-65.0305,-4203.19C-64.6637,-4207.46,-47.9841,-4209.16,-32.4146,-4209.16C-24.5122,-4209.16,-20.1847,-4208.31,-20.1847,-4208.31C-20.1847,-4208.31,-20.1847,-4210.01,-20.561,-4212.56ZM-20.4857,-4200.63L-20.2318,-4206.6C-20.2318,-4206.6,-23.3268,-4207.46,-30.8623,-4207.46C-41.4834,-4207.46,-48.1396,-4205.8,-48.1396,-4203.24C-48.1396,-4201.54,-43.3367,-4199.78,-32.7156,-4199.78C-28.0613,-4199.78,-23.6568,-4199.78,-20.5046,-4200.63Z')"],e:[[1,0,0,0.58,1],[0],[0]]}],
"#N",[{p:'mpath',t:[500,6300],v:['0%','100%'],e:[[1,0.332113,0.786377,1,1],[0]],mp:"M350.89,48.4177C373.715,140.165,438.354,882.609,-50.309,1081.64"},{p:'rotate',t:[654,5000],v:[0,-250],e:[[1,0,0,1,1],[0]]},{p:'skewX',t:[554,1861,2900],v:[0,23,42],e:[[0],[0],[0]]},{p:'skewY',t:[554,1861,2900],v:[0,-8,-21],e:[[0],[0],[0]]},{p:'scaleX',t:[554,2300],v:[1,7],e:[[1,0,0,0.216068,0.965459],[0]]},{p:'scaleY',t:[554,2300],v:[1,7.01309],e:[[1,0,0,0.216068,0.965459],[0]]},{p:'opacity',t:[554,4542,5000],v:[1,1,0],e:[[0],[0],[0]]},{p:'d',t:[554,5000],v:["path('M-2304.88,1985.14L-2306.9,1985.02L-2306.86,1984.14C-2305.92,1983.89,-2304.96,1983.73,-2303.99,1983.65C-2303.19,1983.65,-2303.02,1984.07,-2303.02,1984.89L-2303.02,1985.45C-2301.93,1984.42,-2300.53,1983.8,-2299.04,1983.68C-2296.22,1983.43,-2295.07,1985.14,-2294.98,1987.61C-2294.98,1988.49,-2294.91,1990.16,-2295.02,1993.71C-2295.02,1994.16,-2294.94,1994.27,-2294.63,1994.31L-2293.27,1994.53L-2293.27,1995.42L-2298.59,1995.42L-2298.55,1994.53L-2297.28,1994.29C-2296.99,1994.25,-2296.83,1994.18,-2296.81,1993.84C-2296.67,1990.67,-2296.74,1988.89,-2296.81,1987.87C-2296.91,1985.92,-2297.74,1985.01,-2299.47,1985.14C-2300.77,1985.26,-2302.01,1985.78,-2303.02,1986.63C-2303.02,1986.63,-2303.08,1989.29,-2303.02,1993.73C-2303.02,1994.18,-2302.91,1994.28,-2302.6,1994.33L-2301.24,1994.55L-2301.29,1995.44L-2306.61,1995.44L-2306.61,1994.55L-2305.34,1994.31C-2305.01,1994.24,-2304.88,1994.18,-2304.88,1993.73C-2304.82,1988.8,-2304.88,1985.14,-2304.88,1985.14Z')","path('M-2304.88,1986.88L-2306.9,1986.81L-2306.86,1986.27C-2305.92,1986.11,-2304.96,1986.01,-2303.99,1985.97C-2303.19,1985.97,-2303.02,1986.23,-2303.02,1986.73L-2303.02,1987.07C-2301.93,1986.45,-2300.53,1986.06,-2299.04,1985.98C-2296.22,1985.83,-2295.07,1986.88,-2294.98,1988.4C-2294.98,1988.95,-2294.91,1989.98,-2295.02,1992.16C-2295.02,1992.43,-2294.94,1992.5,-2294.63,1992.52L-2293.27,1992.66L-2293.27,1993.21L-2298.59,1993.21L-2298.55,1992.66L-2297.28,1992.52C-2296.99,1992.49,-2296.83,1992.45,-2296.81,1992.23C-2296.67,1990.29,-2296.74,1989.19,-2296.81,1988.57C-2296.91,1987.36,-2297.74,1986.8,-2299.47,1986.88C-2300.77,1986.96,-2302.01,1987.28,-2303.02,1987.8C-2303.02,1987.8,-2303.08,1989.44,-2303.02,1992.17C-2303.02,1992.45,-2302.91,1992.51,-2302.6,1992.54L-2301.24,1992.67L-2301.29,1993.22L-2306.61,1993.22L-2306.61,1992.67L-2305.34,1992.52C-2305.01,1992.48,-2304.88,1992.45,-2304.88,1992.17C-2304.82,1989.14,-2304.88,1986.88,-2304.88,1986.88Z')"],e:[[0],[0]]}],
"#I",[{p:'mpath',t:[1246,6000],v:['0%','100%'],e:[[1,0.293211,0.604142,0.696045,0.876877],[0]],mp:"M339.479,44.5008C158.901,101.52,102.621,817.576,410.032,1009.92"},{p:'rotate',t:[1246,6000],v:[0,300],e:[[0],[0]]},{p:'skewX',t:[1246,6000],v:[0,42],e:[[1,0,0,1,1],[0]]},{p:'skewY',t:[1246,6000],v:[0,-21],e:[[1,0,0,1,1],[0]]},{p:'scaleX',t:[1246,5600],v:[1,20],e:[[1,0,0,0.58,1],[0]]},{p:'scaleY',t:[1246,5600],v:[1,20],e:[[1,0,0,0.58,1],[0]]},{p:'opacity',t:[1246,5500,6000],v:[1,1,0],e:[[0],[0],[0]]},{p:'d',t:[1246,6000],v:["path('M-2311.06,1990.65C-2311.06,1991.67,-2311.06,1993.89,-2311.06,1995.39C-2311.06,1995.7,-2310.93,1995.82,-2310.66,1995.83L-2309.31,1996.06L-2309.31,1996.94L-2314.62,1996.94L-2314.58,1996.06L-2313.31,1995.82C-2312.98,1995.75,-2312.83,1995.68,-2312.83,1995.23C-2312.83,1993.76,-2312.83,1992.16,-2312.83,1990.61C-2312.83,1988.72,-2312.91,1986.67,-2312.91,1986.67L-2314.93,1986.56L-2314.93,1985.67C-2313.99,1985.42,-2313.04,1985.26,-2312.07,1985.19C-2311.28,1985.19,-2311.1,1985.6,-2311.1,1986.42C-2311.1,1987.25,-2311.06,1989.48,-2311.06,1990.65ZM-2312.13,1980.8C-2311.82,1980.78,-2311.51,1980.89,-2311.29,1981.1C-2311.06,1981.3,-2310.92,1981.6,-2310.91,1981.9C-2310.9,1982.22,-2311.04,1982.52,-2311.27,1982.74C-2311.5,1982.95,-2311.81,1983.06,-2312.13,1983.04C-2312.44,1983.05,-2312.74,1982.94,-2312.97,1982.73C-2313.19,1982.51,-2313.32,1982.22,-2313.32,1981.9C-2313.32,1981.6,-2313.19,1981.3,-2312.96,1981.1C-2312.73,1980.89,-2312.43,1980.78,-2312.13,1980.8Z')","path('M-2311.06,1989.21C-2311.06,1989.5,-2311.06,1990.11,-2311.06,1990.53C-2311.06,1990.62,-2310.93,1990.65,-2310.66,1990.65L-2309.31,1990.71L-2309.31,1990.96L-2314.62,1990.96L-2314.58,1990.71L-2313.31,1990.65C-2312.98,1990.63,-2312.83,1990.61,-2312.83,1990.48C-2312.83,1990.07,-2312.83,1989.63,-2312.83,1989.2C-2312.83,1988.68,-2312.91,1988.1,-2312.91,1988.1L-2314.93,1988.08L-2314.93,1987.83C-2313.99,1987.76,-2313.04,1987.72,-2312.07,1987.69C-2311.28,1987.69,-2311.1,1987.81,-2311.1,1988.04C-2311.1,1988.27,-2311.06,1988.88,-2311.06,1989.21ZM-2312.13,1986.48C-2311.82,1986.47,-2311.51,1986.5,-2311.29,1986.56C-2311.06,1986.61,-2310.92,1986.7,-2310.91,1986.78C-2310.9,1986.87,-2311.04,1986.95,-2311.27,1987.02C-2311.5,1987.07,-2311.81,1987.1,-2312.13,1987.1C-2312.44,1987.1,-2312.74,1987.07,-2312.97,1987.02C-2313.19,1986.95,-2313.32,1986.87,-2313.32,1986.78C-2313.32,1986.7,-2313.19,1986.61,-2312.96,1986.56C-2312.73,1986.5,-2312.43,1986.47,-2312.13,1986.48Z')"],e:[[1,0,0,1,1],[0]]}],
"#M",[{p:'mpath',t:[1900,7600],v:['0%','100%'],e:[[1,0,0,1,1],[0]],mp:"M324.804,47.6785C324.804,47.6785,297.159,162.509,-27.8587,958.803"},{p:'rotate',t:[1900,7600],v:[0,500],e:[[0],[0]]},{p:'skewX',t:[1900,7600],v:[0,-40],e:[[1,0,0,0.58,1],[0]]},{p:'skewY',t:[1900,7600],v:[0,30],e:[[1,0,0,0.58,1],[0]]},{p:'scaleX',t:[1900,7600],v:[1,4],e:[[1,0,0,1,1],[0]]},{p:'scaleY',t:[1900,7600],v:[1,4],e:[[1,0,0,1,1],[0]]},{p:'opacity',t:[1900,7200,7585],v:[1,1,0],e:[[0],[0],[0]]}],
"#GIRL",[{p:'mpath',t:[4000,8200],v:['0%','100%'],e:[[1,0,0,1,1],[0]],mp:"M247.18,-251.594L262.921,1244.68"},{p:'opacity',t:[4511,4852,7500,8100],v:[0,1,1,0],e:[[0],[0],[0],[0]]}],
"#_a1",[{p:'mpath',t:[2200,6900],v:['0%','100%'],e:[[0],[0]],mp:"M192.664,777.709L192.664,777.709"},{p:'opacity',t:[2100,2200,7100,7300],v:[0,1,1,0],e:[[0],[1,0,0,1,1],[0],[0]]},{p:'strokeDasharray',t:[0,4000],v:['none','634.18000000000006 634.18000000000006'],e:[[0],[0]]},{p:'strokeDashoffset',t:[0,4000,5000],v:[0,634.18,0],e:[[0],[0],[0]]}],
"#_a2",[{p:'mpath',t:[0,100],v:['0%','100%'],e:[[0],[0]],mp:"M357.132,53.5929L337.891,91.3712"},{p:'opacity',t:[0,100],v:[1,0],e:[[0],[0]]}],
{autoremove:false}).range(0,8200).loop(true);
if(document.location.search.substr(1).split('&').indexOf('global=paused')>=0)ks.globalPause()})(KeyshapeJS);
]]></script>
    <script xlink:href="../keyshape-progress-controller.js"></script>
</svg>
