<svg xmlns="http://www.w3.org/2000/svg" width="71" height="106" viewBox="0 0 71 106">
  <path d="M67.1,21.3 C52,21.3 37.1,21.3 22,21.3 C22,27.9 22,34.2 22,40.9 C25.6,41.1 29.2,41 32.7,41 C36.2,41 39.7,41 43.2,41 C46.8,41 50.4,41 54.1,41 C57.6,41 61.1,41 64.7,41 C64.7,48.2 64.7,55.1 64.7,62.2 C50.4,62.2 36.3,62.2 21.8,62.2 C21.7,69.5 21.7,76.4 21.8,83.7 C37.9,83.7 53.6,83.7 69.6,83.7 C69.6,90.9 69.6,97.8 69.6,104.8 C46.4,104.8 23.3,104.8 0,104.8 C0,69.9 0,35.1 0,0 C22.4,0 44.6,0 67.1,0 C67.1,7.1 67.1,14.1 67.1,21.3 Z" transform="translate(.6 .703)"/>
</svg>
