<svg xmlns="http://www.w3.org/2000/svg" width="71" height="105" viewBox="0 0 71 105">
  <path d="M22.0355728,83.7 C38.2355728,83.7 53.9355728,83.7 69.8355728,83.7 C69.8355728,90.9 69.8355728,97.7 69.8355728,104.8 C46.7355728,104.8 23.6355728,104.8 0.635572802,104.8 C-0.0644271984,102.5 -0.264427198,4.3 0.435572802,-2.84217094e-14 C22.6355728,-2.84217094e-14 44.8355728,-2.84217094e-14 67.3355728,-2.84217094e-14 C67.3355728,6.9 67.3355728,13.8 67.3355728,21.1 C62.4355728,21.3 57.5355728,21.2 52.5355728,21.2 C47.4355728,21.2 42.3355728,21.2 37.2355728,21.2 C32.2355728,21.2 27.3355728,21.2 22.1355728,21.2 C22.1355728,27.8 22.1355728,34.1 22.1355728,40.7 C36.3355728,40.7 50.4355728,40.7 64.8355728,40.7 C64.8355728,47.9 64.8355728,54.8 64.8355728,62.1 C57.7355728,62.2 50.6355728,62.1 43.6355728,62.2 C36.6355728,62.2 29.6355728,62.2 22.2355728,62.2 C21.7355728,69.3 22.0355728,76.2 22.0355728,83.7 Z" transform="translate(.264 .003)"/>
</svg>
