<svg xmlns="http://www.w3.org/2000/svg" width="78" height="101" viewBox="0 0 78 101">
  <path stroke="#000" stroke-width=".9" d="M219,99 L219.258344,91.2237779 L226.656366,89.8846701 C228.629172,89.5087803 229.545117,89.1093972 229.545117,86.4546749 C229.803461,52.0137636 229.545117,12.5453251 229.545117,12.5453251 C229.545117,9.91409587 228.746601,9.23279544 226.891224,8.97437114 L219.117429,7.79971523 L219.375773,0 L287.484549,0 L289.081582,27.4634551 L281.824475,27.8628382 C279.475896,21.7781206 277.456119,15.3175131 276.140915,11.8875178 C275.732609,10.4187271 274.350166,9.43796442 272.829419,9.53820598 C264.398022,9.53820598 251.058096,9.67916469 251.058096,9.67916469 C249.08529,10.0785477 248.286774,10.4779307 248.286774,13.1091599 C248.169345,21.9425724 248.02843,30.5410536 248.02843,43.344803 L264.257108,43.344803 C267.02843,43.344803 267.686032,42.6869957 267.967862,40.8310394 L269.142151,33.4307072 L277.456119,33.5716659 L277.456119,62.6091599 L269.142151,62.8675842 L267.826947,56.1485524 C267.427689,54.1516374 267.02843,53.6347888 264.257108,53.3763645 C262.542645,53.2354058 255.825711,53.2354058 254.627936,53.2354058 L248.02843,53.2354058 C248.02843,66.0391552 248.169345,78.326056 248.169345,83.4710489 C248.169345,90.0726151 251.739184,89.0154248 253.970334,89.0154248 C255.543881,89.0154248 267.427689,89.0154248 271.114957,88.8744661 C273.356609,89.0229165 275.57147,88.3179682 277.315204,86.9010441 C279.663782,84.5517323 282.200247,80.5579022 287.742892,71.0666825 L295,72.4997627 L288.940667,98.9060275 L219,99 Z" transform="translate(-218 1)"/>
</svg>
