<svg xmlns="http://www.w3.org/2000/svg" width="71" height="107" viewBox="0 0 71 107">
  <path d="M23.592374,43.1355728 C37.692374,43.1355728 51.892374,43.1355728 66.292374,43.1355728 C66.292374,50.4355728 66.292374,57.2355728 66.292374,64.5355728 C62.792374,64.9355728 59.292374,64.6355728 55.792374,64.7355728 C52.192374,64.7355728 48.692374,64.7355728 45.092374,64.7355728 C41.492374,64.7355728 37.992374,64.7355728 34.392374,64.7355728 C30.792374,64.7355728 27.292374,64.7355728 23.192374,64.7355728 C22.892374,69.3355728 23.092374,73.8355728 23.092374,78.3355728 C23.092374,82.7355728 23.092374,87.2355728 23.092374,91.6355728 C23.092374,96.1355728 23.092374,100.735573 23.092374,105.635573 C15.492374,106.135573 8.09237403,105.735573 0.792374029,105.935573 C-0.00762597088,103.235573 -0.307625971,5.6355728 0.392374029,0.635572802 C2.89237403,-0.0644271984 65.492374,-0.264427198 69.792374,0.435572802 C69.792374,7.2355728 69.792374,14.1355728 69.792374,21.4355728 C65.892374,21.8355728 61.992374,21.5355728 58.192374,21.6355728 C54.392374,21.6355728 50.592374,21.6355728 46.792374,21.6355728 C42.892374,21.6355728 38.992374,21.6355728 34.992374,21.6355728 C31.192374,21.6355728 27.392374,21.6355728 23.692374,21.6355728 C22.992374,24.3355728 22.792374,39.1355728 23.592374,43.1355728 Z" transform="translate(.808 .767)"/>
</svg>
