<svg xmlns="http://www.w3.org/2000/svg" width="67" height="106" viewBox="0 0 67 106">
  <path d="M21.8,104.8 C14.3,104.8 7.3,104.8 0,104.8 C0,69.8 0,35 0,-2.84217094e-14 C22.1,-2.84217094e-14 44.1,-2.84217094e-14 66.3,-2.84217094e-14 C66.3,7 66.3,13.9 66.3,21.2 C51.6,21.3 36.9,21.2 22,21.3 C22,28.4 22,35.2 22,42.6 C26.5,42.6 31,42.6 35.4,42.6 C39.9,42.6 44.5,42.6 49,42.6 C53.5,42.6 58,42.6 62.4,42.6 C63.2,45.3 63.3,60 62.6,64 C49.1,64 35.6,64 21.7,64 C21.8,77.8 21.8,91.2 21.8,104.8 Z" transform="translate(.3 .803)"/>
</svg>
