<svg xmlns="http://www.w3.org/2000/svg" width="72" height="101" viewBox="0 0 72 101">
  <path stroke="#000" stroke-width=".9" d="M138,99 L138.281974,91.3412435 L145.660289,90.0256289 C147.657603,89.6262458 148.574018,89.2268628 148.574018,86.5956336 C148.832494,52.1312292 148.433031,12.5453251 148.433031,12.5453251 C148.433031,9.91409587 147.657603,9.23279544 145.801276,8.97437114 L138,7.79971523 L138.281974,0 L206.425646,0 L208,27.4634551 L200.739174,27.8628382 C198.389392,21.7781206 196.392078,15.3175131 195.0762,11.8875178 C194.667686,10.4187271 193.284534,9.43796442 191.763008,9.53820598 C183.327291,9.53820598 169.98053,9.67916469 169.98053,9.67916469 C168.006714,10.0785477 167.207788,10.4779307 167.207788,13.1091599 C167.207788,21.9425724 166.949312,31.9036545 166.949312,44.7778832 L183.186304,44.7778832 C185.959047,44.7778832 186.616986,44.1200759 186.875462,42.2876127 L188.120846,34.8872805 L196.439074,35.0282392 L196.439074,64.0657333 L188.120846,64.3241576 L186.804968,57.5816327 C186.405505,55.6082107 186.006042,55.0913621 183.2333,54.8094447 C181.517959,54.6919791 174.774085,54.6919791 173.599194,54.6919791 L166.97281,54.6919791 C166.831823,67.4957285 167.231286,76.4700997 167.231286,86.3607024 C167.231286,89.0154248 167.889225,89.6732321 169.745552,89.9316564 L177.52333,91.1298054 L177.805304,98.9060275 L138,99 Z" transform="translate(-137 1)"/>
</svg>
