<svg xmlns="http://www.w3.org/2000/svg" width="88" height="106" viewBox="0 0 88 106">
  <path d="M22.1984158,104.9 C14.5984158,104.9 7.69841578,104.9 0.698415779,104.9 C-0.00158422144,102.3 -0.301584221,5.5 0.398415779,0.1 C7.39841578,0.1 14.4984158,0.1 21.9984158,0.1 C21.9984158,12.9 21.9984158,25.8 21.9984158,38.8 C36.2984158,38.8 50.0984158,38.8 64.3984158,38.8 C64.3984158,25.8 64.3984158,13 64.3984158,0 C71.7984158,0 78.7984158,0 85.7984158,0 C86.5984158,2.4 86.7984158,101 85.9984158,104.8 C79.0984158,104.8 72.0984158,104.8 64.7984158,104.8 C64.2984158,101.2 64.5984158,97.5 64.5984158,93.8 C64.4984158,90 64.5984158,86.1 64.5984158,82.3 C64.5984158,78.6 64.5984158,74.8 64.5984158,71.1 C64.5984158,67.4 64.5984158,63.7 64.5984158,59.8 C50.3984158,59.8 36.4984158,59.8 22.2984158,59.8 C22.1984158,74.7 22.1984158,89.6 22.1984158,104.9 Z" transform="translate(.602 .403)"/>
</svg>
