<svg xmlns="http://www.w3.org/2000/svg" width="42" height="101" viewBox="0 0 42 101">
  <path stroke="#000" stroke-width=".9" d="M116.266589,86.0645008 C116.266589,88.7173346 116.91851,89.2338155 118.757858,89.6329144 L127,91.4875504 L126.720605,99 L87.1396973,99 L87.2561118,91.2762627 L95.1024447,89.3042447 C97.0582072,88.7642874 97.9895227,88.506047 97.9895227,85.8766896 C98.2456345,51.4368034 97.8498254,13.3345981 97.8498254,13.3345981 C97.8498254,10.6817643 97.0582072,10.1652834 95.242142,9.76618449 L87,7.91154849 L87.2561118,0 L126.83702,0 L126.557625,7.79416647 L118.967404,9.90704292 C117.011641,10.4235238 116.359721,10.6817643 116.220023,13.3345981 C116.010477,28.5707849 116.010477,74.2089163 116.266589,86.0645008 Z" transform="translate(-86 1)"/>
</svg>
