<svg xmlns="http://www.w3.org/2000/svg" width="82" height="101" viewBox="0 0 82 101">
  <path stroke="#000" stroke-width=".9" d="M29.5800294,83.6715744 C29.3973263,85.2391701 29.9603267,86.8017103 31.1006887,87.8919823 C32.2410507,88.9822544 33.8266059,89.4738953 35.3832599,89.2199003 L48.328928,89.2199003 C67.4537445,89.2199003 71.8237885,66.7679886 71.8237885,66.7679886 L80,67.9669912 L73.2804699,99 L0.281938326,99 L0.540381791,91.2652577 L8.31718062,89.9251959 C9.15341829,89.8774302 9.93479115,89.4932317 10.4835288,88.8600094 C11.0322664,88.2267872 11.3017046,87.3983899 11.2305433,86.5632866 L11.2305433,44.2455474 C11.2305433,27.2244123 10.9720999,13.0714795 10.9720999,13.0714795 C10.9720999,10.4383757 10.1732746,9.92115887 8.31718062,9.52149133 L0,7.80527191 L0.281938326,0 L40.2232012,0 L39.9647577,7.66421278 L32.3054332,9.63904061 C30.3318649,10.1797673 29.5330396,10.4383757 29.5330396,13.0714795 C29.3920705,19.6777488 29.133627,31.8793636 29.133627,43.8458798 C29.133627,55.8123961 28.7812041,66.2507718 29.5800294,83.6715744 Z" transform="translate(1 1)"/>
</svg>
