<svg xmlns="http://www.w3.org/2000/svg" width="112" height="107" viewBox="0 0 112 107">
  <path d="M111.8,0.255270649 C111.8,35.3552706 111.8,70.1552706 111.8,105.155271 C104.6,105.155271 97.7,105.155271 90.2,105.155271 C90,96.3552706 90.1,87.6552706 90.1,78.8552706 C90.1,70.1552706 90.1,61.4552706 90.1,52.7552706 C90.1,43.9552706 90.1,35.1552706 89.8,26.2552706 C80.8,52.4552706 72.4,78.8552706 63.8,105.255271 C58.2,105.255271 52.8,105.255271 47.1,105.255271 C38.9,78.8552706 30.7,52.5552706 22.4,26.1552706 C22.2,26.1552706 21.9,26.2552706 21.7,26.2552706 C21.7,52.4552706 21.7,78.6552706 21.7,104.755271 C19.1,105.555271 4.5,105.655271 0,105.055271 C0,70.2552706 0,35.4552706 0,0.655270649 C2.4,-0.0447293506 27.9,-0.244729351 33,0.355270649 C40.5,22.8552706 48,45.3552706 55.6,67.9552706 C55.8,67.9552706 56.1,67.9552706 56.3,67.9552706 C63.9,45.3552706 71.4,22.8552706 79,0.155270649 C89.9,0.255270649 100.7,0.255270649 111.8,0.255270649 Z" transform="translate(0 .747)"/>
</svg>
