<svg xmlns="http://www.w3.org/2000/svg" width="108" height="115" viewBox="0 0 108 115">
  <path d="M107.59365,56.533602 C107.29365,66.833602 105.39365,76.733602 100.79365,85.833602 C94.5936503,98.033602 84.9936503,106.333602 72.1936503,110.533602 C58.7936503,114.933602 45.3936503,114.733602 32.2936503,109.533602 C16.8936503,103.433602 6.99365034,91.733602 2.69365034,75.533602 C-1.50634966,60.133602 -1.00634966,44.633602 5.69365034,29.933602 C13.0936503,13.533602 25.9936503,4.13360201 43.1936503,1.03360201 C54.2936503,-0.966397989 65.2936503,-0.166397989 75.8936503,4.33360201 C92.0936503,11.233602 101.69365,23.833602 105.69365,41.133602 C106.69365,46.133602 106.99365,51.433602 107.59365,56.533602 Z M22.7936503,57.633602 C22.6936503,61.333602 23.3936503,65.933602 24.8936503,70.333602 C29.0936503,83.133602 39.6936503,91.233602 52.6936503,91.533602 C66.3936503,91.833602 77.1936503,84.533602 81.9936503,71.633602 C84.6936503,64.333602 85.1936503,56.733602 83.8936503,49.033602 C81.3936503,34.233602 71.7936503,23.733602 57.1936503,22.133602 C43.8936503,20.733602 31.6936503,27.033602 26.0936503,40.033602 C23.7936503,45.433602 22.8936503,50.933602 22.7936503,57.633602 Z" transform="translate(.306 .469)"/>
</svg>
