<svg xmlns="http://www.w3.org/2000/svg" width="61" height="191" viewBox="0 0 61 191">
  <path d="M46.8048536,190.857745 C47.1964735,190.339384 47.7030539,189.917526 48.2853284,189.624871 L46.8764895,189.458907 C49.5508955,183.768717 48.9778085,178.0074 49.0016871,172.293502 C48.9877715,170.179698 49.3682876,168.081619 50.1239825,166.10542 C51.7508277,161.72476 52.4814355,157.065941 52.2730587,152.401547 C52.483174,148.346159 51.258344,144.345492 48.8106581,141.092295 C47.3611825,139.223313 46.6251933,136.905025 46.7332178,134.548577 C46.7024242,127.982067 48.180594,121.495097 51.0552488,115.581279 C51.900428,113.999951 52.3739255,112.249099 52.440209,110.460108 C52.4966326,105.777006 53.5889781,101.163445 55.6399447,96.9459076 C56.3324249,95.3099781 56.9532691,93.6740486 57.6696278,92.0618282 C58.89209,89.4066159 59.2348659,86.4348429 58.6486514,83.573962 C58.3736961,81.9016831 58.3736961,80.1961976 58.6486514,78.5239187 C59.2933743,73.0708203 60.200762,67.617722 60.6783345,62.1409145 C61.0365139,58.0392361 60.8216063,53.8901395 60.964878,49.741043 C61.1373541,47.6232521 60.6719083,45.5023515 59.627675,43.6477982 C59.1643645,42.8988158 58.7802656,42.1042898 58.4815011,41.2768859 C56.3324249,35.136223 51.3179137,32.5519285 45.4915293,31.2242176 C43.9832783,31.0685777 42.4628416,31.0685777 40.9545906,31.2242176 C40.5725326,29.6357063 40.1904746,28.1183224 39.7129021,26.2927199 C40.8846147,26.0184557 42.0731152,25.8204584 43.2708172,25.6999919 C44.5893918,25.7670618 45.7909843,24.9522871 46.207888,23.7084255 C48.5301251,18.3785887 48.5903829,12.344292 46.3750384,6.96978439 C45.2766217,4.38548994 43.605118,2.70214218 40.4531395,3.43712501 C40.2859891,3.43712501 40.0710815,3.29487027 39.8561739,3.24745202 C38.696448,1.16068871 36.4473892,-0.0948647833 34.0491,0.00561053707 C31.6508108,0.106085857 29.5162677,1.54528851 28.5377058,3.72163449 C27.9168616,4.81225416 27.4154105,6.09254683 26.6990517,7.06462088 C23.4006429,12.0879208 21.9032818,18.0682589 22.4486566,24.0403532 C22.5919283,26.4112656 22.8068359,26.695775 25.0514266,27.3833396 C25.5051205,27.3833396 25.9588144,27.6915582 26.3886296,27.833813 C25.6483923,31.4138906 25.1230625,32.1014552 22.2576276,33.4291661 C20.1579653,34.4090908 18.4688331,36.0862328 17.4819027,38.1709907 C14.6164677,43.7426347 11.7749114,49.3379879 8.93335505,54.9096318 C6.08706768,60.0482591 4.63087403,65.8316868 4.7068385,71.6956912 C4.67079632,73.8203787 4.32494437,75.9286762 3.68005765,77.9548998 C1.86528218,84.7119999 -0.164400913,91.3979727 0.0505067081,98.5344189 C0.0505067081,100.170348 -0.427065784,101.687732 1.55486006,102.56497 C1.96079667,102.754643 2.03243255,103.655589 2.27121879,104.224608 C3.32527224,107.516283 5.95530132,110.074349 9.29153442,111.052836 C11.6137962,111.737431 13.1111413,113.972495 12.8494495,116.36368 C12.4482869,119.642122 12.7742887,122.968013 13.8045945,126.108129 C14.4471364,127.90175 14.9188154,129.751259 15.2134333,131.632355 C15.9297921,138.484292 16.7894225,145.336228 17.0282088,152.211874 C17.3386309,161.102795 17.0282088,170.017426 17.0282088,179.311402 C14.0433807,180.947332 10.8675236,182.89148 7.47675895,184.5037 C5.37163674,185.219062 4.11188897,187.357536 4.51580951,189.530034 C4.5748595,190.018269 4.5748595,190.511765 4.51580951,191 L46.8048536,190.857745 Z M40.7874403,171.629646 C40.0746755,173.254616 39.8029958,175.036609 39.9994456,176.798235 C40.357004,179.306723 39.7238533,181.85533 38.2324274,183.910972 C37.5143979,184.6884 36.9040845,185.557504 36.417652,186.495267 C35.3192352,189.411489 33.170159,189.90938 30.3286027,189.695998 C27.0572311,189.482616 23.7619809,189.695998 20.4667307,189.695998 L20.323459,188.937306 L28.848128,185.404647 C28.8960441,184.971281 28.8960441,184.534011 28.848128,184.100645 C26.8423235,177.272418 28.1078906,170.207099 27.3437746,163.260326 C27.2831631,161.803486 27.6749475,160.363345 28.46607,159.134938 C29.4104001,157.60568 29.8681161,155.829128 29.7793943,154.037477 C29.7793943,144.387863 29.7793943,134.73825 29.7793943,125.112346 C29.7041644,124.268587 29.7768777,123.418266 29.9943019,122.599179 C30.2092096,122.006451 30.9494469,121.627105 31.450898,121.152923 C31.8807133,121.650814 32.7642224,122.243542 32.6925865,122.646597 C31.8090774,127.198749 34.7222696,130.992209 35.080449,135.307269 C35.4386283,139.62233 36.4415306,143.652881 37.1578893,147.825686 C37.2067264,148.138695 37.2785538,148.447738 37.3727969,148.750342 C38.9297617,153.031943 39.7373698,157.546501 39.7606594,162.098579 C39.8528076,163.686809 40.2584743,165.241567 40.9545906,166.674439 C41.5881913,168.278606 41.5277241,170.071168 40.7874403,171.629646 Z M40.5247754,33.6662573 L32.8358583,40.4470666 C31.0449614,38.3369546 29.5167294,36.6061886 28.0601333,34.8280044 C26.8352324,33.7416508 26.4843844,31.98051 27.2005029,30.5129439 C27.5111948,29.5625009 27.6801351,28.5720303 27.701954,27.5730126 L36.035594,25.9607922 C37.7071019,26.9122188 38.8106772,28.6088511 38.9965434,30.5129439 C39.3460392,31.6333256 39.8610599,32.6960057 40.5247754,33.6662573 Z M43.9155401,6.04512858 C46.89476,11.1800795 47.1709078,17.4333259 44.6557774,22.8074788 C43.8439042,24.9175908 41.9336142,23.7795529 40.1427174,24.3011536 C41.3844059,19.8912566 42.7693661,16.0029604 43.4857248,11.9724094 C43.567748,9.6978156 43.3265915,7.4230914 42.7693661,5.21530926 C43.0797882,5.42869137 43.6528752,5.64207348 43.9155401,6.04512858 L43.9155401,6.04512858 Z M24.1440389,25.5814462 C23.4331112,20.8085463 24.069594,15.9333899 25.982693,11.498227 C27.0734018,9.20029702 28.5879492,7.12554046 30.4479958,5.38127312 C32.6172815,3.3420551 35.8912065,2.99272773 38.447335,4.52774468 C41.2560119,5.88411616 42.7138573,9.01705478 41.9336142,12.0198277 C41.2172555,14.8886316 40.4770181,17.7574355 39.5457518,20.5788212 C39.211451,21.6220226 38.5906068,22.9497335 37.7070977,23.3764978 C33.466359,25.3036561 28.782334,26.0651388 24.1440389,25.5814462 L24.1440389,25.5814462 Z M1.7936463,100.478567 C1.50114536,96.4447742 1.78249447,92.39018 2.62939816,88.4343323 C3.58454315,84.5223269 4.73071713,80.6577398 5.61422624,76.7457345 C6.14648256,74.4093343 6.45035429,72.027376 6.52161397,69.6329975 C6.55458383,65.806937 7.43502965,62.0349431 9.10050543,58.584546 C10.9391595,54.7910862 12.8494495,51.0450447 14.7119822,47.2752941 C16.3977259,50.9586503 16.3977259,55.1856993 14.7119822,58.8690555 C12.2110143,65.4119093 10.8621063,72.3331327 10.7242519,79.3300289 C10.6178937,81.0214635 10.3783761,82.7020393 10.0078932,84.3563631 C8.78850709,89.083964 8.43265781,93.9903399 8.95723368,98.8426375 C9.01036501,99.4183535 9.01036501,99.9976874 8.95723368,100.573403 L1.7936463,100.478567 Z M10.1511649,108.871597 C9.81120177,109.218833 9.31234921,109.362924 8.83784056,109.250943 C6.46125929,108.245465 4.65256132,106.250066 3.89496527,103.797844 C3.77557214,103.418498 4.49193088,102.375297 4.96950337,102.256751 C6.28811457,102.046686 7.62176696,101.943606 8.95723368,101.948533 C9.1721413,104.153481 7.85881695,106.287302 10.270558,107.496467 C10.4377084,107.591304 10.3899512,108.539669 10.1511649,108.871597 L10.1511649,108.871597 Z M11.8704259,105.362646 C10.4508637,100.030948 10.0379658,94.4843369 10.652616,89.0033513 C11.3212175,83.5265438 12.1569694,78.0971545 12.753935,72.620347 C13.1746784,68.2919868 14.1868729,64.0406372 15.7626417,59.9833842 C17.338465,56.5906645 17.7979814,52.7913081 17.075966,49.1246057 C16.5082481,46.4036699 16.7149595,43.5795116 17.6729317,40.9686673 C18.5217353,37.1181097 21.7697487,34.2472277 25.7200281,33.8559303 C27.3676532,36.0371696 29.0869142,38.2895364 30.7822965,40.5893213 C31.9523492,42.2015417 32.5254361,42.3912147 34.125304,41.110922 C36.6172743,39.1366319 39.0081295,37.0397011 41.2888914,34.8280044 C43.1684418,32.6734514 46.344789,32.1913418 48.7867795,33.6899664 C55.3981516,36.6314696 59.5733912,43.2382302 59.3650102,50.4286075 C59.1501026,56.3321792 59.0784667,62.2831692 58.6725301,68.1630318 C58.4576224,71.3163452 57.5263561,74.4222404 57.1442981,77.6466812 C56.8577997,79.7313275 56.8577997,81.8449525 57.1442981,83.9295989 C57.5854459,86.1186714 57.3950723,88.3869377 56.5950897,90.4733169 C55.4727944,93.3184117 54.2072273,96.1160883 53.1804464,99.0323104 C52.0820297,102.422715 51.3417923,105.931665 50.3150115,109.843671 L41.6709494,107.472758 C41.5802061,106.685022 41.5802061,105.889582 41.6709494,105.101846 C42.1262562,103.244079 42.7168148,101.421588 43.4379676,99.6487476 C45.154523,95.2987677 46.0216198,90.6641655 45.9929804,85.9922926 C45.9929804,79.4011563 46.2556453,72.8337291 46.3272812,66.2663019 C46.3272812,65.1756823 46.8526109,63.8953896 45.6109224,63.0655703 C44.3692339,63.776844 44.7751706,64.9623002 44.7512919,65.9580833 C44.6318988,71.1503814 44.4886271,76.3426794 44.5602629,81.5349774 C44.8734226,88.3355042 43.7257175,95.1243612 41.1933769,101.450641 C40.6441685,102.707225 40.3337464,104.058645 39.8800525,105.433774 C35.2475993,105.030719 30.6151462,104.366863 26.0065716,104.366863 C21.3979971,104.366863 16.693908,104.9833 11.8704259,105.362646 Z"/>
</svg>
