<svg xmlns="http://www.w3.org/2000/svg" width="72" height="225" viewBox="0 0 72 225">
  <path d="M54.6105891,224.347212 C55.0663344,223.739499 55.6545548,223.243616 56.3305891,222.897212 L54.7005891,222.717212 C57.8305891,216.007212 57.1505891,209.247212 57.1805891,202.537212 C57.1527146,200.048606 57.600753,197.577606 58.5005891,195.257212 C60.6805891,190.037212 60.9505891,184.677212 60.9805891,179.147212 C60.9805891,174.217212 60.0405891,169.807212 56.9805891,165.867212 C55.2865263,163.66429 54.4258136,160.933386 54.5505891,158.157212 C54.7505891,150.377212 55.9705891,142.817212 59.5505891,135.757212 C60.5593472,133.914217 61.1146679,131.857473 61.1705891,129.757212 C61.0405891,124.087212 62.7405891,118.957212 64.9005891,113.877212 C65.7105891,111.977212 66.4505891,110.047212 67.2705891,108.147212 C68.7060574,105.02071 69.1122212,101.519297 68.4305891,98.1472117 C68.0804531,96.187683 68.0601739,94.1834239 68.3705891,92.2172117 C69.1105891,85.7872117 70.1805891,79.3972117 70.7405891,72.9572117 C71.1505891,68.1272117 70.9005891,63.2472117 71.0705891,58.3872117 C71.267047,55.9033948 70.7279732,53.4166992 69.5205891,51.2372117 C68.9849977,50.3876641 68.5360785,49.4864755 68.1805891,48.5472117 C65.6705891,41.3372117 59.8805891,38.2972117 53.0305891,36.7472117 C51.4005891,36.3772117 49.6205891,36.6872117 47.7305891,36.6872117 L46.2805891,30.8672117 C47.6454872,30.5588993 49.0281168,30.3351404 50.4205891,30.1972117 C51.961592,30.2691479 53.3610227,29.3034589 53.8405891,27.8372117 C56.4505891,21.2972117 56.7605891,14.7572117 54.0405891,8.18721171 C52.7805891,5.13721171 50.8205891,3.18721171 47.1405891,4.00721171 C46.9405891,4.00721171 46.6805891,3.86721171 46.4505891,3.78721171 C42.8605891,-1.48278829 36.4505891,-1.21278829 33.2405891,4.34721171 C32.4905891,5.63721171 31.9305891,7.04721171 31.0905891,8.27721171 C27.0105891,14.3372117 25.7205891,21.0672117 26.0905891,28.2772117 C26.2405891,31.0772117 26.5005891,31.4072117 29.0905891,32.1972117 C29.6305891,32.3672117 30.1605891,32.5672117 30.6605891,32.7372117 C29.7905891,36.9672117 29.1905891,37.7372117 25.8605891,39.3272117 C23.4739915,40.4704162 21.5481667,42.3927139 20.4005891,44.7772117 C17.0672557,51.330545 13.7339224,57.890545 10.4005891,64.4572117 C7.27058907,70.6572117 5.19058907,77.0772117 5.47058907,84.1872117 C5.42721884,86.6797812 5.01957249,89.1526111 4.26058907,91.5272117 C2.15058907,99.4772117 -0.219410931,107.347212 0.0305890692,115.727212 C0.0905890692,117.627212 -0.519410931,119.427212 1.79058907,120.467212 C2.26058907,120.677212 2.33058907,121.747212 2.61058907,122.407212 C4.23058907,126.217212 6.52058907,129.307212 10.8105891,130.407212 C13.5272824,131.205985 15.2747987,133.844144 14.9505891,136.657212 C14.489558,140.506641 14.8717334,144.410289 16.0705891,148.097212 C16.825016,150.210212 17.3774861,152.389958 17.7205891,154.607212 C18.5705891,162.607212 19.5605891,170.707212 19.8405891,178.777212 C20.2005891,189.227212 19.9305891,199.697212 19.9305891,210.617212 C16.4505891,212.557212 12.7405891,214.847212 8.83058907,216.727212 C6.17058907,218.007212 4.95058907,219.907212 5.37058907,222.637212 C5.4541617,223.21085 5.4541617,223.793573 5.37058907,224.367212 L54.6105891,224.347212 Z M47.6105891,201.747212 C46.7738853,203.653915 46.4597991,205.748973 46.7005891,207.817212 C47.136197,210.808498 46.3941148,213.85211 44.6305891,216.307212 C43.7840177,217.226517 43.0704155,218.259894 42.5105891,219.377212 C41.2105891,222.787212 38.7205891,223.377212 35.4105891,223.127212 C31.5905891,222.857212 27.7305891,223.067212 23.8905891,223.067212 L23.7205891,222.167212 L33.7205891,218.027212 C33.7865455,217.519344 33.7865455,217.005079 33.7205891,216.497212 C31.4005891,208.497212 32.8505891,200.147212 31.9805891,192.007212 C31.8915419,190.27505 32.3460613,188.558365 33.2805891,187.097212 C34.3910135,185.300601 34.921694,183.20581 34.8005891,181.097212 C34.7405891,169.763878 34.7139224,158.430545 34.7205891,147.097212 C34.6261123,146.09086 34.7073215,145.075744 34.9605891,144.097212 C35.2105891,143.417212 36.0605891,142.957212 36.6405891,142.397212 C37.1605891,142.987212 38.2005891,143.687212 38.1105891,144.167212 C37.0605891,149.527212 40.4805891,153.977212 40.9705891,159.027212 C41.4605891,164.077212 42.5705891,168.847212 43.4005891,173.747212 C43.4705891,174.117212 43.5405891,174.487212 43.6405891,174.847212 C45.0405891,179.987212 46.8505891,185.007212 46.4605891,190.527212 C46.3305891,192.277212 47.2405891,194.157212 47.8705891,195.897212 C48.5872176,197.800772 48.4932638,199.914732 47.6105891,201.747212 L47.6105891,201.747212 Z M47.3005891,39.6072117 L38.3005891,47.6072117 C36.2205891,45.1272117 34.4405891,43.1072117 32.7605891,40.9972117 C31.5805891,39.5172117 30.7605891,37.9972117 31.7605891,35.9372117 C32.1171645,34.8141406 32.3091584,33.6453354 32.3305891,32.4672117 L42.0605891,30.5772117 C44.0050766,31.6991887 45.2867295,33.6924571 45.5005891,35.9272117 C45.6805891,37.0472117 46.5505891,38.0972117 47.3005891,39.6072117 L47.3005891,39.6072117 Z M51.2505891,7.16721171 C55.0705891,13.5572117 54.7105891,20.1672117 52.1305891,26.8572117 C51.1305891,29.3472117 48.9305891,27.9972117 46.8405891,28.6072117 C48.2905891,23.4272117 49.9205891,18.8372117 50.7605891,14.1172117 C51.2005891,11.6272117 50.2605891,8.90721171 49.9205891,6.16721171 C50.2705891,6.41721171 50.9605891,6.67721171 51.2505891,7.16721171 L51.2505891,7.16721171 Z M28.1705891,30.1072117 C27.7405891,24.1072117 27.7505891,18.7272117 30.3305891,13.5572117 C31.6005086,10.8521593 33.371788,8.41240857 35.5505891,6.36721171 C38.076224,3.97016457 41.8939115,3.56054144 44.8705891,5.36721171 C48.3105891,7.36721171 49.8705891,10.5272117 48.9305891,14.1672117 C48.1005891,17.5472117 47.2305891,20.9172117 46.1805891,24.2272117 C45.7805891,25.4572117 45.0605891,27.0672117 44.0505891,27.5172117 C39.0849295,29.7877799 33.6003705,30.6823018 28.1705891,30.1072117 L28.1705891,30.1072117 Z M2.10058907,118.107212 C1.77220176,113.363674 2.10879475,108.597517 3.10058907,103.947212 C4.22058907,99.3572117 5.57058907,94.8272117 6.58058907,90.2172117 C7.22133082,87.4339385 7.57650229,84.5925668 7.64058907,81.7372117 C7.66195956,77.2347673 8.68681723,72.7937174 10.6405891,68.7372117 C12.7805891,64.2772117 15.0005891,59.8572117 17.1905891,55.4272117 C19.147417,59.7633299 19.147417,64.7310936 17.1905891,69.0672117 C13.8005891,76.7272117 13.1405891,84.9072117 12.5105891,93.0672117 C12.4044021,95.0535101 12.1300874,97.027238 11.6905891,98.9672117 C10.2709328,104.515383 9.85772634,110.273177 10.4705891,115.967212 C10.4864118,116.636058 10.4462719,117.305056 10.3505891,117.967212 L2.10058907,118.107212 Z M11.8505891,127.977212 C11.4507624,128.378417 10.8739622,128.548064 10.3205891,128.427212 C7.5533907,127.243971 5.44681308,124.903329 4.56058907,122.027212 C4.40058907,121.577212 5.24058907,120.327212 5.81058907,120.187212 C7.34510848,119.945033 8.8971583,119.831306 10.4505891,119.847212 C10.7105891,122.437212 9.18058907,124.937212 11.9805891,126.357212 C12.1805891,126.517212 12.1405891,127.617212 11.8505891,127.997212 L11.8505891,127.977212 Z M13.8505891,123.837212 C12.1805703,117.575664 11.6922317,111.057701 12.4105891,104.617212 C13.2005891,98.1972117 14.1805891,91.7972117 14.8605891,85.3672117 C15.3740203,80.2816546 16.5645507,75.2874806 18.4005891,70.5172117 C20.0205891,66.3972117 20.9805891,62.2572117 19.9205891,57.7572117 C19.2645614,54.5564791 19.5103621,51.2364385 20.6305891,48.1672117 C22.0805891,43.7372117 24.6305891,40.4872117 30.0205891,39.8472117 C31.9405891,42.4272117 33.9605891,45.0672117 35.9105891,47.7672117 C37.2905891,49.6672117 37.9705891,49.8972117 39.8205891,48.3772117 C42.7567562,46.0616315 45.5705536,43.5949692 48.2505891,40.9872117 C50.9605891,38.2472117 53.6605891,38.1172117 57.0005891,39.6472117 C64.7073376,43.1118602 69.5748814,50.8707409 69.3405891,59.3172117 C69.0905891,66.2672117 69.0105891,73.2372117 68.5305891,80.1672117 C68.2805891,83.8772117 67.2005891,87.5172117 66.7505891,91.2272117 C66.3908556,93.6727127 66.3706647,96.156185 66.6905891,98.6072117 C67.1933242,101.179619 66.9752976,103.840928 66.0605891,106.297212 C64.7405891,109.667212 63.1505891,112.937212 62.0605891,116.367212 C60.7805891,120.367212 59.9105891,124.467212 58.7305891,129.067212 L48.6105891,126.397212 C48.4897925,125.444358 48.4897925,124.480065 48.6105891,123.527212 C49.156251,121.352205 49.8409927,119.214474 50.6605891,117.127212 C52.6866536,112.01736 53.7053584,106.563894 53.6605891,101.067212 C53.7105891,93.3372117 53.9705891,85.6172117 54.0605891,77.8872117 C54.0605891,76.6272117 54.6605891,75.1272117 53.2105891,74.1272117 C51.7705891,74.9872117 52.2105891,76.3672117 52.2105891,77.5272117 C52.0805891,83.6372117 51.9105891,89.7472117 51.9905891,95.8472117 C52.1005891,103.907212 51.2705891,111.757212 48.0605891,119.257212 C47.4305891,120.727212 47.0605891,122.317212 46.5405891,123.917212 C41.1205891,123.467212 35.7305891,122.667212 30.3405891,122.657212 C24.9505891,122.647212 19.4905891,123.417212 13.8705891,123.857212 L13.8505891,123.837212 Z"/>
</svg>
