<svg id="Layer_1" data-name="Layer 1" xmlns="http://www.w3.org/2000/svg" viewBox="0 0 344 344">
  <rect x="0" y="75%" width="75%" height="25%" fill="#fff"></rect>
  <path
    d="M267,305.83a5,5,0,0,1,1.72-1.45l-1.63-.18c3.13-6.71,2.45-13.47,2.48-20.18a19.53,19.53,0,0,1,1.32-7.28c2.18-5.22,2.45-10.58,2.48-16.11,0-4.93-.94-9.34-4-13.28a11.78,11.78,0,0,1-2.43-7.71c.2-7.78,1.42-15.34,5-22.4a13.23,13.23,0,0,0,1.62-6c-.13-5.67,1.57-10.8,3.73-15.88.81-1.9,1.55-3.83,2.37-5.73a16.25,16.25,0,0,0,1.16-10,17.87,17.87,0,0,1-.06-5.93c.74-6.43,1.81-12.82,2.37-19.26.41-4.83.16-9.71.33-14.57a12.69,12.69,0,0,0-1.55-7.15,15,15,0,0,1-1.34-2.69c-2.51-7.21-8.3-10.25-15.15-11.8-1.63-.37-3.41-.06-5.3-.06l-1.45-5.82a34,34,0,0,1,4.14-.67,3.43,3.43,0,0,0,3.42-2.36c2.61-6.54,2.92-13.08.2-19.65-1.26-3.05-3.22-5-6.9-4.18-.2,0-.46-.14-.69-.22-3.59-5.27-10-5-13.21.56-.75,1.29-1.31,2.7-2.15,3.93-4.08,6.06-5.37,12.79-5,20,.15,2.8.41,3.13,3,3.92.54.17,1.07.37,1.57.54-.87,4.23-1.47,5-4.8,6.59a11.64,11.64,0,0,0-5.46,5.45q-5,9.83-10,19.68c-3.13,6.2-5.21,12.62-4.93,19.73a25.57,25.57,0,0,1-1.21,7.34c-2.11,7.95-4.48,15.82-4.23,24.2.06,1.9-.55,3.7,1.76,4.74.47.21.54,1.28.82,1.94,1.62,3.81,3.91,6.9,8.2,8a5.82,5.82,0,0,1,4.14,6.25,26.72,26.72,0,0,0,1.12,11.44,35.51,35.51,0,0,1,1.65,6.51c.85,8,1.84,16.1,2.12,24.17.36,10.45.09,20.92.09,31.84-3.48,1.94-7.19,4.23-11.1,6.11-2.66,1.28-3.88,3.18-3.46,5.91a6,6,0,0,1,0,1.73Zm-7-22.6a11.73,11.73,0,0,0-.91,6.07,11.67,11.67,0,0,1-2.07,8.49,13.38,13.38,0,0,0-2.12,3.07c-1.3,3.41-3.79,4-7.1,3.75-3.82-.27-7.68-.06-11.52-.06l-.17-.9,10-4.14a5.94,5.94,0,0,0,0-1.53c-2.32-8-.87-16.35-1.74-24.49a8.32,8.32,0,0,1,1.3-4.91,10.29,10.29,0,0,0,1.52-6q-.09-17-.08-34a8.72,8.72,0,0,1,.24-3c.25-.68,1.1-1.14,1.68-1.7.52.59,1.56,1.29,1.47,1.77-1.05,5.36,2.37,9.81,2.86,14.86s1.6,9.82,2.43,14.72c.07.37.14.74.24,1.1,1.4,5.14,3.21,10.16,2.82,15.68-.13,1.75.78,3.63,1.41,5.37A7.44,7.44,0,0,1,260,283.23Zm-.31-162.14-9,8c-2.08-2.48-3.86-4.5-5.54-6.61-1.18-1.48-2-3-1-5.06a12.2,12.2,0,0,0,.57-3.47l9.73-1.89a6.94,6.94,0,0,1,3.44,5.35C258.07,118.53,258.94,119.58,259.69,121.09Zm3.95-32.44c3.82,6.39,3.46,13,.88,19.69-1,2.49-3.2,1.14-5.29,1.75,1.45-5.18,3.08-9.77,3.92-14.49.44-2.49-.5-5.21-.84-7.95C262.66,87.9,263.35,88.16,263.64,88.65Zm-23.08,22.94c-.43-6-.42-11.38,2.16-16.55a23.64,23.64,0,0,1,5.22-7.19,7.72,7.72,0,0,1,9.32-1c3.44,2,5,5.16,4.06,8.8-.83,3.38-1.7,6.75-2.75,10.06-.4,1.23-1.12,2.84-2.13,3.29A30.47,30.47,0,0,1,240.56,111.59Zm-26.07,88a51,51,0,0,1,1-14.16c1.12-4.59,2.47-9.12,3.48-13.73a42,42,0,0,0,1.06-8.48,30.29,30.29,0,0,1,3-13c2.14-4.46,4.36-8.88,6.55-13.31a16.58,16.58,0,0,1,0,13.64c-3.39,7.66-4.05,15.84-4.68,24a35.21,35.21,0,0,1-.82,5.9,47.9,47.9,0,0,0-1.22,17,12,12,0,0,1-.12,2Zm9.75,9.87a1.66,1.66,0,0,1-1.53.45,10.24,10.24,0,0,1-5.76-6.4c-.16-.45.68-1.7,1.25-1.84a27.93,27.93,0,0,1,4.64-.34c.26,2.59-1.27,5.09,1.53,6.51C224.57,208,224.53,209.1,224.24,209.48Zm2-4.14a52.15,52.15,0,0,1-1.44-19.22c.79-6.42,1.77-12.82,2.45-19.25A57.39,57.39,0,0,1,230.79,152c1.62-4.12,2.58-8.26,1.52-12.76a17.64,17.64,0,0,1,.71-9.59c1.45-4.43,4-7.68,9.39-8.32,1.92,2.58,3.94,5.22,5.89,7.92,1.38,1.9,2.06,2.13,3.91.61a107.89,107.89,0,0,0,8.43-7.39c2.71-2.74,5.41-2.87,8.75-1.34a20.93,20.93,0,0,1,12.34,19.67c-.25,6.95-.33,13.92-.81,20.85-.25,3.71-1.33,7.35-1.78,11.06a26.84,26.84,0,0,0-.06,7.38,14.22,14.22,0,0,1-.63,7.69c-1.32,3.37-2.91,6.64-4,10.07-1.28,4-2.15,8.1-3.33,12.7L261,207.88a11.41,11.41,0,0,1,0-2.87,52.39,52.39,0,0,1,2.05-6.4,42.63,42.63,0,0,0,3-16.06c.05-7.73.31-15.45.4-23.18,0-1.26.6-2.76-.85-3.76-1.44.86-1,2.24-1,3.4-.13,6.11-.3,12.22-.22,18.32.11,8.06-.72,15.91-3.93,23.41-.63,1.47-1,3.06-1.52,4.66-5.42-.45-10.81-1.25-16.2-1.26S231.88,204.9,226.26,205.34Z"
  />
  <path d="M274.12,345l-.2-45.83H174.27A179.69,179.69,0,0,0,69.45,332.91L53.39,344.45" />
</svg>
