<svg xmlns="http://www.w3.org/2000/svg" width="65" height="73" viewBox="0 0 65 73">
  <path d="M294.832333,33.66857 L274,32.186657 C274.331801,29.9273469 274.545101,27.9595608 274.948002,26.0160682 C277.564215,11.4382482 289.718779,0.68692824 304.170148,0.167617656 C309.228494,-0.288699329 314.325678,0.188531487 319.219672,1.57664974 C331.582104,5.19083894 339.799975,17.1682937 338.938104,30.3160454 C338.648525,38.2048836 335.366156,45.6662392 329.789889,51.1114154 C327.546964,53.4687847 325.173002,55.6913109 322.679878,57.7678773 C318.509038,60.7225596 316.188383,65.7300316 316.588968,70.9107455 C316.624066,71.3554027 316.624066,71.8022395 316.588968,72.2468966 C316.588968,72.2468966 316.470468,72.4412459 316.091267,73 L296.420236,73 C295.898835,65.2746172 295.614435,57.9622266 301.847545,52.2289236 C305.44995,48.9249864 308.957556,45.4024062 312.299261,41.8555323 C313.996784,40.0853266 315.520879,38.1487642 316.849668,36.073642 C319.014511,32.7880686 319.088814,28.503869 317.039269,25.1414966 C315.198022,21.9186816 311.677818,20.1097337 308.056954,20.5257018 C302.207792,20.3507891 297.042067,24.4083466 295.685535,30.2431645 C295.353734,31.263498 295.164134,32.3567126 294.832333,33.66857 Z" transform="translate(-274)"/>
</svg>
