<svg xmlns="http://www.w3.org/2000/svg" width="58" height="72" viewBox="0 0 58 72">
  <path stroke="#000" stroke-width=".9" d="M340.602462,48.9165488 C330.426296,54.1676096 329.227717,56.781471 328.9692,60.9823197 C328.965739,63.1744163 329.09917,65.3646167 329.368726,67.5403112 C329.509736,68.9872702 319.968111,70.5509194 319.19256,68.8472419 C317.841365,66.3547639 316.784626,63.7156318 316.043354,60.9823197 C314.327742,54.6810467 315.902345,47.3528996 325.279459,43.0120226 C331.883391,39.8613861 341.378013,35.1471004 342.7176,26.0919378 C343.333436,22.0806444 342.107896,18.0062903 339.377479,14.9875729 C336.647061,11.9688555 332.698766,10.3230777 328.616677,10.5021216 C316.865908,10.5021216 313.575692,19.5572843 311.86008,31.8797737 L303,31.0862801 L303.658043,5.13437058 C311.937702,2.04148346 320.669068,0.307358281 329.509736,-5.68434189e-14 C349.979576,-5.68434189e-14 359.732714,12.9992928 358.957164,26.3719943 C358.017102,40.7949081 347.981945,45.112447 340.602462,48.9165488 Z" transform="translate(-302 1)"/>
</svg>
