<svg xmlns="http://www.w3.org/2000/svg" width="65" height="71" viewBox="0 0 65 71">
  <path d="M20.6,32.31875 C13.7,31.81875 7.1,31.41875 0,30.91875 C0.3,28.71875 0.5,26.81875 0.9,25.01875 C4,10.51875 15,1.01875 29.7,0.11875 C34.7,-0.18125 39.7,0.01875 44.6,1.51875 C57.1,5.31875 64.6,16.21875 64.1,29.21875 C63.8,37.21875 60.6,43.71875 55.1,49.21875 C52.9,51.41875 50.6,53.71875 48.1,55.61875 C44,58.91875 41.6,62.91875 42.1,68.31875 C42.1,68.71875 42,69.21875 42,69.61875 C42,69.71875 41.9,69.81875 41.5,70.31875 C38.6,70.31875 35.4,70.31875 32.1,70.31875 C28.8,70.31875 25.6,70.31875 22,70.31875 C21.5,62.91875 21.2,55.81875 27.4,50.31875 C31,47.11875 34.4,43.71875 37.7,40.31875 C39.4,38.61875 40.9,36.71875 42.2,34.71875 C44.4,31.31875 44.3,27.61875 42.4,24.21875 C40.5,20.81875 37.3,19.71875 33.5,19.81875 C27.3,20.01875 23,23.31875 21.3,29.21875 C21.2,29.91875 21,30.91875 20.6,32.31875 Z" transform="translate(.5 .084)"/>
</svg>
