<svg xmlns="http://www.w3.org/2000/svg" width="81" height="108" viewBox="0 0 81 108">
  <path d="M55.5,62.4444444 C63.9,77.2444444 72.2,91.9444444 80.8,107.044444 C79.6,107.144444 78.8,107.244444 78.1,107.244444 C71.1,107.244444 64,107.144444 57,107.344444 C54.8,107.344444 53.8,106.544444 52.9,104.644444 C47,92.4444444 40.9,80.2444444 34.9,68.0444444 C34.3,66.9444444 33.7,65.8444444 33.1,64.5444444 C29.5,64.5444444 26,64.5444444 22.1,64.5444444 C22.1,78.7444444 22.1,92.7444444 22.1,107.044444 C14.6,107.044444 7.4,107.044444 0,107.044444 C0,71.4444444 0,36.0444444 0,0.344444444 C0.9,0.244444444 1.8,0.0444444444 2.6,0.0444444444 C15.3,0.0444444444 28,-0.0555555556 40.7,0.0444444444 C46.9,0.144444444 53.1,0.944444444 59,3.34444444 C69.4,7.44444444 75.1,15.1444444 76.7,26.1444444 C77.5,31.5444444 77.4,36.9444444 76,42.2444444 C73.4,51.8444444 67.7,58.5444444 57.9,61.3444444 C57.4,61.5444444 56.8,61.6444444 56.3,61.8444444 C56.1,61.8444444 56,61.9444444 55.5,62.4444444 Z M22.2,44.0444444 C29.2,44.0444444 35.9,44.1444444 42.5,43.9444444 C44.2,43.9444444 45.9,43.2444444 47.5,42.7444444 C49.9,41.9444444 51.7,40.2444444 52.8,38.0444444 C56.2,31.1444444 52.9,23.3444444 45.6,21.1444444 C44.7,20.8444444 43.8,20.6444444 42.9,20.5444444 C36.9,20.3444444 30.9,20.1444444 25,20.0444444 C24.1,20.0444444 23.2,20.1444444 22.2,20.2444444 C22.2,28.2444444 22.2,36.0444444 22.2,44.0444444 Z" transform="translate(.1 .658)"/>
</svg>
