<svg xmlns="http://www.w3.org/2000/svg" width="74" height="112" viewBox="0 0 74 112">
  <path d="M0,97.5699952 C5.7,91.1699952 10.8,85.3699952 16.2,79.2699952 C17.1,80.3699952 17.8,81.2699952 18.6,81.9699952 C25.6,88.5699952 33.7,90.7699952 43,87.9699952 C44.8,87.4699952 46.6,86.4699952 48,85.2699952 C52.7,81.4699952 52.8,74.4699952 47.9,70.8699952 C45,68.6699952 41.5,67.1699952 38,65.7699952 C34,64.1699952 29.8,63.1699952 25.8,61.5699952 C21.8,59.8699952 17.7,58.0699952 14,55.6699952 C7.2,51.1699952 3.8,44.4699952 3.3,36.2699952 C2.4,19.1699952 12.6,7.26999523 26.2,2.76999523 C39.7,-1.63000477 53,-0.830004769 65.7,5.46999523 C68.5,6.86999523 70.9,8.96999523 73.8,10.8699952 C68.4,16.8699952 63.4,22.5699952 58.3,28.2699952 C53.2,23.0699952 47.1,21.1699952 40.3,21.5699952 C36.7,21.7699952 33.4,22.7699952 30.5,24.8699952 C25.3,28.7699952 25.3,36.2699952 30.8,39.7699952 C33.9,41.7699952 37.5,43.0699952 40.9,44.3699952 C44.5,45.7699952 48.3,46.5699952 51.9,47.9699952 C54.9,49.0699952 57.8,50.2699952 60.5,51.8699952 C68.4,56.3699952 73,63.1699952 73.7,72.3699952 C75.2,90.5699952 65.7,103.869995 49.5,108.469995 C35.4,112.369995 21.7,111.469995 8.8,104.069995 C6,102.269995 3.2,99.8699952 0,97.5699952 Z" transform="translate(.1 .433)"/>
</svg>
