<svg xmlns="http://www.w3.org/2000/svg" width="73" height="111" viewBox="0 0 73 111">
  <path d="M71.6,11.1025687 C66.3,17.2025687 61.6,22.7025687 56.5,28.6025687 C53.6,25.3025687 50.1,23.4025687 46.1,22.4025687 C41,21.2025687 36,21.4025687 31.3,24.0025687 C27.1,26.2025687 25.5,29.5025687 26.1,34.1025687 C26.4,36.9025687 27.8,39.1025687 30.2,40.4025687 C33.1,42.0025687 36,43.4025687 39.1,44.5025687 C43,46.0025687 47,47.1025687 51,48.5025687 C55.2,49.9025687 59.1,52.0025687 62.5,54.8025687 C70.6,61.6025687 72.4,70.7025687 71.4,80.6025687 C69.8,96.6025687 58.8,107.902569 40.7,110.302569 C31,111.602569 21.5,110.602569 12.5,106.402569 C7.9,104.302569 3.9,101.402569 0,97.5025687 C5.1,91.6025687 10.1,85.7025687 15.2,79.7025687 C16.2,80.7025687 17.1,81.5025687 18,82.4025687 C24.4,88.5025687 31.9,90.7025687 40.5,88.5025687 C42.4,88.0025687 44.3,87.0025687 45.9,85.8025687 C50.9,82.0025687 51.2,74.7025687 46.1,70.9025687 C43.5,68.9025687 40.3,67.4025687 37.2,66.1025687 C33.5,64.5025687 29.5,63.5025687 25.7,62.0025687 C23,61.0025687 20.2,59.9025687 17.6,58.5025687 C5.6,51.9025687 1.9,42.5025687 3.4,29.9025687 C5,16.2025687 12.9,7.10256865 25.8,2.70256865 C38.7,-1.69743135 51.5,-0.697431346 63.6,5.50256865 C66.3,7.10256865 68.7,9.10256865 71.6,11.1025687 Z" transform="translate(.7)"/>
</svg>
