<svg xmlns="http://www.w3.org/2000/svg" width="518" height="228" viewBox="0 0 518 228">
  <path stroke="#000" stroke-width=".9" d="M53.1375291 87.0552919C53.1375291 89.7100142 53.7902098 90.2268628 55.6317016 90.6262458L63.8834499 92.4822022 63.6270396 100 24 100 24.2564103 92.3412435 32.1351981 90.3678215C34.0932401 89.8274798 35.002331 89.5690555 35.002331 86.9378263 35.2587413 52.4734219 35.002331 14.3440911 35.002331 14.3440911 35.002331 11.6893688 34.2097902 11.1725202 32.3682984 10.7731372L24.1165501 8.91718083 24.3729604 1 64 1 63.6270396 8.79971523 56.027972 10.8906028C54.0699301 11.4309445 53.3939394 11.6893688 53.2773893 14.3440911 52.8811189 29.5206455 52.8811189 75.1912672 53.1375291 87.0552919zM125.732444 72.5570852C125.732444 50.3952976 77.7408708 63.7764402 76.3293539 28.4903907 75.6706461 14.0583731 86.3746489 0 109.264747 0 119.0925.256284535 128.827818 1.9561293 138.153792 5.04420032L139.047753 31.105902 130.578652 31.8998965C128.602528 19.569629 124.626756 10.5087507 110.34691 10.5087507 99.5252809 10.5087507 91.3149579 18.7756345 93.3146067 28.0933934 97.8079354 48.0366669 143 36.3602773 143 71.5295629 143 87.3861 130.061096 99.9966008 108.770716 99.9966008 98.0954382 100.088666 87.4875491 98.3099317 77.4350421 94.7422255L76 68.4937016 84.9396067 68.0967043C86.7745787 82.1083719 93.3851826 89.4878501 107.523876 89.4878501 117.261377 89.8025341 125.412847 82.2231003 125.732444 72.5570852zM252.696523 1L254 28.5809207 246.807602 28.9803037C246.807602 28.9803037 243.013553 16.4349786 241.826458 13.0049834 241.427867 11.6192191 240.134943 10.6940584 238.707425 10.7731372 233.726282 10.7731372 228.628757 10.7731372 223.251915 10.8906028 222.995875 33.209065 222.995875 75.4496915 223.251915 86.9378263 223.251915 89.5690555 223.92693 90.2268628 225.742487 90.5087803L234.63406 92.3412435 234.37802 100 193.318503 100 193.574543 92.2237779 202.070418 90.2268628C204.04891 89.8274798 204.956688 89.4515899 204.956688 86.7968676 205.212728 55.6449929 204.81703 18.8312767 204.81703 10.8906028 199.463465 10.7731372 194.87802 10.7731372 190.176193 10.7731372 188.778007 10.7057222 187.524648 11.6373336 187.173542 13.0049834 185.870065 16.4349786 182.192398 28.9803037 182.192398 28.9803037L175 28.5809207 176.187095 1 252.696523 1zM304.034716 1L303.777483 8.64968002 296.15405 10.7615549C294.18973 11.2777909 293.394648 11.5593743 293.394648 14.1874852L292.997107 42.8151221C305.624879 43.0732401 320.333896 42.9559137 331.885969 42.6977957 331.885969 24.4887414 331.769045 14.2109505 331.769045 14.2109505 331.769045 11.5828395 331.114272 11.0431382 329.266876 10.6442285L320.988669 8.81393695 321.245902 1.02346528 361 1.02346528 360.719383 8.6731453 353.119335 10.7850201C351.014706 11.3012562 350.219624 11.5828395 350.219624 14.2109505 349.822083 35.329699 349.822083 74.9860156 350.079315 86.9533065 350.079315 89.6048827 350.734089 90.2619104 352.721794 90.5200284L361 92.3737853 360.719383 99.8826736 320.965284 99.8826736 321.222517 92.2329936 329.103182 90.5200284C331.090887 90.0037924 331.862584 89.7222091 331.862584 87.0940981L331.862584 53.4683574C319.398505 53.2102394 304.666104 53.2102394 292.973722 53.4683574 292.973722 69.0258355 293.114031 81.0165916 293.230955 87.0706329 293.230955 89.7222091 293.909113 90.2384451 295.733124 90.6373548L304.011331 92.4911116 303.754098 100 264 100 264.280617 92.35032 272.161283 90.6373548C274.125603 90.1211187 275.037608 89.8395354 275.037608 87.2114245 275.318226 52.8113297 275.037608 14.3048116 275.037608 14.3048116 275.037608 11.6767006 274.242527 11.1369993 272.39513 10.7380896L264.116924 8.90779806 264.397541 1.11732638 304.034716 1zM401.246055 87.0552919C401.246055 89.7100142 401.900643 90.2268628 403.724138 90.6262458L412 92.4822022 411.74284 100 372 100 372.25716 92.3412435 380.135593 90.3678215C382.099357 89.8274798 383.034483 89.5690555 383.034483 86.9378263 383.291642 52.4734219 382.894214 14.3440911 382.894214 14.3440911 382.894214 11.6893688 382.099357 11.1725202 380.275862 10.7731372L372 8.91718083 372.25716 1 412 1 411.74284 8.79971523 404.121566 10.8906028C402.157802 11.4309445 401.503214 11.6893688 401.362946 14.3440911 400.965517 29.5206455 400.965517 75.1912672 401.246055 87.0552919zM472.762022 72.6078396C472.762022 50.4305497 424.810811 63.8210525 423.376272 28.51032 422.717796 14.0682071 433.418041 0 456.300105 0 466.140232.25185981 475.888321 1.95295265 485.226044 5.04772879L486.025623 31.0575536 477.559495 31.8521035C475.584065 19.5132108 471.633205 10.4459943 457.358371 10.4459943 446.517024 10.4459943 438.333099 18.7186609 440.308529 28.0429377 444.800281 48.0001618 490 36.3156044 490 71.5094912 490 87.3771202 477.04212 99.9964422 455.759214 99.9964422 445.095179 100.09072 434.498357 98.3106378 424.458055 94.7383913L423 68.4715063 431.983503 68.0742314C433.841348 82.0957002 440.449631 89.4803405 454.583363 89.4803405 464.286716 89.7955578 472.417231 82.2492291 472.762022 72.6078396L472.762022 72.6078396zM119.085759 134.628023L111.560852 136.740398C109.474507 137.280228 108.677476 138.19559 108.677476 140.167141 108.677476 162.323613 108.935339 182.414651 109.193202 212.926743 109.193202 215.578947 109.84958 216.236131 111.842157 216.49431L120 218.348506 119.742137 226 80.2187927 226 80.4766556 218.207681 88.2594257 216.236131C90.3692127 215.696302 91.1662434 214.640114 91.1662434 212.809388L91.1662434 149.438122 64.6766947 212.973684 53.8698965 215.320768 51.9007619 214.405405 25.6925181 149.414651 25.6925181 212.785917C25.6925181 215.555477 26.3488963 216.071835 28.2008205 216.470839L36.8978316 218.325036 36.6165267 225.976529 0 225.976529.375073256 218.137269 8.27505372 216.564723C10.1035358 216.283073 11.8148076 215.625889 11.8148076 212.997155L12.8697011 140.073257C13.0107223 139.249204 12.8104969 138.403185 12.3151534 137.730108 11.8198099 137.057031 11.0720658 136.614942 10.2441883 136.50569L1.94569252 134.651494 2.34420785 127.023471 35.5381911 127.023471 61.0666146 189.64367 86.5481539 127 119.601485 127 119.085759 134.628023zM131 226L131.258824 218.200285 138.647059 216.88467C140.647059 216.485287 141.564706 216.085904 141.564706 213.454675 141.823529 178.990271 141.423529 139.521832 141.423529 139.521832 141.423529 136.890603 140.647059 136.232795 138.788235 135.974371L131 134.776222 131.258824 127 199.494118 127 201.070588 154.439962 193.8 154.839345C191.447059 148.778121 189.447059 142.29402 188.129412 138.864025 187.728315 137.389662 186.337969 136.405122 184.811765 136.514713 176.364706 136.514713 163 136.514713 163 136.514713 161.023529 136.914096 160.223529 137.313479 160.223529 139.944708 160.223529 148.801614 159.964706 157.376602 159.964706 170.180351L176.270588 170.180351C179.047059 170.180351 179.705882 169.522544 179.988235 167.666588L181.164706 160.289748 189.494118 160.289748 189.494118 189.327243 181.164706 189.60916 179.847059 182.866635C179.447059 180.893213 179.047059 180.352871 176.270588 180.094447 174.552941 180.094447 167.823529 180.094447 166.623529 180.094447L159.941176 180.094447C159.941176 192.898196 160.082353 205.161604 160.082353 210.306597 160.082353 216.908163 163.635294 215.850973 165.894118 215.850973 167.470588 215.850973 179.376471 215.850973 183.070588 215.850973 185.320977 216.004822 187.544613 215.289982 189.282353 213.854058 191.635294 211.504746 194.176471 207.534409 199.729412 198.019696L207 199.47627 200.929412 225.882534 131 226zM239 225.976512L239.258129 218.319573 246.650017 216.980783C248.621187 216.604982 249.536373 216.205694 249.536373 213.551601 249.817968 179.118861 249.536373 139.518861 249.536373 139.518861 249.536373 136.888256 248.738518 136.230605 246.88468 135.972242L239.117332 134.774377 239.375461 127 307.427757 127 309 154.433452 301.74891 154.83274C299.40228 148.772954 297.384177 142.290391 296.070064 138.86121 295.679767 137.390797 294.301037 136.405099 292.78478 136.512456 284.336909 136.512456 271.031512 136.512456 271.031512 136.512456 269.036876 136.911744 268.262487 137.311032 268.262487 139.941637 268.12169 148.796441 267.980892 158.731673 267.980892 171.626335L284.219578 171.626335C286.988602 171.626335 287.645659 170.968683 287.903788 169.113167L289.077104 161.738078 297.384177 161.738078 297.384177 190.768683 289.077104 191.027046 287.76299 184.309609C287.364063 182.336655 286.988602 181.796441 284.219578 181.538078 282.506537 181.397153 275.771706 181.397153 274.574925 181.397153L267.980892 181.397153C267.86356 194.197865 268.262487 203.170107 268.262487 213.081851 268.262487 215.712456 268.919544 216.370107 270.749916 216.62847L278.493798 218.202135 278.751928 226 239 225.976512zM319 175.242601C319 144.946632 341.240028 126 369.232188 126 394.243486 126 420 142.49965 420 174.939641 420 209.383827 395.803781 226 369.232188 226 342.660595 226 319 209.686786 319 175.242601zM399.599723 175.102773C399.599723 146.950827 384.299516 136.230715 369.32534 136.230715 354.351164 136.230715 339.050957 146.041948 339.050957 175.102773 339.050957 205.888138 355.934748 215.18667 369.32534 215.18667 383.5543 215.093451 399.599723 205.49196 399.599723 175.102773zM457.232238 185.013856C457.232238 197.02967 457.372216 208.482244 457.372216 212.988174 457.372216 215.616634 458.025451 216.132938 459.868505 216.531901L468.127253 218.127751 467.847296 225.778446 428 225.778446 428.256628 218.010409 436.1421 216.297217C438.101803 215.898255 439.011665 215.499292 439.011665 212.870832 439.011665 178.442707 438.895016 139.273967 438.895016 139.273967 438.895016 136.645508 438.101803 135.988393 436.258749 135.73024L428.326617 134.650695 428.606575 127 467.264051 127C489.544008 127 504.591729 135.307809 504.591729 154.293735 504.93277 166.852766 497.216642 178.21174 485.461294 182.455801 491.223754 191.303384 501.442206 207.919003 503.938494 211.204577 506.434783 214.490151 508.604454 216.743116 512.057264 217.142079L516 217.541042 516 225.989661 504.45175 225.989661C497.40626 226.211167 490.720388 222.861594 486.651113 217.071674L467.007423 185.553629 466.867444 185.553629C463.648018 185.561923 460.430841 185.381694 457.232238 185.013856L457.232238 185.013856zM457.488865 174.335739C461.029791 175.027702 464.645753 175.248631 468.243902 174.992854 478.742312 174.218397 485.811241 168.797199 485.811241 154.035583 485.811241 139.67293 473.889714 136.622039 467.730647 136.622039 465.060101 136.559721 462.388213 136.653753 459.728526 136.90366 458.282078 137.279154 457.628844 137.560775 457.628844 139.790272 457.488865 146.924662 457.488865 163.141318 457.488865 174.335739z" transform="translate(1 1)"/>
</svg>
