<svg xmlns="http://www.w3.org/2000/svg" width="517" height="237" viewBox="0 0 517 237">
  <path d="M491.320116 187.809925L517 232.770836C515.765847 232.770836 515.006368 232.983027 514.246889 232.983027 507.126773 232.983027 500.006657 232.983027 492.886541 232.983027 491.016121 233.153887 489.274422 232.019983 488.685673 230.248121 482.657308 217.917467 476.510275 205.657544 470.410709 193.374044 469.8411 192.242358 469.224023 191.016366 468.583213 189.884681L457.452098 189.884681 457.452098 232.676529 435 232.676529 435 125.284315C435.896488 125.144637 436.799528 125.050209 437.705644 125.001393 450.56932 125.001393 463.432996 125.001393 476.296671 125.001393 482.633125 124.955033 488.924204 126.065874 494.85644 128.278565 504.80668 131.831037 511.803075 140.764296 512.822865 151.218768 513.689771 156.628234 513.431292 162.156809 512.063386 167.463167 510.084638 176.807047 502.996419 184.258305 493.717221 186.74897 493.147612 186.89043 492.601737 187.079044 492.055861 187.244082 491.793144 187.409149 491.546791 187.598612 491.320116 187.809925L491.320116 187.809925zM457.475832 169.325732C464.595948 169.325732 471.360058 169.325732 478.124168 169.325732 479.873185 169.195186 481.588886 168.781044 483.203184 168.09974 485.542316 167.28396 487.467421 165.591593 488.567004 163.384385 490.258232 160.199487 490.414055 156.426934 488.991172 153.115105 487.568289 149.803276 484.718329 147.305096 481.233285 146.314799 480.351438 146.011579 479.434232 145.821427 478.503907 145.748956 472.428075 145.536765 466.375977 145.348151 460.300145 145.20669 459.35505 145.233475 458.412172 145.312185 457.475832 145.442458L457.475832 169.325732zM430 178.77356C429.958401 189.14578 427.565339 199.373706 423.000618 208.688853 417.144301 220.7304 406.586423 229.831548 393.808657 233.853033 380.527155 238.384419 366.06097 238.01175 353.030688 232.802536 337.31194 226.571178 327.254808 214.609836 322.763737 198.112257 318.226638 182.724153 319.301745 166.226096 325.797599 151.556136 332.50169 135.727398 346.998067 124.553498 364.019479 122.094467 375.253 119.879495 386.89141 121.042666 397.463624 125.436958 413.994588 132.456188 423.741167 145.372528 427.873908 162.968354 429.020564 168.12534 429.307228 173.4972 430 178.77356zM343.427441 179.895682C343.435036 184.30899 344.144627 188.693029 345.529644 192.883646 349.445154 205.498582 360.988918 214.201423 374.201123 214.499067 387.413328 214.796712 399.337734 206.622563 403.818012 194.196768 406.538332 186.825874 407.215144 178.857277 405.776883 171.133581 403.196906 156.068498 393.40255 145.324778 378.543794 143.701282 365.019476 141.843031 351.950545 149.365619 346.771855 161.989482 344.405121 167.655438 343.26533 173.757946 343.427441 179.895682L343.427441 179.895682zM265.499412 168.932608L308.459108 168.932608 308.459108 190.753483C304.965115 191.135051 301.424223 190.872723 297.906781 190.920419 294.389338 190.968115 290.754648 190.920419 287.190306 190.920419L265.288365 190.920419C265.00697 195.690009 265.288365 200.22112 265.147667 204.799927 265.00697 209.378733 265.147667 213.862148 265.147667 218.393259L265.147667 232.70203C257.526542 233.250532 250.116464 232.845117 242.776734 232.988205 241.979447 230.245691 241.698052 130.775886 242.40154 125.672425 244.887199 124.90929 307.638371 124.718507 312 125.505489L312 146.968645C308.107364 147.326364 304.214728 147.087885 300.275192 147.135581 296.335657 147.183277 292.654067 147.135581 288.83178 147.135581L265.733908 147.135581C264.859075 154.369789 264.780423 161.680666 265.499412 168.932608L265.499412 168.932608zM195.367361 145.498658L150.024849 145.498658 150.024849 165.361807C153.621222 165.551431 157.217596 165.361807 160.813969 165.361807L192.969778 165.361807 192.969778 186.860465 149.883815 186.860465C149.719275 194.232111 149.719275 201.248211 149.883815 208.667263L198 208.667263 198 230 128 230 128 124 195.367361 124 195.367361 145.498658zM114 124.256733L114 229.718668 91.9639791 229.718668C91.7491099 220.918408 91.9639791 212.094619 91.9639791 203.270829 91.9639791 194.447039 91.9639791 185.7409 91.9639791 176.9877 91.9639791 168.234501 91.9639791 159.246 91.6058639 150.28103 82.4381152 176.681809 73.8910995 203.247299 65.081466 229.789258L48.0113089 229.789258C39.6393717 203.247299 31.2594764 176.736712 22.871623 150.2575L22.107644 150.39868 22.107644 229.295126C14.7668844 230.118297 7.36131284 230.220764 0 229.601017L0 124.633214C11.2057098 123.886563 22.4466618 123.800132 33.6628272 124.374383L56.6776963 192.37639 57.417801 192.37639C65.153089 169.677681 72.888377 146.931911 80.6236649 124.139082L114 124.256733zM479 10.9584047L463.57881 28.6783367C460.803982 25.5232668 457.07921 23.3386737 452.955853 22.4479328 447.891928 21.0381667 442.476256 21.6061205 437.821125 24.0351459 433.871894 25.8107341 431.668888 30.045891 432.497711 34.2691174 432.698953 36.9629897 434.275163 39.367371 436.675278 40.6416597 439.596487 42.2414041 442.627773 43.6346606 445.746566 44.8110555 449.733159 46.3271994 453.862982 47.4643074 457.897319 48.8383128 462.183542 50.2445168 466.172768 52.420653 469.666122 55.2582347 477.973512 62.1519515 479.763898 71.3198843 478.73741 81.3169582 477.090255 97.5681258 465.846632 108.962895 447.36985 111.426629 437.638848 112.894911 427.687583 111.528818 418.723676 107.49413 413.963664 105.290386 409.651143 102.239242 406 98.492026L421.540549 80.487817C422.614781 81.5064762 423.474166 82.3593071 424.381295 83.1884483 430.279091 89.2984444 439.090404 91.6848583 447.298234 89.3951625 449.297257 88.8439527 451.17536 87.92813 452.836494 86.6945311 455.241775 84.9400075 456.681819 82.1701585 456.728676 79.2081225 456.775534 76.2460864 455.423812 73.4327449 453.075213 71.6041612 450.257958 69.6489153 447.201761 68.0568481 443.980052 66.8662115 440.160562 65.2789983 436.126226 64.1892699 432.258993 62.7441952 429.433977 61.7415044 426.682163 60.5462731 424.023218 59.1670432 411.729235 52.4628443 407.957489 42.9869449 409.509156 30.2181703 411.180183 16.3359776 419.224984 7.19173464 432.402224 2.73806189 445.103092-1.73374431 459.114158-.693293381 471.002943 5.60452148 473.776723 7.22474635 476.447451 9.01275009 479 10.9584047zM375 5L397 5 397 111C389.810458 111 382.620915 111 375.095861 111L375 5zM296.528606 111L274.694316 111C273.979999 108.375418 273.718083 10.5329021 274.384779 5.07093464L296.361932 5.07093464 296.361932 44.1795673 339.554301 44.1795673 339.554301 5 361.293349 5C362.102909 7.36448807 362.293393 107.051305 361.460023 110.95271L339.816218 110.95271C339.518522 107.248161 339.446959 103.52911 339.601922 99.8159714 339.601922 95.9145661 339.601922 92.0368057 339.601922 88.1354004L339.601922 65.4126701 296.528606 65.4126701 296.528606 111zM238.123606 111L215.73316 111 215.73316 25.5565722 187.667606 25.5565722C186.865934 18.7313672 186.786016 11.841699 187.429156 5L266.356075 5C267.125785 11.7955362 267.205669 18.6505776 266.594525 25.4619505L238.123606 25.4619505 238.123606 111zM82 99.6449795L98.848795 81.1371478C99.7956293 82.2008163 100.499686 83.1462994 101.276575 83.9026859 107.825746 90.4818469 117.659359 92.8409468 126.598323 89.9774148 128.504833 89.4026646 130.277861 88.4713008 131.818051 87.2355138 134.16217 85.5161027 135.540684 82.8245695 135.540684 79.9671125 135.540684 77.1096554 134.16217 74.4181222 131.818051 72.6987112 128.634629 70.5773193 125.203595 68.8316981 121.597096 67.4985541 117.46987 65.8675958 113.075587 64.9221127 108.972639 63.2438802 104.741816 61.6369124 100.677275 59.642447 96.8337373 57.2873366 90.007968 52.948843 85.8552841 45.5808457 85.7630594 37.6449252 84.51619 22.3329506 94.4180518 8.251266 109.531028 3.84390444 123.016053-.735057114 137.836911.246846575 150.560514 6.56216835 153.487294 8.21112258 156.301315 10.04289 158.984912 12.0459703L142.888729 29.631956C138.015511 24.7417992 131.143244 22.2424751 124.170543 22.8244777 120.499306 22.9241874 116.944848 24.1024563 113.973866 26.2045797 111.403817 27.9316839 109.895852 30.7995021 109.95937 33.8392683 110.022888 36.8790346 111.649406 39.6847668 114.289477 41.3086723 117.613006 43.240136 121.136616 44.8247166 124.801766 46.0360877 128.51627 47.4070382 132.424996 48.3997955 136.163777 49.6289235 139.251943 50.7038438 142.247533 52.0158881 145.122287 53.5526784 153.111575 57.6192124 158.31995 65.4724043 158.839245 74.2351212 160.393024 92.5774933 150.584792 106.097902 133.687442 110.659858 119.588417 114.923153 104.305771 113.314578 91.468343 106.216087 88.1665618 104.372395 85.3017811 101.961413 82 99.6449795zM72.2777103 111L50.6859584 111C49.9008038 108.423857 49.7290512 9.08874025 50.4896697 5L72.3758546 5C73.2591535 8.00156076 73.1855453 108.471126 72.2777103 111z"/>
</svg>
