<?xml version="1.0" encoding="UTF-8" standalone="no"?>
<!-- Created with Keyshape -->
<svg xmlns="http://www.w3.org/2000/svg" xmlns:xlink="http://www.w3.org/1999/xlink" viewBox="0 0 1000 1300" text-rendering="geometricPrecision" shape-rendering="geometricPrecision" style="white-space: pre;">
    <g id="WwKtye.tif-2" opacity="0" transform="translate(41.0197,874.232) translate(0,0) rotate(123.94) scale(6,6) translate(-9.74241,-12.418)">
        <path d="M350.18,407.84L349.51,406.67C349.38,406.43,349.28,406.37,349.07,406.61C348.24,407.61,347.39,408.61,346.55,409.55L346.28,409.84C346.06,409.37,345.85,408.96,345.66,408.53C345.621,408.423,345.621,408.307,345.66,408.2C346.2,407.01,346.73,405.83,347.28,404.65C347.395,404.443,347.376,404.187,347.23,404C346.68,403.14,346.14,402.27,345.67,401.36C344.99,400.06,344.38,398.73,343.75,397.41L343.58,397.06L337.22,404.61C336.8,403.75,336.41,402.95,336.03,402.14C335.996,402.046,335.996,401.944,336.03,401.85C336.76,400.48,337.48,399.11,338.23,397.75C338.376,397.525,338.376,397.235,338.23,397.01C337.9,396.4,337.62,395.77,337.32,395.15C337.194,394.927,337.164,394.662,337.238,394.417C337.311,394.171,337.482,393.967,337.71,393.85C338.193,393.677,338.729,393.897,338.95,394.36L339.39,395.26L339.48,395.34C339.67,394.97,339.87,394.62,340.06,394.27C340.39,393.65,340.71,393.03,341.06,392.42C341.169,392.235,341.169,392.005,341.06,391.82C340.44,390.56,339.83,389.3,339.25,388.03C338.911,387.315,338.747,386.531,338.77,385.74C338.774,385.567,338.815,385.396,338.89,385.24C338.949,385.129,339.051,385.047,339.172,385.013C339.292,384.979,339.422,384.996,339.53,385.06C340.033,385.317,340.457,385.704,340.76,386.18C341.093,386.644,341.39,387.132,341.65,387.64C342.19,388.71,342.65,389.79,343.22,390.86C343.285,390.99,343.401,391.088,343.54,391.13L346.81,391.73C346.81,391.73,346.87,391.73,346.95,391.73C346.77,391.37,346.6,391.03,346.44,390.73C346.275,390.332,346.384,389.872,346.71,389.59C347.03,389.35,347.47,389.35,347.79,389.59C347.911,389.696,348.01,389.825,348.08,389.97C348.4,390.61,348.72,391.24,349.01,391.89C349.093,392.112,349.295,392.267,349.53,392.29C351.02,392.55,352.53,392.83,354.01,393.08C354.248,393.102,354.454,393.257,354.54,393.48C354.83,394.14,355.16,394.78,355.47,395.43C355.52,395.53,355.563,395.634,355.6,395.74L345.75,396.03L345.91,396.36C346.69,398,347.49,399.62,348.24,401.27C348.515,401.922,348.748,402.589,348.94,403.27C348.98,403.472,349.138,403.63,349.34,403.67C350.62,403.97,351.89,404.3,353.17,404.61C353.348,404.646,353.495,404.77,353.56,404.94C353.72,405.31,353.91,405.67,354.11,406.1L352.58,406.17L349.87,406.27C349.5,406.27,349.48,406.34,349.63,406.69C349.78,407.04,349.96,407.5,350.13,407.9Z" fill="#ffffff" transform="translate(9.74241,12.418) translate(-345.802,-397.418)"/>
    </g>
    <path id="N" fill="#ffffff" d="M-38.3044,935.588L-42.0495,935.382L-41.9663,933.818C-41.9663,933.818,-38.4693,932.914,-36.6588,932.914C-35.1782,932.914,-34.8484,933.697,-34.8484,935.218L-34.8484,936.246C-34.8484,936.246,-32.1334,933.325,-27.4822,932.914C-22.2581,932.459,-20.1178,935.629,-19.9529,940.197C-19.9121,941.842,-19.8287,944.931,-20.0345,951.512C-20.0345,952.328,-19.8713,952.541,-19.295,952.624L-16.7841,953.035L-16.8674,954.681L-26.7427,954.681L-26.6594,953.035L-24.315,952.581C-23.7796,952.5,-23.4989,952.377,-23.4499,951.765C-23.2033,945.887,-23.3274,942.59,-23.4091,940.696C-23.6147,937.075,-25.1379,935.389,-28.3066,935.634C-32.1742,935.925,-34.8484,938.392,-34.8484,938.392C-34.8484,938.392,-34.9724,943.249,-34.8891,951.519C-34.8891,952.334,-34.6833,952.548,-34.1071,952.63L-31.5978,953.042L-31.6795,954.688L-41.5549,954.688L-41.4732,953.042L-39.1272,952.587C-38.5101,952.465,-38.2637,952.342,-38.2637,951.519C-38.1821,942.378,-38.3044,935.588,-38.3044,935.588Z" opacity="1" transform="translate(300.068,640.444) translate(0,0) translate(28.5268,-943.654)"/>
    <path id="I" fill="#ffffff" d="M-153.716,932.19C-153.716,934.056,-153.675,938.113,-153.635,940.87C-153.595,941.438,-153.392,941.64,-152.905,941.683L-150.431,942.088L-150.511,943.71L-160.247,943.71L-160.166,942.088L-157.854,941.64C-157.245,941.52,-156.962,941.398,-156.962,940.586C-156.92,937.868,-156.88,934.954,-156.88,932.108C-156.88,928.661,-157.041,924.889,-157.041,924.889L-160.739,924.681L-160.657,923.139C-160.657,923.139,-157.21,922.247,-155.425,922.247C-153.964,922.247,-153.64,923.018,-153.64,924.519C-153.64,926.018,-153.716,930.035,-153.716,932.19ZM-155.663,914.139C-154.447,914.139,-153.433,914.991,-153.433,916.167C-153.433,917.464,-154.447,918.235,-155.663,918.235C-157.002,918.235,-157.854,917.303,-157.854,916.167C-157.854,915.066,-157.002,914.135,-155.663,914.135Z" opacity="1" transform="translate(283.616,623.362) translate(0,0) translate(150.975,-915.695)"/>
    <path id="P" fill="#ffffff" d="M-270.185,956.171C-269.482,955.055,-267.709,953.076,-263.708,953.076C-258.345,953.076,-254.715,957.161,-254.715,963.596C-254.715,971.31,-260.366,975.146,-265.812,975.146C-267.709,975.146,-269.112,974.735,-270.185,974.197L-270.185,981.17C-270.185,981.988,-270.021,982.407,-269.442,982.49L-266.925,982.902L-267.009,984.554L-276.909,984.554L-276.827,982.902L-274.475,982.449C-273.856,982.325,-273.567,982.202,-273.567,981.376L-273.647,955.758L-277.4,955.551L-277.318,953.984C-277.318,953.984,-273.813,953.076,-271.997,953.076C-270.511,953.076,-270.182,953.861,-270.182,955.386ZM-270.185,958.11L-270.185,970.61C-270.185,970.61,-268.74,972.92,-264.697,972.92C-261.192,972.92,-258.055,970.032,-258.345,963.39C-258.551,958.273,-260.531,955.221,-264.822,955.221C-268.04,955.221,-269.564,956.996,-270.185,958.115Z" opacity="1" transform="translate(256.256,631.776) translate(0,0) translate(269.78,-955.2)"/>
    <path id="S" fill="#ffffff" d="M-378.474,967.4C-378.474,962.427,-389.925,965.158,-390.211,957.536C-390.333,954.397,-387.969,951.341,-382.877,951.341C-379.696,951.341,-376.395,952.808,-376.395,952.808L-376.272,958.065L-377.739,958.188C-378.387,955.09,-379.207,953.46,-382.915,953.46C-385.85,953.46,-387.844,954.969,-387.28,957.291C-386.219,961.734,-375.216,959.33,-375.216,966.95C-375.216,970.413,-378.272,973.145,-383.041,973.145C-385.504,973.142,-387.951,972.757,-390.296,972.003L-390.619,965.972L-388.868,965.81C-388.582,969.316,-386.708,970.946,-383.039,970.946C-380.222,970.946,-378.474,969.519,-378.474,967.4Z" opacity="1" transform="translate(238.902,640.78) translate(0,0) translate(382.918,-962.243)"/>
    <script xlink:href="../keyshape.js"></script>
    <script><![CDATA[if(KeyshapeJS.version.indexOf('1.')!=0)throw Error('Expected KeyshapeJS v1.*.*');window.ks=document.ks=KeyshapeJS;(function(ks){
ks.animate("#WwKtye.tif-2",[{p:'mpath',t:[600,2000,3300,4100,4900,6000],v:['0%','35.156437%','60.585876%','74.720631%','86.772034%','100%'],e:[[0],[0],[0],[0],[0],[0]],mp:"M41.0197,874.232C921.092,1065.11,846.2,475.129,732.073,300.03C513.051,-36.0036,80.025,177.212,84.0084,456.046C76.0417,561.604,162,766,404,754C551.015,738.998,657.781,634.246,614,458C566,252,282.028,321.032,288.029,465.047"},{p:'rotate',t:[600,1500,2900,4300,4800,4900,5000],v:[123.94,42.09,-110.92,-276.03,-334.14,-353.14,-365.14],e:[[1,0,0,1,1],[1,0,0,1,1],[1,0,0,1,1],[0],[0],[0],[0]]},{p:'scaleX',t:[600,5000],v:[6,1.1],e:[[0],[0]]},{p:'scaleY',t:[600,5000],v:[6,1.1],e:[[0],[0]]},{p:'opacity',t:[600,1011,3300,4900,5000],v:[0,1,1,1,0],e:[[0],[0],[0],[0],[0]]}],
"#N",[{p:'mpath',t:[1400,5700],v:['0%','100%'],e:[[0],[0]],mp:"M300.068,640.444L460.852,156.402"},{p:'rotate',t:[1400,6000],v:[0,400],e:[[0],[0]]},{p:'scaleX',t:[1400,6000],v:[1,6.8],e:[[0],[0]]},{p:'scaleY',t:[1400,6000],v:[1,6.8],e:[[0],[0]]},{p:'opacity',t:[1400,5700,6000],v:[1,1,0],e:[[0],[0],[0]]}],
"#I",[{p:'mpath',t:[1400,1600,6000],v:['0%','0%','100%'],e:[[1,0,0,1,1],[1,0,0,1,1],[0]],mp:"M283.616,623.362L283.616,623.362L107.267,316.364"},{p:'rotate',t:[1600,6000],v:[0,-600],e:[[0],[0]]},{p:'scaleX',t:[1600,6000],v:[1,7],e:[[0],[0]]},{p:'scaleY',t:[1600,6000],v:[1,7],e:[[0],[0]]},{p:'opacity',t:[2250,5700,6000],v:[1,1,0],e:[[0],[0],[0]]}],
"#P",[{p:'mpath',t:[1400,1800,3700,5600],v:['0%','0%','47.815184%','100%'],e:[[0],[0],[0],[0]],mp:"M256.256,631.776L256.256,631.776L336,648L248,660"},{p:'rotate',t:[1800,6000],v:[0,300],e:[[0],[0]]},{p:'scaleX',t:[1800,6000],v:[1,27],e:[[0],[0]]},{p:'scaleY',t:[1800,6000],v:[1,27],e:[[0],[0]]},{p:'opacity',t:[1800,5700,6000],v:[1,1,0],e:[[0],[0],[0]]}],
"#S",[{p:'mpath',t:[1400,2000,6000],v:['0%','0%','100%'],e:[[1,0,0,1,1],[1,0,0,1,1],[0]],mp:"M238.902,640.78L238.902,640.78L685.512,1032.8"},{p:'rotate',t:[2000,6000],v:[0,-400],e:[[0],[0]]},{p:'scaleX',t:[2000,6000],v:[1,20],e:[[0],[0]]},{p:'scaleY',t:[2000,6000],v:[1,20],e:[[0],[0]]},{p:'opacity',t:[2000,5700,6000],v:[1,1,0],e:[[0],[0],[0]]}],
{autoremove:false}).range(200,6000).time(200).loop(true);
if(document.location.search.substr(1).split('&').indexOf('global=paused')>=0)ks.globalPause()})(KeyshapeJS);
]]></script>
    <script xlink:href="../keyshape-progress-controller.js"></script>
</svg>
